<svg width="62" height="62" viewBox="0 0 62 62" fill="none" xmlns="http://www.w3.org/2000/svg">
<circle cx="31" cy="31" r="31" fill="#D9D9D9"/>
<path d="M27.6136 38.2784V37.7955C27.6231 36.1383 27.7699 34.8172 28.054 33.8324C28.3475 32.8475 28.7737 32.0521 29.3324 31.446C29.8911 30.84 30.5634 30.2907 31.3494 29.7983C31.9366 29.4195 32.4621 29.0265 32.9261 28.6193C33.3902 28.2121 33.7595 27.7623 34.0341 27.2699C34.3087 26.768 34.446 26.2093 34.446 25.5938C34.446 24.9403 34.2898 24.3674 33.9773 23.875C33.6648 23.3826 33.2434 23.0038 32.7131 22.7386C32.1922 22.4735 31.6146 22.3409 30.9801 22.3409C30.3646 22.3409 29.7822 22.4782 29.233 22.7528C28.6837 23.018 28.2339 23.4157 27.8835 23.946C27.5331 24.4669 27.3438 25.1155 27.3153 25.892H21.5199C21.5672 23.9981 22.0218 22.4356 22.8835 21.2045C23.7453 19.964 24.8864 19.0407 26.3068 18.4347C27.7273 17.8191 29.2945 17.5114 31.0085 17.5114C32.893 17.5114 34.5597 17.8239 36.0085 18.4489C37.4574 19.0644 38.5938 19.9593 39.4176 21.1335C40.2415 22.3078 40.6534 23.7235 40.6534 25.3807C40.6534 26.4886 40.4688 27.4735 40.0994 28.3352C39.7396 29.1875 39.233 29.9451 38.5795 30.608C37.9261 31.2614 37.1544 31.8532 36.2642 32.3835C35.5161 32.8286 34.9006 33.2926 34.4176 33.7756C33.9441 34.2585 33.589 34.8172 33.3523 35.4517C33.125 36.0862 33.0066 36.8674 32.9972 37.7955V38.2784H27.6136ZM30.4261 47.3693C29.4792 47.3693 28.6695 47.0379 27.9972 46.375C27.3343 45.7027 27.0076 44.8977 27.017 43.9602C27.0076 43.0322 27.3343 42.2367 27.9972 41.5739C28.6695 40.911 29.4792 40.5795 30.4261 40.5795C31.3258 40.5795 32.1165 40.911 32.7983 41.5739C33.4801 42.2367 33.8258 43.0322 33.8352 43.9602C33.8258 44.5852 33.66 45.1581 33.3381 45.679C33.0256 46.1903 32.6136 46.6023 32.1023 46.9148C31.5909 47.2178 31.0322 47.3693 30.4261 47.3693Z" fill="white"/>
</svg>
