<svg width="37" height="37" viewBox="0 0 37 37" fill="none" xmlns="http://www.w3.org/2000/svg">
<circle cx="18.5" cy="18.5" r="18.5" fill="#515151"/>
<path d="M22.8911 9.04825C24.2885 7.65064 26.5543 7.65058 27.9519 9.0481C29.3493 10.4455 29.3493 12.7111 27.952 14.1086L27.0602 15.0006L21.9995 9.93991L22.8911 9.04825ZM20.9389 11.0006L10.941 20.9997C10.5347 21.4061 10.2491 21.9172 10.116 22.4762L9.02041 27.0777C8.96009 27.3311 9.03552 27.5976 9.21968 27.7817C9.40385 27.9659 9.67037 28.0413 9.92373 27.981L14.525 26.8855C15.0842 26.7523 15.5955 26.4666 16.0019 26.0601L25.9996 16.0613L20.9389 11.0006Z" fill="#DDDDDD"/>
</svg>
