<svg width="100" height="68" viewBox="0 0 100 68" fill="none" xmlns="http://www.w3.org/2000/svg">
<path d="M99.5 33.5C99.5 42.5327 94.0355 50.7705 85.077 56.7727C76.1218 62.7727 63.7217 66.5 50 66.5C36.2783 66.5 23.8782 62.7727 14.923 56.7727C5.96447 50.7705 0.5 42.5327 0.5 33.5C0.5 24.4673 5.96447 16.2295 14.923 10.2273C23.8782 4.2273 36.2783 0.5 50 0.5C63.7217 0.5 76.1218 4.2273 85.077 10.2273C94.0355 16.2295 99.5 24.4673 99.5 33.5Z" fill="white" stroke="black"/>
<line x1="20.3674" y1="54.3391" x2="8.3674" y2="67.3391" stroke="black"/>
<path d="M47.0733 25.784H48.3533V40.248H47.0733V25.784ZM41.0733 31.304H44.7053V32.392H41.0733V31.304ZM44.1613 26.12H45.4253V39.512H44.1613V26.12ZM36.6093 35.656H37.5373C39.7933 35.656 41.1533 35.592 42.7533 35.256L42.8813 36.36C41.2333 36.712 39.8413 36.776 37.5373 36.776H36.6093V35.656ZM36.6093 27.544H42.0493V28.632H37.9213V36.088H36.6093V27.544ZM61.712 25.784H62.976V35.944H61.712V25.784ZM57.488 30.264H59.68V31.352H57.488V30.264ZM59.072 26.008H60.336V34.84H59.072V26.008ZM50.72 27.576H57.888V28.632H50.72V27.576ZM54.288 29.368C56.048 29.368 57.296 30.424 57.296 31.992C57.296 33.576 56.048 34.632 54.288 34.632C52.544 34.632 51.296 33.576 51.296 31.992C51.296 30.424 52.544 29.368 54.288 29.368ZM54.288 30.392C53.216 30.392 52.48 31.032 52.48 31.992C52.48 32.952 53.216 33.608 54.288 33.608C55.392 33.608 56.112 32.952 56.112 31.992C56.112 31.032 55.392 30.392 54.288 30.392ZM53.632 25.912H54.96V28.296H53.632V25.912ZM57.52 35.336H58.64V35.688C58.64 38.12 55.984 39.768 53.024 40.2L52.56 39.16C55.136 38.84 57.52 37.432 57.52 35.688V35.336ZM57.696 35.336H58.832V35.688C58.832 37.432 61.216 38.84 63.792 39.16L63.328 40.2C60.368 39.768 57.696 38.12 57.696 35.688V35.336Z" fill="black"/>
</svg>
