<svg width="334" height="395" viewBox="0 0 334 395" fill="none" xmlns="http://www.w3.org/2000/svg">
<rect width="334" height="395" rx="10" fill="white"/>
<path d="M148.578 55.064H161.986V56.792H148.578V55.064ZM154.194 52.264H156.322V55.768H154.194V52.264ZM150.082 44.568H160.482V49.496H152.226V51.992H150.114V47.832H158.37V46.248H150.082V44.568ZM150.114 51.144H160.818V52.856H150.114V51.144ZM164.657 44.968H174.049V46.648H164.657V44.968ZM163.297 54.76H176.689V56.488H163.297V54.76ZM172.929 44.968H175.041V46.728C175.041 48.808 175.041 50.824 174.513 53.864L172.385 53.688C172.929 50.84 172.929 48.728 172.929 46.728V44.968ZM188.175 43.624H190.319V54.264H188.175V43.624ZM180.447 56.472H190.687V58.168H180.447V56.472ZM180.447 53.192H182.575V57.16H180.447V53.192ZM182.255 44.552C184.527 44.552 186.271 46.12 186.271 48.312C186.271 50.488 184.527 52.072 182.255 52.072C179.983 52.072 178.223 50.488 178.223 48.312C178.223 46.12 179.983 44.552 182.255 44.552ZM182.255 46.392C181.151 46.392 180.303 47.096 180.303 48.312C180.303 49.512 181.151 50.216 182.255 50.216C183.343 50.216 184.191 49.512 184.191 48.312C184.191 47.096 183.343 46.392 182.255 46.392Z" fill="black"/>
</svg>
