<svg width="78" height="91" viewBox="0 0 78 91" fill="none" xmlns="http://www.w3.org/2000/svg">
<g clip-path="url(#clip0_622_6552)">
<path d="M55.6601 22.62H44.5601V28.32H55.6601V22.62Z" fill="#009344"/>
<path d="M68.45 16.91H55.46V33.9H68.45V16.91Z" fill="#009344"/>
<path d="M60.3801 5.82001H49.6801V11.33H60.3801V5.82001Z" fill="#009344"/>
<path d="M68.44 33.91H61.2V39.56H68.44V33.91Z" fill="#009344"/>
<path d="M72.5599 22.62H66.6899V68.03H72.5599V22.62Z" fill="#009344"/>
<path d="M72.5599 67.53H61.2V73.75H72.5599V67.53Z" fill="#009344"/>
<path d="M72.57 73.47H55.39V79.22H72.57V73.47Z" fill="#009344"/>
<path d="M72.56 78.98H50.15V84.73H72.56V78.98Z" fill="#009344"/>
<path d="M27.61 5.82001H17.1V11.33H27.61V5.82001Z" fill="#009344"/>
<path d="M22.36 16.91H9.07996V22.61H22.36V16.91Z" fill="#009344"/>
<path d="M22.3499 22.62H5.31995V33.91H22.3499V22.62Z" fill="#009344"/>
<path d="M10.9699 39.59H5.31995V45.24H10.9699V39.59Z" fill="#009344"/>
<path d="M16.5499 33.91H5.31995V39.6H16.5499V33.91Z" fill="#009344"/>
<path d="M39.2001 22.62H33.3101V28.32H39.2001V22.62Z" fill="#009344"/>
<path d="M55.66 28.32H22.36V33.91H55.66V28.32Z" fill="#8CC63F"/>
<path d="M61.2001 33.91H16.55V41.67H61.2001V33.91Z" fill="#8CC63F"/>
<path d="M66.6899 39.59H10.9399V67.53H66.6899V39.59Z" fill="#8CC63F"/>
<path d="M11.3799 45.24H5.31995V68.02H11.3799V45.24Z" fill="#8CC63F"/>
<path d="M61.2 66.69H10.71V73.75H61.2V66.69Z" fill="#8CC63F"/>
<path d="M55.39 73.08H16.55V79.22H55.39V73.08Z" fill="#8CC63F"/>
<path d="M50.16 78.98H22V84.73H50.16V78.98Z" fill="#8CC63F"/>
<path d="M10.7099 68.02H5.31995V84.73H10.7099V68.02Z" fill="#009344"/>
<path d="M16.55 73.75H10.71V84.74H16.55V73.75Z" fill="#009344"/>
<path d="M21.99 79.22H16.48V84.73H21.99V79.22Z" fill="#009344"/>
<path d="M60.38 0H17.1V5.82H60.38V0Z" fill="#006737"/>
<path d="M77.7601 22.62H72.5601V84.74H77.7601V22.62Z" fill="#006737"/>
<path d="M72.5599 84.74H5.31995V90.48H72.5599V84.74Z" fill="#006737"/>
<path d="M5.32 22.62H0V84.74H5.32V22.62Z" fill="#006737"/>
<path d="M9.36003 16.91H3.66003V22.61H9.36003V16.91Z" fill="#006737"/>
<path d="M13.61 11.32H7.46997V16.91H13.61V11.32Z" fill="#006737"/>
<path d="M17.11 5.82001H11.55V11.33H17.11V5.82001Z" fill="#006737"/>
<path d="M65.89 5.82001H60.38V11.33H65.89V5.82001Z" fill="#006737"/>
<path d="M69.99 11.32H64.4V16.91H69.99V11.32Z" fill="#006737"/>
<path d="M74.15 16.91H68.45V22.61H74.15V16.91Z" fill="#006737"/>
<path d="M44.8499 22.62H39.2V28.27H44.8499V22.62Z" fill="#FAF0D6"/>
<path d="M33.31 22.62H22.36V28.32H33.31V22.62Z" fill="#FAF0D6"/>
<path d="M49.68 5.82001H27.61V11.33H49.68V5.82001Z" fill="#8CC63F"/>
<path d="M64.4 11.32H13.61V16.91H64.4V11.32Z" fill="#8CC63F"/>
<path d="M55.66 16.91H22.36V22.61H55.66V16.91Z" fill="#8CC63F"/>
<path d="M23.44 44.77H18.89V46.94H23.44V44.77Z" fill="#221E1F"/>
<path d="M23.44 44.53H18.89V44.78H23.44V44.53Z" fill="#555D50"/>
<path d="M18.88 44.53H18.64V46.94H18.88V44.53Z" fill="#70835B"/>
<path d="M23.6799 44.77H23.4399V46.94H23.6799V44.77Z" fill="#70835B"/>
<path d="M23.6799 44.53H23.4399V44.77H23.6799V44.53Z" fill="#70835B"/>
<path d="M18.88 44.53H18.63V44.78H18.88V44.53Z" fill="#70835B"/>
<path d="M30.63 44.78H26.08V46.95H30.63V44.78Z" fill="#221E1F"/>
<path d="M30.63 44.53H26.08V44.78H30.63V44.53Z" fill="#555D50"/>
<path d="M26.0599 44.54H25.8199V46.95H26.0599V44.54Z" fill="#70835B"/>
<path d="M30.86 44.78H30.62V46.92H30.86V44.78Z" fill="#70835B"/>
<path d="M30.88 44.53H30.62V44.78H30.88V44.53Z" fill="#70835B"/>
<path d="M25.8299 46.95H23.6799V49.31H25.8299V46.95Z" fill="#221E1F"/>
<path d="M33.03 46.95H30.88V54.11H33.03V46.95Z" fill="#221E1F"/>
<path d="M18.63 46.95H16.48V54.11H18.63V46.95Z" fill="#221E1F"/>
<path d="M30.64 54.11H28.47V56.31H30.64V54.11Z" fill="#221E1F"/>
<path d="M28.24 56.53H26.04V58.73H28.24V56.53Z" fill="#221E1F"/>
<path d="M25.8399 58.91H23.6699V61.15H25.8399V58.91Z" fill="#221E1F"/>
<path d="M23.46 56.53H21.29V58.73H23.46V56.53Z" fill="#221E1F"/>
<path d="M21.04 54.11H18.87V56.31H21.04V54.11Z" fill="#221E1F"/>
<path d="M18.88 46.95H18.64V56.53H18.88V46.95Z" fill="#70835B"/>
<path d="M30.88 46.95H30.62V56.53H30.88V46.95Z" fill="#70835B"/>
<path d="M21.29 56.31H18.87V56.53H21.29V56.31Z" fill="#555D50"/>
<path d="M23.46 58.73H21.04V58.95H23.46V58.73Z" fill="#555D50"/>
<path d="M26.06 61.15H23.46V61.37H26.06V61.15Z" fill="#555D50"/>
<path d="M28.2399 58.73H25.9399V58.95H28.2399V58.73Z" fill="#555D50"/>
<path d="M23.67 58.91H23.46V61.15H23.67V58.91Z" fill="#70835B"/>
<path d="M26.04 58.84H25.83V61.15H26.04V58.84Z" fill="#70835B"/>
<path d="M28.47 54.11H28.24V58.95H28.47V54.11Z" fill="#70835B"/>
<path d="M23.67 46.95H18.88V54.11H23.67V46.95Z" fill="#D91862"/>
<path d="M25.8299 49.32H23.6699V58.71H25.8299V49.32Z" fill="#D91862"/>
<path d="M28.2399 51.74H25.8199V56.53H28.2399V51.74Z" fill="#D91862"/>
<path d="M30.62 51.74H28.24V54.11H30.62V51.74Z" fill="#D91862"/>
<path d="M23.76 54.11H21.29V56.31H23.76V54.11Z" fill="#D91862"/>
<path d="M28.24 49.32H26.08V51.74H28.24V49.32Z" fill="#C91C5A"/>
<path d="M23.67 56.31H21.29V56.53H23.67V56.31Z" fill="#B14E65"/>
<path d="M26.0499 56.53H25.8199V58.91H26.0499V56.53Z" fill="#B14E65"/>
<path d="M25.8399 58.71H23.6699V58.93H25.8399V58.71Z" fill="#B14E65"/>
<path d="M23.68 56.53H23.46V58.93H23.68V56.53Z" fill="#89565F"/>
<path d="M26.0699 49.32H25.8199V51.85H26.0699V49.32Z" fill="#D91862"/>
<path d="M26.0699 46.95H25.8199V49.32H26.0699V46.95Z" fill="#917886"/>
<path d="M28.2399 46.95H26.0699V49.32H28.2399V46.95Z" fill="#F49EC4"/>
<path d="M30.6 49.57H28.47V51.5H30.6V49.57Z" fill="#F49EC4"/>
<path d="M30.62 46.95H28.47V49.32H30.62V46.95Z" fill="#FCEFF5"/>
<path d="M28.47 46.95H28.24V49.31H28.47V46.95Z" fill="#F9DBE9"/>
<path d="M28.47 49.32H28.24V51.74H28.47V49.32Z" fill="#DC6F8B"/>
<path d="M30.62 49.32H28.47V49.57H30.62V49.32Z" fill="#F6B2D0"/>
<path d="M30.62 51.5H28.47V51.74H30.62V51.5Z" fill="#EC83A5"/>
<path d="M21.29 54.11H21.04V56.31H21.29V54.11Z" fill="#89565F"/>
<path d="M21.29 56.53H21.04V58.73H21.29V56.53Z" fill="#89565F"/>
<path d="M30.64 56.31H28.47V56.53H30.64V56.31Z" fill="#555D50"/>
<path d="M49.68 44.8H45.13V46.97H49.68V44.8Z" fill="#221E1F"/>
<path d="M49.68 44.55H45.13V44.8H49.68V44.55Z" fill="#555D50"/>
<path d="M45.12 44.56H44.88V46.97H45.12V44.56Z" fill="#70835B"/>
<path d="M49.9199 44.8H49.6799V46.97H49.9199V44.8Z" fill="#70835B"/>
<path d="M49.9199 44.56H49.6799V44.8H49.9199V44.56Z" fill="#70835B"/>
<path d="M45.13 44.55H44.88V44.8H45.13V44.55Z" fill="#70835B"/>
<path d="M56.8699 44.8H52.3199V46.97H56.8699V44.8Z" fill="#221E1F"/>
<path d="M56.8699 44.55H52.3199V44.8H56.8699V44.55Z" fill="#555D50"/>
<path d="M52.3099 44.56H52.0699V46.97H52.3099V44.56Z" fill="#70835B"/>
<path d="M57.11 44.8H56.87V46.94H57.11V44.8Z" fill="#70835B"/>
<path d="M57.13 44.55H56.87V44.8H57.13V44.55Z" fill="#70835B"/>
<path d="M52.0699 46.97H49.9199V49.33H52.0699V46.97Z" fill="#221E1F"/>
<path d="M59.28 46.97H57.13V54.13H59.28V46.97Z" fill="#221E1F"/>
<path d="M44.88 46.97H42.73V54.13H44.88V46.97Z" fill="#221E1F"/>
<path d="M56.89 54.13H54.72V56.33H56.89V54.13Z" fill="#221E1F"/>
<path d="M54.49 56.55H52.29V58.75H54.49V56.55Z" fill="#221E1F"/>
<path d="M52.08 58.94H49.91V61.18H52.08V58.94Z" fill="#221E1F"/>
<path d="M49.71 56.55H47.54V58.75H49.71V56.55Z" fill="#221E1F"/>
<path d="M47.29 54.13H45.12V56.33H47.29V54.13Z" fill="#221E1F"/>
<path d="M45.12 46.97H44.88V56.55H45.12V46.97Z" fill="#70835B"/>
<path d="M57.13 46.97H56.87V56.55H57.13V46.97Z" fill="#70835B"/>
<path d="M47.54 56.34H45.12V56.56H47.54V56.34Z" fill="#555D50"/>
<path d="M49.71 58.75H47.29V58.97H49.71V58.75Z" fill="#555D50"/>
<path d="M52.31 61.17H49.71V61.39H52.31V61.17Z" fill="#555D50"/>
<path d="M54.4899 58.75H52.1899V58.97H54.4899V58.75Z" fill="#555D50"/>
<path d="M49.92 58.94H49.71V61.18H49.92V58.94Z" fill="#70835B"/>
<path d="M52.29 58.86H52.08V61.17H52.29V58.86Z" fill="#70835B"/>
<path d="M54.72 54.13H54.49V58.97H54.72V54.13Z" fill="#70835B"/>
<path d="M49.92 46.97H45.13V54.13H49.92V46.97Z" fill="#D91862"/>
<path d="M52.07 49.34H49.91V58.73H52.07V49.34Z" fill="#D91862"/>
<path d="M54.4899 51.76H52.0699V56.55H54.4899V51.76Z" fill="#D91862"/>
<path d="M56.87 51.76H54.49V54.13H56.87V51.76Z" fill="#D91862"/>
<path d="M50.01 54.13H47.54V56.33H50.01V54.13Z" fill="#D91862"/>
<path d="M54.4799 49.34H52.3199V51.76H54.4799V49.34Z" fill="#C91C5A"/>
<path d="M49.92 56.34H47.54V56.56H49.92V56.34Z" fill="#B14E65"/>
<path d="M52.2999 56.55H52.0699V58.93H52.2999V56.55Z" fill="#B14E65"/>
<path d="M52.08 58.73H49.91V58.95H52.08V58.73Z" fill="#B14E65"/>
<path d="M49.93 56.55H49.71V58.95H49.93V56.55Z" fill="#89565F"/>
<path d="M52.3199 49.34H52.0699V51.87H52.3199V49.34Z" fill="#D91862"/>
<path d="M52.3199 46.97H52.0699V49.34H52.3199V46.97Z" fill="#917886"/>
<path d="M54.4899 46.97H52.3199V49.34H54.4899V46.97Z" fill="#F49EC4"/>
<path d="M56.85 49.59H54.72V51.52H56.85V49.59Z" fill="#F49EC4"/>
<path d="M56.87 46.97H54.72V49.34H56.87V46.97Z" fill="#FCEFF5"/>
<path d="M54.72 46.97H54.49V49.33H54.72V46.97Z" fill="#F9DBE9"/>
<path d="M54.72 49.34H54.49V51.76H54.72V49.34Z" fill="#DC6F8B"/>
<path d="M56.87 49.34H54.72V49.59H56.87V49.34Z" fill="#F6B2D0"/>
<path d="M56.87 51.52H54.72V51.76H56.87V51.52Z" fill="#EC83A5"/>
<path d="M47.54 54.13H47.29V56.33H47.54V54.13Z" fill="#89565F"/>
<path d="M47.54 56.55H47.29V58.75H47.54V56.55Z" fill="#89565F"/>
<path d="M56.89 56.34H54.72V56.56H56.89V56.34Z" fill="#555D50"/>
<path d="M31.8801 60.04H29.4301V64.83H31.8801V60.04Z" fill="#221E1F"/>
<path d="M39.06 62.44H36.67V64.83H39.06V62.44Z" fill="#221E1F"/>
<path d="M46.0101 60.04H43.5601V64.83H46.0101V60.04Z" fill="#221E1F"/>
<path d="M36.67 64.83H31.88V67.13H36.67V64.83Z" fill="#221E1F"/>
<path d="M43.5501 64.83H39.0601V67.13H43.5501V64.83Z" fill="#221E1F"/>
</g>
<defs>
<clipPath id="clip0_622_6552">
<rect width="77.76" height="90.48" fill="white"/>
</clipPath>
</defs>
</svg>
