<svg width="78" height="91" viewBox="0 0 78 91" fill="none" xmlns="http://www.w3.org/2000/svg">
<g clip-path="url(#clip0_622_6506)">
<path d="M55.6601 22.62H44.5601V28.32H55.6601V22.62Z" fill="#ED6369"/>
<path d="M68.45 16.91H55.46V33.9H68.45V16.91Z" fill="#ED6369"/>
<path d="M60.3801 5.82001H49.6801V11.33H60.3801V5.82001Z" fill="#ED6369"/>
<path d="M68.44 33.91H61.2V39.56H68.44V33.91Z" fill="#ED6369"/>
<path d="M72.5599 22.62H66.6899V68.03H72.5599V22.62Z" fill="#ED6369"/>
<path d="M72.5599 67.53H61.2V73.75H72.5599V67.53Z" fill="#ED6369"/>
<path d="M72.57 73.47H55.39V79.22H72.57V73.47Z" fill="#ED6369"/>
<path d="M72.56 78.98H50.15V84.73H72.56V78.98Z" fill="#ED6369"/>
<path d="M27.61 5.82001H17.1V11.33H27.61V5.82001Z" fill="#ED6369"/>
<path d="M22.36 16.91H9.07996V22.61H22.36V16.91Z" fill="#ED6369"/>
<path d="M22.3499 22.62H5.31995V33.91H22.3499V22.62Z" fill="#ED6369"/>
<path d="M10.9699 39.59H5.31995V45.24H10.9699V39.59Z" fill="#ED6369"/>
<path d="M16.5499 33.91H5.31995V39.6H16.5499V33.91Z" fill="#ED6369"/>
<path d="M39.2001 22.62H33.3101V28.32H39.2001V22.62Z" fill="#ED6369"/>
<path d="M55.66 28.32H22.36V33.91H55.66V28.32Z" fill="#FFFDED"/>
<path d="M61.2001 33.91H16.55V41.67H61.2001V33.91Z" fill="#FFFDED"/>
<path d="M66.6899 39.59H10.9399V67.53H66.6899V39.59Z" fill="#FFFDED"/>
<path d="M11.3799 45.24H5.31995V68.02H11.3799V45.24Z" fill="#FFFDED"/>
<path d="M61.2 66.69H10.71V73.75H61.2V66.69Z" fill="#FFFDED"/>
<path d="M55.39 73.08H16.55V79.22H55.39V73.08Z" fill="#FFFDED"/>
<path d="M50.16 78.98H22V84.73H50.16V78.98Z" fill="#FFFDED"/>
<path d="M10.7099 68.02H5.31995V84.73H10.7099V68.02Z" fill="#ED6369"/>
<path d="M16.55 73.75H10.71V84.74H16.55V73.75Z" fill="#ED6369"/>
<path d="M21.99 79.22H16.48V84.73H21.99V79.22Z" fill="#ED6369"/>
<path d="M60.38 0H17.1V5.82H60.38V0Z" fill="#C3313B"/>
<path d="M77.7601 22.62H72.5601V84.74H77.7601V22.62Z" fill="#C3313B"/>
<path d="M72.5599 84.74H5.31995V90.48H72.5599V84.74Z" fill="#C3313B"/>
<path d="M5.32 22.62H0V84.74H5.32V22.62Z" fill="#C3313B"/>
<path d="M9.36003 16.91H3.66003V22.61H9.36003V16.91Z" fill="#C3313B"/>
<path d="M13.61 11.32H7.46997V16.91H13.61V11.32Z" fill="#C3313B"/>
<path d="M17.11 5.82001H11.55V11.33H17.11V5.82001Z" fill="#C3313B"/>
<path d="M65.89 5.82001H60.38V11.33H65.89V5.82001Z" fill="#C3313B"/>
<path d="M69.99 11.32H64.4V16.91H69.99V11.32Z" fill="#C3313B"/>
<path d="M74.15 16.91H68.45V22.61H74.15V16.91Z" fill="#C3313B"/>
<path d="M44.8499 22.62H39.2V28.27H44.8499V22.62Z" fill="#FAF0D6"/>
<path d="M33.31 22.62H22.36V28.32H33.31V22.62Z" fill="#FAF0D6"/>
<path d="M49.68 5.82001H27.61V11.33H49.68V5.82001Z" fill="#FFFDED"/>
<path d="M64.4 11.32H13.61V16.91H64.4V11.32Z" fill="#FFFDED"/>
<path d="M55.66 16.91H22.36V22.61H55.66V16.91Z" fill="#FFFDED"/>
<path d="M31.93 49.51H17.72V52.37H31.93V49.51Z" fill="#221E1F"/>
<path d="M54.45 49.51H40.5V52.37H54.45V49.51Z" fill="#221E1F"/>
<path d="M43.2399 57.03H29.2999V60.17H43.2399V57.03Z" fill="#221E1F"/>
<path d="M26.44 55.49H17.72V58.6H26.44V55.49Z" fill="#F6AB86"/>
<path d="M54.7899 55.49H46.0699V58.6H54.7899V55.49Z" fill="#F6AB86"/>
</g>
<defs>
<clipPath id="clip0_622_6506">
<rect width="77.76" height="90.48" fill="white"/>
</clipPath>
</defs>
</svg>
