<svg width="150" height="150" viewBox="0 0 150 150" fill="none" xmlns="http://www.w3.org/2000/svg">
<circle cx="75" cy="75" r="75" fill="#E3F6B1"/>
<g clip-path="url(#clip0_1130_1041)">
<path d="M87.2286 30.4227H62.771V64.2671H87.2286V30.4227Z" fill="#98C850"/>
<path d="M108.441 68.094H36.5806V101.938H108.441V68.094Z" fill="#98C850"/>
<path d="M104.574 38.0823H44.4321V117.929H104.574V38.0823Z" fill="#98C850"/>
<path d="M106.804 44.2855H93.3813V62.6132H106.804V44.2855Z" fill="#009344"/>
<path d="M111.619 50.4436H99.1499V70.0695H111.619V50.4436Z" fill="#1AAE55"/>
<path d="M56.9407 44.2855H42.7109V62.6132H56.9407V44.2855Z" fill="#009344"/>
<path d="M50.6976 50.4436H38.3813V68.8164H50.6976V50.4436Z" fill="#009344"/>
<path d="M44.737 68.8108H38.3813V74.9689H44.737V68.8108Z" fill="#009344"/>
<path d="M111.624 69.4882H105.269V117.935H111.624V69.4882Z" fill="#009344"/>
<path d="M105.692 99.4265H99.3364V117.935H105.692V99.4265Z" fill="#009344"/>
<path d="M99.3362 106.087H92.9805V117.929H99.3362V106.087Z" fill="#009344"/>
<path d="M93.5847 112.256H87.229V117.929H93.5847V112.256Z" fill="#009344"/>
<path d="M44.737 99.1669H38.3813V117.935H44.737V99.1669Z" fill="#009344"/>
<path d="M50.7878 105.901H44.4321V117.929H50.7878V105.901Z" fill="#009344"/>
<path d="M56.7317 111.918H50.376V117.935H56.7317V111.918Z" fill="#009344"/>
<path d="M75.2175 50.4436H68.8618V56.4606H75.2175V50.4436Z" fill="#009344"/>
<path d="M93.3814 50.4436H81.1216V56.4606H93.3814V50.4436Z" fill="#009344"/>
<path d="M38.3814 50.4436H32.7144V117.935H38.3814V50.4436Z" fill="#11744A"/>
<path d="M117.291 50.4436H111.624V117.935H117.291V50.4436Z" fill="#11744A"/>
<path d="M111.624 117.929H38.3813V123.946H111.624V117.929Z" fill="#11744A"/>
<path d="M98.4444 31.9298H86.1846V38.2178H98.4444V31.9298Z" fill="#11744A"/>
<path d="M63.6407 32.0709H51.3809V38.0879H63.6407V32.0709Z" fill="#11744A"/>
<path d="M51.3863 32.0709H45.2563V38.0879H51.3863V32.0709Z" fill="#11744A"/>
<path d="M47.6045 38.0823H41.4746V44.2856H47.6045V38.0823Z" fill="#11744A"/>
<path d="M43.941 43.9412H36.4116V50.5294H43.941V43.9412Z" fill="#11744A"/>
<path d="M104.574 31.9298H98.4443V38.2178H104.574V31.9298Z" fill="#11744A"/>
<path d="M108.808 38.2177H102.678V44.2855H108.808V38.2177Z" fill="#11744A"/>
<path d="M112.647 43.9412H106.059V50.5294H112.647V43.9412Z" fill="#11744A"/>
<path d="M98.4389 26.0538H51.3809V32.0709H98.4389V26.0538Z" fill="#11744A"/>
<path d="M68.8616 50.4436H56.9404V56.4606H68.8616V50.4436Z" fill="#FEF1D5"/>
<path d="M81.1214 50.4436H75.2173V56.4606H81.1214V50.4436Z" fill="#FEF1D5"/>
<path d="M57.5392 74.7657H52.2446V77.0235H57.5392V74.7657Z" fill="black"/>
<path d="M65.1871 74.7657H59.8926V77.0235H65.1871V74.7657Z" fill="black"/>
<path d="M67.4109 77.0236H65.187V84.6662H67.4109V77.0236Z" fill="black"/>
<path d="M59.8928 77.0236H57.5391V79.5918H59.8928V77.0236Z" fill="black"/>
<path d="M52.2444 77.0236H50.0205V84.6662H52.2444V77.0236Z" fill="black"/>
<path d="M54.8129 84.6661H52.2446V87.2344H54.8129V84.6661Z" fill="black"/>
<path d="M57.3807 87.2288H54.8125V89.797H57.3807V87.2288Z" fill="black"/>
<path d="M60.0563 89.797H57.3809V92.3652H60.0563V89.797Z" fill="black"/>
<path d="M65.1874 84.6661H62.6191V87.2344H65.1874V84.6661Z" fill="black"/>
<path d="M62.6249 87.2288H60.0566V89.797H62.6249V87.2288Z" fill="black"/>
<path d="M57.5392 77.0236H52.2446V84.6662H57.5392V77.0236Z" fill="#E61673"/>
<path d="M60.0284 79.5862H54.7339V87.2288H60.0284V79.5862Z" fill="#E61673"/>
<path d="M62.5966 79.5862H59.9663V87.2288H62.5966V79.5862Z" fill="#E61673"/>
<path d="M60.0563 87.2006H57.3809V89.8252H60.0563V87.2006Z" fill="#E61673"/>
<path d="M65.1872 82.0415H62.5117V84.6662H65.1872V82.0415Z" fill="#E61673"/>
<path d="M65.1872 79.5862H62.5117V82.2109H65.1872V79.5862Z" fill="#F6BCB8"/>
<path d="M65.1872 82.0415H62.5117V84.6662H65.1872V82.0415Z" fill="#E61673"/>
<path d="M62.5173 77.0236H59.8418V79.5918H62.5173V77.0236Z" fill="#F6BCB8"/>
<path d="M65.1872 77.0236H62.5117V79.5918H65.1872V77.0236Z" fill="white"/>
<path d="M85.1344 74.6077H79.8398V76.8655H85.1344V74.6077Z" fill="black"/>
<path d="M92.7828 74.6077H87.4883V76.8655H92.7828V74.6077Z" fill="black"/>
<path d="M95.0066 76.8655H92.7827V84.5081H95.0066V76.8655Z" fill="black"/>
<path d="M87.488 76.8655H85.1343V79.4337H87.488V76.8655Z" fill="black"/>
<path d="M79.8343 76.8655H77.6104V84.5081H79.8343V76.8655Z" fill="black"/>
<path d="M82.4081 84.5081H79.8398V87.0763H82.4081V84.5081Z" fill="black"/>
<path d="M84.9764 87.0763H82.4082V89.6445H84.9764V87.0763Z" fill="black"/>
<path d="M87.6462 89.6445H84.9707V92.2128H87.6462V89.6445Z" fill="black"/>
<path d="M92.7826 84.5081H90.2144V87.0763H92.7826V84.5081Z" fill="black"/>
<path d="M90.2147 87.0763H87.6465V89.6445H90.2147V87.0763Z" fill="black"/>
<path d="M85.1344 76.8655H79.8398V84.5081H85.1344V76.8655Z" fill="#E61673"/>
<path d="M87.6183 79.4337H82.3237V87.0763H87.6183V79.4337Z" fill="#E61673"/>
<path d="M90.1919 79.4337H87.5615V87.0763H90.1919V79.4337Z" fill="#E61673"/>
<path d="M87.6462 87.0481H84.9707V89.6728H87.6462V87.0481Z" fill="#E61673"/>
<path d="M92.7829 81.8834H90.1074V84.5081H92.7829V81.8834Z" fill="#E61673"/>
<path d="M92.7829 79.4337H90.1074V82.0584H92.7829V79.4337Z" fill="#F6BCB8"/>
<path d="M92.7829 81.8834H90.1074V84.5081H92.7829V81.8834Z" fill="#E61673"/>
<path d="M90.1071 76.8655H87.4316V79.4337H90.1071V76.8655Z" fill="#F6BCB8"/>
<path d="M92.7829 76.8655H90.1074V79.4337H92.7829V76.8655Z" fill="white"/>
<path d="M66.0846 90.9259H63.4712V95.8084H66.0846V90.9259Z" fill="#0A090A"/>
<path d="M80.8844 90.9259H78.271V95.8084H80.8844V90.9259Z" fill="#0A090A"/>
<path d="M73.6144 93.37H71.001V95.8084H73.6144V93.37Z" fill="#0A090A"/>
<path d="M71.0008 95.8083H66.0845V98.2468H71.0008V95.8083Z" fill="#0A090A"/>
<path d="M78.2766 95.8083H73.6143V98.2468H78.2766V95.8083Z" fill="#0A090A"/>
</g>
<defs>
<clipPath id="clip0_1130_1041">
<rect width="84" height="98" fill="white" transform="translate(33 26)"/>
</clipPath>
</defs>
</svg>
