<svg width="150" height="150" viewBox="0 0 150 150" fill="none" xmlns="http://www.w3.org/2000/svg">
<circle cx="75" cy="75" r="75" fill="#E8B4E4"/>
<path d="M85.4868 33.9795H63.5132V64.3865H85.4868V33.9795Z" fill="#FFFAED"/>
<path d="M107 48H40V112H107V48Z" fill="#FFFAED"/>
<path d="M101 36H48V113H101V36Z" fill="#FFFAED"/>
<path d="M103.074 46.4395H91.0144V62.9057H103.074V46.4395Z" fill="#EB6262"/>
<path d="M107.399 51.967H96.1971V69.5997H107.399V51.967Z" fill="#EB6262"/>
<path d="M58 46H42V63H58V46Z" fill="#EB6262"/>
<path d="M53 48H40V69H53V48Z" fill="#EB6262"/>
<path d="M47.3107 68.4739H41.6005V74.0066H47.3107V68.4739Z" fill="#EB6262"/>
<path d="M107.405 69.0823H101.694V112.609H107.405V69.0823Z" fill="#EB6262"/>
<path d="M107 96H96V117H107V96Z" fill="#EB6262"/>
<path d="M107 102H91V113H107V102Z" fill="#EB6262"/>
<path d="M106 108H85V113H106V108Z" fill="#EB6262"/>
<path d="M47 96H37V113H47V96Z" fill="#EB6262"/>
<path d="M53 102H40V113H53V102Z" fill="#EB6262"/>
<path d="M58 107H40V113H58V107Z" fill="#EB6262"/>
<path d="M74.6953 51.967H68.9851V57.373H74.6953V51.967Z" fill="#EB6262"/>
<path d="M91.0144 51.967H79.9998V57.373H91.0144V51.967Z" fill="#EB6262"/>
<path d="M42 52H37V114H42V52Z" fill="#E03E4C"/>
<path d="M112 52H106V113H112V52Z" fill="#E03E4C"/>
<path d="M107.405 112.604H41.6005V118.009H107.405V112.604Z" fill="#E03E4C"/>
<path d="M95.5633 35.3384H84.5486V40.9877H95.5633V35.3384Z" fill="#E03E4C"/>
<path d="M64.2942 35.4653H53.2795V40.8712H64.2942V35.4653Z" fill="#E03E4C"/>
<path d="M57 35H48V41H57V35Z" fill="#E03E4C"/>
<path d="M49.8869 40.8662H44.3795V46.4395H49.8869V40.8662Z" fill="#E03E4C"/>
<path d="M45 46H40V52H45V46Z" fill="#E03E4C"/>
<path d="M101 35H92V41H101V35Z" fill="#E03E4C"/>
<path d="M104.874 40.9878H99.3667V46.4394H104.874V40.9878Z" fill="#E03E4C"/>
<path d="M108.581 46.4597H103.074V51.9671H108.581V46.4597Z" fill="#E03E4C"/>
<path d="M96 30H53V36H96V30Z" fill="#E03E4C"/>
<path d="M67.7426 78.1548H54.0503V80.8577H67.7426V78.1548Z" fill="black"/>
<path d="M89.8278 78.1548H76.1355V80.8577H89.8278V78.1548Z" fill="black"/>
<path d="M78.6863 85.5994H64.994V88.3023H78.6863V85.5994Z" fill="black"/>
<path d="M62.3215 84.1438H53.817V86.8468H62.3215V84.1438Z" fill="#F4A688"/>
<path d="M90.0965 84.1438H81.592V86.8468H90.0965V84.1438Z" fill="#F4A688"/>
<path d="M68.9851 51.967H58.2747V57.373H68.9851V51.967Z" fill="#FEF1D5"/>
<path d="M79.9997 51.967H74.6952V57.373H79.9997V51.967Z" fill="#FEF1D5"/>
</svg>
