<svg width="50" height="50" viewBox="0 0 50 50" fill="none" xmlns="http://www.w3.org/2000/svg">
<g clip-path="url(#clip0_436_752)">
<path d="M25 45.8333C13.4938 45.8333 4.16667 36.5062 4.16667 25C4.16667 13.4937 13.4938 4.16666 25 4.16666C36.5063 4.16666 45.8333 13.4937 45.8333 25C45.8333 36.5062 36.5063 45.8333 25 45.8333ZM14.6104 38.0333C17.5595 40.391 21.2243 41.6727 25 41.6667C29.1042 41.6667 32.8604 40.1833 35.7646 37.725C34.4078 36.3328 32.7855 35.2268 30.9938 34.4725C29.2021 33.7182 27.2774 33.3308 25.3333 33.3333C23.3179 33.331 21.324 33.7476 19.4781 34.5567C17.6321 35.3658 15.9745 36.5497 14.6104 38.0333ZM11.7 35.0417C13.451 33.1835 15.5639 31.7036 17.9086 30.6932C20.2534 29.6827 22.7802 29.1632 25.3333 29.1667C27.7951 29.1635 30.2333 29.6466 32.5078 30.5883C34.7823 31.53 36.8485 32.9117 38.5875 34.6542C40.371 32.144 41.4242 29.1888 41.6304 26.1165C41.8365 23.0441 41.1874 19.9748 39.7552 17.2489C38.323 14.523 36.1636 12.2471 33.5166 10.6738C30.8696 9.10055 27.8385 8.29132 24.7596 8.33593C21.6807 8.38054 18.6743 9.27725 16.074 10.9266C13.4737 12.5759 11.3812 14.9133 10.0285 17.6796C8.67589 20.4458 8.11604 23.5327 8.41108 26.5978C8.70612 29.6629 9.84453 32.5842 11.7 35.0417ZM25 27.0833C22.7899 27.0833 20.6703 26.2054 19.1074 24.6425C17.5446 23.0797 16.6667 20.9601 16.6667 18.75C16.6667 16.5399 17.5446 14.4202 19.1074 12.8574C20.6703 11.2946 22.7899 10.4167 25 10.4167C27.2101 10.4167 29.3298 11.2946 30.8926 12.8574C32.4554 14.4202 33.3333 16.5399 33.3333 18.75C33.3333 20.9601 32.4554 23.0797 30.8926 24.6425C29.3298 26.2054 27.2101 27.0833 25 27.0833ZM25 22.9167C26.1051 22.9167 27.1649 22.4777 27.9463 21.6963C28.7277 20.9149 29.1667 19.8551 29.1667 18.75C29.1667 17.6449 28.7277 16.5851 27.9463 15.8037C27.1649 15.0223 26.1051 14.5833 25 14.5833C23.8949 14.5833 22.8351 15.0223 22.0537 15.8037C21.2723 16.5851 20.8333 17.6449 20.8333 18.75C20.8333 19.8551 21.2723 20.9149 22.0537 21.6963C22.8351 22.4777 23.8949 22.9167 25 22.9167Z" fill="black"/>
</g>
<defs>
<clipPath id="clip0_436_752">
<rect width="50" height="50" fill="white"/>
</clipPath>
</defs>
</svg>
