<svg width="166" height="166" viewBox="0 0 166 166" fill="none" xmlns="http://www.w3.org/2000/svg">
<circle cx="83" cy="83" r="75" fill="#E8B4E4"/>
<g clip-path="url(#clip0_1130_1103)">
<path d="M95.5017 39.2788H71.4985V72.4689H95.5017V39.2788Z" fill="#FFFAED"/>
<path d="M116.325 76.2274H45.8003V109.418H116.325V76.2274Z" fill="#FFFAED"/>
<path d="M112.519 42.5281H55.0732V125.736H112.519V42.5281Z" fill="#FFFAED"/>
<path d="M114.713 52.8793H101.54V70.8526H114.713V52.8793Z" fill="#EB6262"/>
<path d="M119.438 58.9183H107.201V78.1648H119.438V58.9183Z" fill="#EB6262"/>
<path d="M65.7818 52.8793H51.8164V70.8526H65.7818V52.8793Z" fill="#EB6262"/>
<path d="M59.6494 58.9183H47.562V76.936H59.6494V58.9183Z" fill="#EB6262"/>
<path d="M53.6331 74.8547H47.5396V83.1578H53.6331V74.8547Z" fill="#EB6262"/>
<path d="M119.444 77.5947H113.206V125.105H119.444V77.5947Z" fill="#EB6262"/>
<path d="M113.621 106.954H107.384V125.105H113.621V106.954Z" fill="#EB6262"/>
<path d="M110.137 113.602H101.274V125.227H110.137V113.602Z" fill="#EB6262"/>
<path d="M107.368 119.691H95.7344V125.227H107.368V119.691Z" fill="#EB6262"/>
<path d="M53.7996 106.694H47.562V125.099H53.7996V106.694Z" fill="#EB6262"/>
<path d="M59.7267 113.049H49.7554V125.227H59.7267V113.049Z" fill="#EB6262"/>
<path d="M65.8205 119.138H50.3096V125.227H65.8205V119.138Z" fill="#EB6262"/>
<path d="M83.7132 58.9183H77.4756V64.819H83.7132V58.9183Z" fill="#EB6262"/>
<path d="M101.54 58.9183H89.5078V64.819H101.54V58.9183Z" fill="#EB6262"/>
<path d="M47.5618 58.9183H42V125.105H47.5618V58.9183Z" fill="#E03E4C"/>
<path d="M125.006 58.9183H119.444V125.105H125.006V58.9183Z" fill="#E03E4C"/>
<path d="M119.444 125.099H47.562V131H119.444V125.099Z" fill="#E03E4C"/>
<path d="M106.509 40.7623H94.4766V46.9287H106.509V40.7623Z" fill="#E03E4C"/>
<path d="M72.3572 40.9008H60.3252V46.8015H72.3572V40.9008Z" fill="#E03E4C"/>
<path d="M60.3251 40.9008H54.3091V46.8015H60.3251V40.9008Z" fill="#E03E4C"/>
<path d="M56.6137 46.7959H50.5977V52.8793H56.6137V46.7959Z" fill="#E03E4C"/>
<path d="M51.8163 52.835H45.8003V58.9183H51.8163V52.835Z" fill="#E03E4C"/>
<path d="M112.525 40.7623H106.509V46.9287H112.525V40.7623Z" fill="#E03E4C"/>
<path d="M116.68 46.9287H110.664V52.8792H116.68V46.9287Z" fill="#E03E4C"/>
<path d="M120.729 52.835H114.713V58.9183H120.729V52.835Z" fill="#E03E4C"/>
<path d="M106.509 35H60.3252V40.9007H106.509V35Z" fill="#E03E4C"/>
<path d="M76.1186 87.4974H61.1616V90.4478H76.1186V87.4974Z" fill="#231815"/>
<path d="M100.244 87.4974H85.2866V90.4478H100.244V87.4974Z" fill="#231815"/>
<path d="M88.0732 95.6234H73.1162V98.5738H88.0732V95.6234Z" fill="#231815"/>
<path d="M70.1967 94.0348H60.9067V96.9851H70.1967V94.0348Z" fill="#F4A688"/>
<path d="M100.537 94.0348H91.2471V96.9851H100.537V94.0348Z" fill="#F4A688"/>
<path d="M77.4755 58.9183H65.7759V64.819H77.4755V58.9183Z" fill="#FEF1D5"/>
<path d="M89.5078 58.9183H83.7134V64.819H89.5078V58.9183Z" fill="#FEF1D5"/>
</g>
<defs>
<clipPath id="clip0_1130_1103">
<rect width="83" height="96" fill="white" transform="translate(42 35)"/>
</clipPath>
</defs>
</svg>
