<svg width="126" height="32" viewBox="0 0 126 32" fill="none" xmlns="http://www.w3.org/2000/svg">
<path d="M6.16095 0H0V31.2869H6.16095V0Z" fill="black"/>
<path d="M31.3611 0H25.2002V31.2869H31.3611V0Z" fill="black"/>
<path d="M42.3377 0H36.1768V31.2869H42.3377V0Z" fill="black"/>
<path d="M54.992 0H48.8311V31.2869H54.992V0Z" fill="black"/>
<path d="M66.3016 0H60.1406V31.2869H66.3016V0Z" fill="black"/>
<path d="M77.9153 0H71.7544V31.2869H77.9153V0Z" fill="black"/>
<path d="M102.331 0H96.1699V31.2869H102.331V0Z" fill="black"/>
<path d="M113.236 0H107.075V31.2869H113.236V0Z" fill="black"/>
<path d="M126 0H119.839V31.2869H126V0Z" fill="black"/>
<path d="M120.656 25.1404H111.667V31.2868H120.656V25.1404Z" fill="black"/>
<path d="M50.2478 0H41.2583V6.1464H50.2478V0Z" fill="black"/>
<path d="M49.9197 12.5728H40.9302V18.7191H49.9197V12.5728Z" fill="black"/>
<path d="M18.8915 12.0461H12.355V18.1925H18.8915V12.0461Z" fill="black"/>
<path d="M25.4281 5.89966H18.8916V12.0461H25.4281V5.89966Z" fill="black"/>
<path d="M12.3554 6.03247H5.81885V12.1789H12.3554V6.03247Z" fill="black"/>
<path d="M90.2274 12.179H83.6909V18.3254H90.2274V12.179Z" fill="black"/>
<path d="M96.764 6.03247H90.2275V12.1789H96.764V6.03247Z" fill="black"/>
<path d="M83.6908 6.16528H77.1543V12.3117H83.6908V6.16528Z" fill="black"/>
</svg>
