<svg width="132" height="33" viewBox="0 0 132 33" fill="none" xmlns="http://www.w3.org/2000/svg">
<path d="M6.67532 0.0681152H0V32.1655H6.67532V0.0681152Z" fill="#0A0A0A"/>
<path d="M32.7982 0.0681152H26.1229V32.1655H32.7982V0.0681152Z" fill="#0A0A0A"/>
<path d="M26.3544 6.70935H19.6791V12.9356H26.3544V6.70935Z" fill="#0A0A0A"/>
<path d="M13.0784 6.70935H6.40308V12.9356H13.0784V6.70935Z" fill="#0A0A0A"/>
<path d="M19.7401 12.9355H13.0648V19.1618H19.7401V12.9355Z" fill="#0A0A0A"/>
<path d="M13.0784 6.70935H6.40308V12.9356H13.0784V6.70935Z" fill="#0A0A0A"/>
<path d="M24.6601 17.3586H17.9847V23.5849H24.6601V17.3586Z" fill="#0A0A0A"/>
<path d="M44.3048 0.0681152H37.6295V32.1655H44.3048V0.0681152Z" fill="#0A0A0A"/>
<path d="M57.3424 0.0681152H50.6671V32.1655H57.3424V0.0681152Z" fill="#0A0A0A"/>
<path d="M50.7896 0.0681152H44.1143V6.29433H50.7896V0.0681152Z" fill="#0A0A0A"/>
<path d="M50.7896 12.9355H44.1143V19.1618H50.7896V12.9355Z" fill="#0A0A0A"/>
<path d="M69.1009 0H62.4255V32.0973H69.1009V0Z" fill="#0A0A0A"/>
<path d="M80.8116 0.0681152H74.1362V32.1655H80.8116V0.0681152Z" fill="#0A0A0A"/>
<path d="M87.1059 6.3623H80.4305V12.5885H87.1059V6.3623Z" fill="#0A0A0A"/>
<path d="M100.518 6.28748H93.8424V12.5137H100.518V6.28748Z" fill="#0A0A0A"/>
<path d="M93.7812 12.5885H87.1058V18.8147H93.7812V12.5885Z" fill="#0A0A0A"/>
<path d="M107.193 0.0681152H100.518V32.1655H107.193V0.0681152Z" fill="#0A0A0A"/>
<path d="M118.169 0.0681152H111.494V32.1655H118.169V0.0681152Z" fill="#0A0A0A"/>
<path d="M131.241 0.0681152H124.565V32.1655H131.241V0.0681152Z" fill="#0A0A0A"/>
<path d="M124.844 25.8712H118.169V32.0974H124.844V25.8712Z" fill="#0A0A0A"/>
</svg>
