<svg width="103" height="46" viewBox="0 0 103 46" fill="none" xmlns="http://www.w3.org/2000/svg">
<rect x="13.8667" y="10.4" width="4.26667" height="19.2" fill="white"/>
<rect x="6.40002" y="22.1333" width="4.26667" height="19.2" transform="rotate(-90 6.40002 22.1333)" fill="white"/>
<rect x="9.59998" y="12.5333" width="4.26667" height="5.33333" fill="white" fill-opacity="0.5"/>
<rect x="18.1333" y="12.5333" width="4.26667" height="5.33333" fill="white" fill-opacity="0.5"/>
<rect x="18.1333" y="22.1333" width="4.26667" height="5.33333" fill="white" fill-opacity="0.5"/>
<rect x="9.59998" y="22.1333" width="4.26667" height="5.33333" fill="white" fill-opacity="0.5"/>
<rect x="13.8667" y="4" width="4.26667" height="6.4" fill="white" fill-opacity="0.5"/>
<rect x="13.8667" y="29.6" width="4.26667" height="6.4" fill="white" fill-opacity="0.5"/>
<rect x="25.6" y="17.8667" width="6.4" height="4.26667" fill="white" fill-opacity="0.5"/>
<rect y="17.8667" width="6.4" height="4.26667" fill="white" fill-opacity="0.5"/>
<rect x="88.2667" y="25.2" width="3.46667" height="15.6" fill="white"/>
<rect x="82.2001" y="34.7333" width="3.46667" height="15.6" transform="rotate(-90 82.2001 34.7333)" fill="white"/>
<rect x="84.7999" y="26.9333" width="3.46667" height="4.33333" fill="white" fill-opacity="0.5"/>
<rect x="91.7333" y="26.9333" width="3.46667" height="4.33333" fill="white" fill-opacity="0.5"/>
<rect x="91.7333" y="34.7333" width="3.46667" height="4.33333" fill="white" fill-opacity="0.5"/>
<rect x="84.7999" y="34.7333" width="3.46667" height="4.33333" fill="white" fill-opacity="0.5"/>
<rect x="88.2667" y="20" width="3.46667" height="5.2" fill="white" fill-opacity="0.5"/>
<rect x="88.2667" y="40.8" width="3.46667" height="5.2" fill="white" fill-opacity="0.5"/>
<rect x="97.7999" y="31.2667" width="5.2" height="3.46667" fill="white" fill-opacity="0.5"/>
<rect x="77" y="31.2667" width="5.2" height="3.46667" fill="white" fill-opacity="0.5"/>
<rect x="37.6333" y="2.59998" width="1.73333" height="7.8" fill="white"/>
<rect x="34.6001" y="7.36667" width="1.73333" height="7.8" transform="rotate(-90 34.6001 7.36667)" fill="white"/>
<rect x="35.8999" y="3.46667" width="1.73333" height="2.16667" fill="white" fill-opacity="0.5"/>
<rect x="39.3667" y="3.46667" width="1.73333" height="2.16667" fill="white" fill-opacity="0.5"/>
<rect x="39.3667" y="7.36667" width="1.73333" height="2.16667" fill="white" fill-opacity="0.5"/>
<rect x="35.8999" y="7.36667" width="1.73333" height="2.16667" fill="white" fill-opacity="0.5"/>
<rect x="37.6333" width="1.73333" height="2.6" fill="white" fill-opacity="0.5"/>
<rect x="37.6333" y="10.4" width="1.73333" height="2.6" fill="white" fill-opacity="0.5"/>
<rect x="42.3999" y="5.63333" width="2.6" height="1.73333" fill="white" fill-opacity="0.5"/>
<rect x="32" y="5.63333" width="2.6" height="1.73333" fill="white" fill-opacity="0.5"/>
</svg>
