<svg width="94" height="45" viewBox="0 0 94 45" fill="none" xmlns="http://www.w3.org/2000/svg">
<rect x="5" y="5" width="84" height="35" fill="#F7FBFE"/>
<rect x="5" width="84" height="5" fill="#DEDEDE"/>
<rect x="5" y="40" width="84" height="5" fill="#DEDEDE"/>
<rect y="5" width="5" height="35" fill="#DEDEDE"/>
<rect x="89" y="5" width="5" height="35" fill="#DEDEDE"/>
<rect x="5" y="23" width="84" height="17" fill="#DEDEDE"/>
<rect x="68" y="36" width="4" height="4" fill="#F7FBFE"/>
<rect x="73" y="27" width="4" height="4" fill="#F7FBFE"/>
<rect x="52" y="36" width="4" height="4" fill="#F7FBFE"/>
<rect x="77" y="23" width="4" height="4" fill="#F7FBFE"/>
<rect x="69" y="23" width="4" height="4" fill="#F7FBFE"/>
<rect x="53" y="23" width="4" height="4" fill="#F7FBFE"/>
<rect x="36" y="36" width="4" height="4" fill="#F7FBFE"/>
<rect x="45" y="31" width="4" height="4" fill="#F7FBFE"/>
<rect x="61" y="31" width="4" height="4" fill="#F7FBFE"/>
<rect x="81" y="27" width="4" height="4" fill="#F7FBFE"/>
<rect x="77" y="31" width="4" height="4" fill="#F7FBFE"/>
<rect x="29" y="31" width="4" height="4" fill="#F7FBFE"/>
<rect x="13" y="31" width="4" height="4" fill="#F7FBFE"/>
<rect x="19" y="36" width="4" height="4" fill="#F7FBFE"/>
<rect x="5" y="16" width="4" height="4" fill="#DEDEDE"/>
<rect x="13" y="16" width="4" height="4" fill="#DEDEDE"/>
<rect x="21" y="8" width="4" height="4" fill="#DEDEDE"/>
<rect x="5" y="8" width="4" height="4" fill="#DEDEDE"/>
<rect x="85" y="8" width="4" height="4" fill="#DEDEDE"/>
<rect x="37" y="8" width="4" height="4" fill="#DEDEDE"/>
<rect x="69" y="8" width="4" height="4" fill="#DEDEDE"/>
<rect x="53" y="8" width="4" height="4" fill="#DEDEDE"/>
<rect x="21" y="16" width="4" height="4" fill="#DEDEDE"/>
<rect x="29" y="16" width="4" height="4" fill="#DEDEDE"/>
<rect x="37" y="16" width="4" height="4" fill="#DEDEDE"/>
<rect x="45" y="16" width="4" height="4" fill="#DEDEDE"/>
<rect x="53" y="16" width="4" height="4" fill="#DEDEDE"/>
<rect x="61" y="16" width="4" height="4" fill="#DEDEDE"/>
<rect x="69" y="16" width="4" height="4" fill="#DEDEDE"/>
<rect x="77" y="16" width="4" height="4" fill="#DEDEDE"/>
<rect x="85" y="16" width="4" height="4" fill="#DEDEDE"/>
<rect x="9" y="27" width="4" height="4" fill="#F7FBFE"/>
<rect x="5" y="23" width="4" height="4" fill="#F7FBFE"/>
<rect x="17" y="27" width="4" height="4" fill="#F7FBFE"/>
<rect x="13" y="23" width="4" height="4" fill="#F7FBFE"/>
<rect x="29" y="23" width="4" height="4" fill="#F7FBFE"/>
<rect x="25" y="27" width="4" height="4" fill="#F7FBFE"/>
<rect x="21" y="23" width="4" height="4" fill="#F7FBFE"/>
<rect x="49" y="27" width="4" height="4" fill="#F7FBFE"/>
<rect x="45" y="23" width="4" height="4" fill="#F7FBFE"/>
<rect x="41" y="27" width="4" height="4" fill="#F7FBFE"/>
<rect x="37" y="23" width="4" height="4" fill="#F7FBFE"/>
<rect x="33" y="27" width="4" height="4" fill="#F7FBFE"/>
<rect x="65" y="27" width="4" height="4" fill="#F7FBFE"/>
<rect x="61" y="23" width="4" height="4" fill="#F7FBFE"/>
<rect x="85" y="23" width="4" height="4" fill="#F7FBFE"/>
<rect x="81" y="19" width="4" height="4" fill="#F7FBFE"/>
<rect x="57" y="27" width="4" height="4" fill="#F7FBFE"/>
</svg>
