<svg width="62" height="62" viewBox="0 0 62 62" fill="none" xmlns="http://www.w3.org/2000/svg">
<circle cx="31" cy="31" r="31" fill="white"/>
<path d="M31.2435 14.2123C33.8776 11.5758 38.1514 11.5758 40.7875 14.2118C43.3559 16.7803 43.4218 20.9036 40.9851 23.5518L40.7734 23.7738L30.8734 33.6718L30.8322 33.7059C29.1883 35.1872 26.6526 35.1369 25.0693 33.5536C23.5854 32.0697 23.448 29.7492 24.6572 28.1104C24.6834 28.0593 24.7152 28.0101 24.7526 27.9639L24.8128 27.8967L24.9106 27.7981L25.0693 27.6317L25.0726 27.635L33.4378 19.2488C33.7369 18.9489 34.2056 18.921 34.5362 19.1657L34.6311 19.2472C34.931 19.5464 34.9588 20.0151 34.7142 20.3457L34.6327 20.4405L26.0887 29.0052C25.2813 29.9903 25.3374 31.4463 26.257 32.3659C27.1897 33.2985 28.6743 33.343 29.6596 32.4991L39.5964 22.5648C41.5713 20.5875 41.5713 17.3821 39.5942 15.4051C37.679 13.4898 34.6109 13.43 32.6236 15.2255L32.4349 15.4051L32.4207 15.4212L21.6923 26.1495C21.3628 26.479 20.8286 26.479 20.4991 26.1495C20.1995 25.85 20.1723 25.3812 20.4174 25.0509L20.4991 24.9563L31.2416 14.2118L31.2435 14.2123Z" fill="#212121"/>
<path d="M23.0156 41.6953V45.9688H22.4062V41.6953H23.0156ZM17.6328 42.6484V42.1328H20.8047V44.0391H18.2422V45.0234C19.4844 45.0234 20.4102 44.9883 21.5391 44.8047L21.6094 45.3125C20.4414 45.5039 19.4922 45.5352 18.2109 45.5391H17.6484V43.5547H20.1953V42.6484H17.6328ZM18.3672 47.3672C18.3633 46.5703 19.25 46.1094 20.7109 46.1094C22.1719 46.1094 23.0625 46.5703 23.0625 47.3672C23.0625 48.1602 22.1719 48.6172 20.7109 48.6172C19.25 48.6172 18.3633 48.1602 18.3672 47.3672ZM18.9688 47.3672C18.9727 47.8438 19.6289 48.1289 20.7109 48.125C21.7891 48.1289 22.4492 47.8438 22.4453 47.3672C22.4492 46.8906 21.7891 46.6016 20.7109 46.6016C19.6289 46.6016 18.9727 46.8906 18.9688 47.3672ZM29.7344 42.3984V43.2578C29.7383 44.2812 29.7383 45.2266 29.4453 46.6328L28.8281 46.5781C28.9844 45.9102 29.0586 45.332 29.0977 44.793L24.8594 45.0234L24.7734 44.5156L29.125 44.3359C29.1367 43.9688 29.1406 43.6133 29.1406 43.2578V42.9141H24.9609V42.3984H29.7344ZM24.1953 47.6562V47.1406H30.5234V47.6562H24.1953ZM37.4375 45.2812V45.7891H31.1094V45.2812H33.9688V44.4453H31.9531V41.8516H32.5625V42.6562H36V41.8516H36.6094V44.4453H34.5781V45.2812H37.4375ZM31.8125 46.9688V46.4766H36.6562V48.6328H36.0391V46.9688H31.8125ZM32.5625 43.9531H36V43.125H32.5625V43.9531ZM40.3516 43.5547C40.3516 44.7773 41.1602 46.0391 42.1484 46.5234L41.7734 47.0156C41.0078 46.6172 40.3672 45.793 40.0586 44.8281C39.75 45.8516 39.0938 46.7305 38.3125 47.1484L37.9219 46.6562C38.9375 46.1562 39.7422 44.8242 39.75 43.5547V42.2891H40.3516V43.5547ZM42.7891 48.6328V41.6875H43.3984V44.5078H44.5625V45.0391H43.3984V48.6328H42.7891Z" fill="black"/>
</svg>
