<svg width="244" height="88" viewBox="0 0 244 88" fill="none" xmlns="http://www.w3.org/2000/svg">
<g clip-path="url(#clip0_1630_952)">
<path d="M41.2765 26.6406V35.8906H34.589V26.6406H41.2765ZM36.2921 34.5H39.5421V28H36.2921V34.5ZM43.4171 39.3906V25.2656H45.1515V30.6875H47.3234V32.1562H45.1515V39.3906H43.4171ZM53.931 25.5469C57.056 25.5469 59.017 26.5703 59.0248 28.2969C59.017 29.9844 57.056 30.9922 53.931 30.9844C50.8373 30.9922 48.8373 29.9844 48.8373 28.2969C48.8373 26.5703 50.8373 25.5469 53.931 25.5469ZM47.5091 33.3438V31.9375H60.3841V33.3438H47.5091ZM49.0248 39.2188V34.4688H58.8216V39.2188H49.0248ZM50.6498 28.2969C50.6341 29.1484 51.8685 29.6328 53.931 29.6406C55.9935 29.6328 57.2279 29.1484 57.2279 28.2969C57.2279 27.3984 55.9935 26.9062 53.931 26.9062C51.8685 26.9062 50.6341 27.3984 50.6498 28.2969ZM50.7435 37.8125H57.1341V35.8438H50.7435V37.8125ZM73.1168 25.2656V39.3906H71.4449V25.2656H73.1168ZM61.0699 31.375C61.0699 28.2656 62.273 26.3359 64.1168 26.3438C65.8277 26.3359 66.9918 27.9375 67.1949 30.5781H68.5543V25.5156H70.2105V38.7031H68.5543V31.9844H67.2105C67.0465 34.7422 65.8668 36.4297 64.1168 36.4219C62.273 36.4297 61.0699 34.4922 61.0699 31.375ZM62.6793 31.375C62.6715 33.5859 63.2183 34.7734 64.1168 34.7656C65.0543 34.7734 65.609 33.5859 65.6168 31.375C65.609 29.1719 65.0543 27.9766 64.1168 27.9844C63.2183 27.9766 62.6715 29.1719 62.6793 31.375ZM89.207 31.8906V33.2812H79.3008V26.5H89.0976V27.9062H81.0195V31.8906H89.207ZM77.7383 37.5938V36.1562H90.6445V37.5938H77.7383ZM102.596 29.2656V30.6406H92.8146V25.7812H94.5334V29.2656H102.596ZM91.1428 33.6562V32.2812H104.049V33.6562H91.1428ZM92.6896 39.0625V34.9062H94.424V37.6562H102.69V39.0625H92.6896ZM115.155 26.6406V35.8906H108.467V26.6406H115.155ZM110.171 34.5H113.421V28H110.171V34.5ZM117.296 39.3906V25.2656H119.03V30.6875H121.202V32.1562H119.03V39.3906H117.296ZM133.138 25.2656V39.4062H131.388V25.2656H133.138ZM121.841 31.2812C121.833 28.2344 123.388 26.2969 125.528 26.2969C127.645 26.2969 129.208 28.2344 129.216 31.2812C129.208 34.3516 127.645 36.2812 125.528 36.2812C123.388 36.2812 121.833 34.3516 121.841 31.2812ZM123.513 31.2812C123.513 33.4531 124.333 34.7109 125.528 34.7188C126.716 34.7109 127.528 33.4531 127.528 31.2812C127.528 29.125 126.716 27.8594 125.528 27.8594C124.333 27.8594 123.513 29.125 123.513 31.2812ZM147.698 33.2656V34.6719H142.073V39.375H140.355V34.6719H134.792V33.2656H147.698ZM136.37 31.6094V25.9844H146.12V31.6094H136.37ZM138.073 30.25H144.386V27.375H138.073V30.25ZM161.118 31.6719V32.9844H148.212V31.6719H161.118ZM149.712 35.0469V33.8281H159.556V37.0469H151.462V38.0312H159.978V39.2344H149.728V35.9219H157.837V35.0469H149.712ZM149.806 26.7812V25.5781H159.525V28.7656H151.572V29.6875H159.775V30.875H149.853V27.6406H157.79V26.7812H149.806ZM176.318 25.8125V26.6875C176.318 27.5469 176.318 28.6562 176.068 30.0469L174.349 29.8906C174.537 28.7812 174.576 27.9297 174.584 27.1875H166.537V25.8125H176.318ZM165.068 32.0469V30.6875H170.037V28.4844H171.756V30.6875H177.881V32.0469H165.068ZM166.521 34.4531V33.0625H176.349V36.7031H168.271V37.8906H176.709V39.25H166.537V35.5156H174.615V34.4531H166.521ZM189.519 25.2656V30.6875H191.691V32.1406H189.519V39.4062H187.801V25.2656H189.519ZM179.019 27.9062V26.5H185.519V31.8281H180.769V34.6406C183.012 34.625 184.754 34.5312 186.723 34.1875L186.879 35.5938C184.699 35.9844 182.777 36.0781 180.207 36.0781H179.051V30.4375H183.785V27.9062H179.019ZM194.315 26.4062V28.2969H197.986V26.4062H199.721V32.8594H197.033V35.125C198.197 35.0703 199.354 34.9766 200.44 34.8281L200.565 36.1094C197.604 36.6172 194.377 36.6406 191.955 36.6562L191.705 35.2188C192.775 35.2109 194.01 35.2109 195.299 35.1797V32.8594H192.596V26.4062H194.315ZM194.315 31.4688H197.986V29.625H194.315V31.4688ZM201.252 39.3906V25.2656H202.986V31H205.033V32.4531H202.986V39.3906H201.252ZM208.203 26.6875L208.032 34.6719H206.266L206.078 26.6875H208.203ZM205.938 36.9062C205.93 36.25 206.485 35.7109 207.157 35.7031C207.805 35.7109 208.36 36.25 208.36 36.9062C208.36 37.5781 207.805 38.125 207.157 38.125C206.485 38.125 205.93 37.5781 205.938 36.9062Z" fill="#1D1D1D"/>
<path d="M10 11H1V54H10V11Z" fill="#D6D6D6"/>
<path d="M243 11H232V54H243V11Z" fill="#D6D6D6"/>
<path d="M235 5H226V15H235V5Z" fill="#D6D6D6"/>
<path d="M236 53H225V60H236V53Z" fill="#D6D6D6"/>
<path d="M228 1H17V63H228V1Z" fill="white"/>
<path d="M235 11H211V54H235V11Z" fill="white"/>
<path d="M228.072 0.805908H16.6416V5.17736H228.072V0.805908Z" fill="#D6D6D6"/>
<path d="M125.929 76.3831H118.771V82.5194H125.929V76.3831Z" fill="white"/>
<path d="M228.072 59.644H16.6416V64.0155H228.072V59.644Z" fill="#D6D6D6"/>
<path d="M131 58H114V82H131V58Z" fill="white"/>
<path d="M116.475 64.0154H111.653V76.8718H116.475V64.0154Z" fill="#D6D6D6"/>
<path d="M134.092 64.0154H129.271V76.8718H134.092V64.0154Z" fill="#D6D6D6"/>
<path d="M131.199 76.8718H125.929V82.533H131.199V76.8718Z" fill="#D6D6D6"/>
<path d="M118.771 76.8718H113.501V82.533H118.771V76.8718Z" fill="#D6D6D6"/>
<path d="M128 81H117V88H128V81Z" fill="#D6D6D6"/>
<path d="M229 0H15V64H229V0Z" fill="white"/>
<path d="M230 0H15V5H230V0Z" fill="#D6D6D6"/>
<path d="M230 61H14V66H230V61Z" fill="#D6D6D6"/>
<path d="M8.38515 10.8508H0V55.6865H8.38515V10.8508Z" fill="#D6D6D6"/>
<path d="M244 10.8508H235.615V55.6865H244V10.8508Z" fill="#D6D6D6"/>
<path d="M15.5113 4.58081H8.38525V10.8508H15.5113V4.58081Z" fill="#D6D6D6"/>
<path d="M235.796 4.58081H228.67V10.8508H235.796V4.58081Z" fill="#D6D6D6"/>
<path d="M235.796 55.6865H228.67V61.9565H235.796V55.6865Z" fill="#D6D6D6"/>
<path d="M15.5113 55.6865H8.38525V61.9565H15.5113V55.6865Z" fill="#D6D6D6"/>
<path d="M32.697 10.8508H8.38525V55.6865H32.697V10.8508Z" fill="white"/>
<path d="M235.783 10.8508H211.472V55.6865H235.783V10.8508Z" fill="white"/>
<path d="M41.749 27.3582V36.6082H35.0615V27.3582H41.749ZM36.7646 35.2175H40.0146V28.7175H36.7646V35.2175ZM43.8896 40.1082V25.9832H45.624V31.405H47.7959V32.8738H45.624V40.1082H43.8896ZM54.4035 26.2644C57.5285 26.2644 59.4894 27.2878 59.4972 29.0144C59.4894 30.7019 57.5285 31.7097 54.4035 31.7019C51.3097 31.7097 49.3097 30.7019 49.3097 29.0144C49.3097 27.2878 51.3097 26.2644 54.4035 26.2644ZM47.9816 34.0613V32.655H60.8566V34.0613H47.9816ZM49.4972 39.9363V35.1863H59.2941V39.9363H49.4972ZM51.1222 29.0144C51.1066 29.866 52.341 30.3503 54.4035 30.3582C56.466 30.3503 57.7004 29.866 57.7004 29.0144C57.7004 28.116 56.466 27.6238 54.4035 27.6238C52.341 27.6238 51.1066 28.116 51.1222 29.0144ZM51.216 38.53H57.6066V36.5613H51.216V38.53ZM73.5892 25.9832V40.1082H71.9174V25.9832H73.5892ZM61.5424 32.0925C61.5424 28.9832 62.7455 27.0535 64.5892 27.0613C66.3002 27.0535 67.4642 28.655 67.6674 31.2957H69.0267V26.2332H70.683V39.4207H69.0267V32.7019H67.683C67.5189 35.4597 66.3392 37.1472 64.5892 37.1394C62.7455 37.1472 61.5424 35.2097 61.5424 32.0925ZM63.1517 32.0925C63.1439 34.3035 63.6908 35.491 64.5892 35.4832C65.5267 35.491 66.0814 34.3035 66.0892 32.0925C66.0814 29.8894 65.5267 28.6941 64.5892 28.7019C63.6908 28.6941 63.1439 29.8894 63.1517 32.0925ZM89.6795 32.6082V33.9988H79.7732V27.2175H89.5701V28.6238H81.492V32.6082H89.6795ZM78.2107 38.3113V36.8738H91.117V38.3113H78.2107ZM103.068 29.9832V31.3582H93.2871V26.4988H95.0059V29.9832H103.068ZM91.6152 34.3738V32.9988H104.521V34.3738H91.6152ZM93.1621 39.78V35.6238H94.8965V38.3738H103.162V39.78H93.1621ZM115.627 27.3582V36.6082H108.94V27.3582H115.627ZM110.643 35.2175H113.893V28.7175H110.643V35.2175ZM117.768 40.1082V25.9832H119.502V31.405H121.674V32.8738H119.502V40.1082H117.768ZM133.61 25.9832V40.1238H131.86V25.9832H133.61ZM122.313 31.9988C122.305 28.9519 123.86 27.0144 126.001 27.0144C128.118 27.0144 129.68 28.9519 129.688 31.9988C129.68 35.0691 128.118 36.9988 126.001 36.9988C123.86 36.9988 122.305 35.0691 122.313 31.9988ZM123.985 31.9988C123.985 34.1707 124.805 35.4285 126.001 35.4363C127.188 35.4285 128.001 34.1707 128.001 31.9988C128.001 29.8425 127.188 28.5769 126.001 28.5769C124.805 28.5769 123.985 29.8425 123.985 31.9988ZM148.171 33.9832V35.3894H142.546V40.0925H140.827V35.3894H135.264V33.9832H148.171ZM136.843 32.3269V26.7019H146.593V32.3269H136.843ZM138.546 30.9675H144.858V28.0925H138.546V30.9675ZM161.591 32.3894V33.7019H148.685V32.3894H161.591ZM150.185 35.7644V34.5457H160.028V37.7644H151.935V38.7488H160.45V39.9519H150.2V36.6394H158.31V35.7644H150.185ZM150.278 27.4988V26.2957H159.997V29.4832H152.044V30.405H160.247V31.5925H150.325V28.3582H158.263V27.4988H150.278ZM176.79 26.53V27.405C176.79 28.2644 176.79 29.3738 176.54 30.7644L174.822 30.6082C175.009 29.4988 175.048 28.6472 175.056 27.905H167.009V26.53H176.79ZM165.54 32.7644V31.405H170.509V29.2019H172.228V31.405H178.353V32.7644H165.54ZM166.994 35.1707V33.78H176.822V37.4207H168.744V38.6082H177.181V39.9675H167.009V36.2332H175.087V35.1707H166.994ZM189.992 25.9832V31.405H192.164V32.8582H189.992V40.1238H188.273V25.9832H189.992ZM179.492 28.6238V27.2175H185.992V32.5457H181.242V35.3582C183.484 35.3425 185.226 35.2488 187.195 34.905L187.351 36.3113C185.172 36.7019 183.25 36.7957 180.679 36.7957H179.523V31.155H184.257V28.6238H179.492ZM194.787 27.1238V29.0144H198.459V27.1238H200.193V33.5769H197.506V35.8425C198.67 35.7878 199.826 35.6941 200.912 35.5457L201.037 36.8269C198.076 37.3347 194.849 37.3582 192.428 37.3738L192.178 35.9363C193.248 35.9285 194.482 35.9285 195.771 35.8972V33.5769H193.068V27.1238H194.787ZM194.787 32.1863H198.459V30.3425H194.787V32.1863ZM201.724 40.1082V25.9832H203.459V31.7175H205.506V33.1707H203.459V40.1082H201.724ZM208.676 27.405L208.504 35.3894H206.738L206.551 27.405H208.676ZM206.41 37.6238C206.402 36.9675 206.957 36.4285 207.629 36.4207C208.277 36.4285 208.832 36.9675 208.832 37.6238C208.832 38.2957 208.277 38.8425 207.629 38.8425C206.957 38.8425 206.402 38.2957 206.41 37.6238Z" fill="#1D1D1D"/>
<rect x="116" y="57" width="13" height="18" fill="white"/>
</g>
<defs>
<clipPath id="clip0_1630_952">
<rect width="244" height="88" fill="white"/>
</clipPath>
</defs>
</svg>
