<svg width="233" height="86" viewBox="0 0 233 86" fill="none" xmlns="http://www.w3.org/2000/svg">
<g clip-path="url(#clip0_953_2347)">
<path d="M218.512 0.631226H14.7653V4.84382H218.512V0.631226Z" fill="#D6D6D6"/>
<path d="M218.512 57.3312H14.7653V61.5438H218.512V57.3312Z" fill="#D6D6D6"/>
<path d="M7.95888 10.6002H-0.0648193V51.7581H7.95888V10.6002Z" fill="#D6D6D6"/>
<path d="M233.185 10.6002H225.162V51.7581H233.185V10.6002Z" fill="#D6D6D6"/>
<path d="M14.7522 4.84387H7.9458V10.6002H14.7522V4.84387Z" fill="#D6D6D6"/>
<path d="M225.319 4.84387H218.512V10.6002H225.319V4.84387Z" fill="#D6D6D6"/>
<path d="M225.319 51.7449H218.512V57.5012H225.319V51.7449Z" fill="#D6D6D6"/>
<path d="M14.7522 51.7449H7.9458V57.5012H14.7522V51.7449Z" fill="#D6D6D6"/>
<path d="M218.512 4.84387H14.7653V57.3312H218.512V4.84387Z" fill="white"/>
<path d="M31.1923 10.6002H7.9458V51.7581H31.1923V10.6002Z" fill="white"/>
<path d="M225.332 10.6002H202.085V51.7581H225.332V10.6002Z" fill="white"/>
<path d="M123.314 55.7744H110.984V78.996H123.314V55.7744Z" fill="white"/>
<path d="M120.081 73.462H113.183V79.3754H120.081V73.462Z" fill="white"/>
<path d="M110.971 61.5438H106.324V73.933H110.971V61.5438Z" fill="#D6D6D6"/>
<path d="M127.948 61.5438H123.301V73.933H127.948V61.5438Z" fill="#D6D6D6"/>
<path d="M125.16 73.933H120.081V79.3884H125.16V73.933Z" fill="#D6D6D6"/>
<path d="M113.183 73.933H108.105V79.3884H113.183V73.933Z" fill="#D6D6D6"/>
<path d="M120.081 79.3884H113.183V84.8439H120.081V79.3884Z" fill="#D6D6D6"/>
<path d="M31.5239 24.9307V34.7588H24.4184V24.9307H31.5239ZM26.228 33.2812H29.6811V26.375H26.228V33.2812ZM33.7983 38.4775V23.4697H35.6411V29.2305H37.9487V30.791H35.6411V38.4775H33.7983ZM44.9948 23.7686C48.3151 23.7686 50.3986 24.856 50.4069 26.6904C50.3986 28.4834 48.3151 29.5542 44.9948 29.5459C41.7077 29.5542 39.5827 28.4834 39.5827 26.6904C39.5827 24.856 41.7077 23.7686 44.9948 23.7686ZM38.1715 32.0527V30.5586H51.8512V32.0527H38.1715ZM39.7819 38.2949V33.248H50.1911V38.2949H39.7819ZM41.5084 26.6904C41.4918 27.5952 42.8034 28.1099 44.9948 28.1182C47.1862 28.1099 48.4977 27.5952 48.4977 26.6904C48.4977 25.7358 47.1862 25.2129 44.9948 25.2129C42.8034 25.2129 41.4918 25.7358 41.5084 26.6904ZM41.6081 36.8008H48.3981V34.709H41.6081V36.8008ZM65.4051 23.4697V38.4775H63.6288V23.4697H65.4051ZM52.6053 29.9609C52.6053 26.6572 53.8836 24.6069 55.8426 24.6152C57.6605 24.6069 58.8973 26.3086 59.1131 29.1143H60.5575V23.7354H62.3172V37.7471H60.5575V30.6084H59.1297C58.9554 33.5386 57.702 35.3315 55.8426 35.3232C53.8836 35.3315 52.6053 33.2729 52.6053 29.9609ZM54.3153 29.9609C54.307 32.3101 54.888 33.5718 55.8426 33.5635C56.8387 33.5718 57.4281 32.3101 57.4364 29.9609C57.4281 27.6201 56.8387 26.3501 55.8426 26.3584C54.888 26.3501 54.307 27.6201 54.3153 29.9609ZM82.552 30.5088V31.9863H72.0266V24.7812H82.4358V26.2754H73.8528V30.5088H82.552ZM70.3665 36.5684V35.041H84.0794V36.5684H70.3665ZM96.8032 27.7197V29.1807H86.4106V24.0176H88.2368V27.7197H96.8032ZM84.6343 32.3848V30.9238H98.3471V32.3848H84.6343ZM86.2778 38.1289V33.7129H88.1206V36.6348H96.9028V38.1289H86.2778ZM110.198 24.9307V34.7588H103.093V24.9307H110.198ZM104.902 33.2812H108.355V26.375H104.902V33.2812ZM112.473 38.4775V23.4697H114.315V29.2305H116.623V30.791H114.315V38.4775H112.473ZM129.33 23.4697V38.4941H127.471V23.4697H129.33ZM117.327 29.8613C117.319 26.624 118.971 24.5654 121.245 24.5654C123.495 24.5654 125.155 26.624 125.163 29.8613C125.155 33.1235 123.495 35.1738 121.245 35.1738C118.971 35.1738 117.319 33.1235 117.327 29.8613ZM119.104 29.8613C119.104 32.1689 119.975 33.5054 121.245 33.5137C122.507 33.5054 123.37 32.1689 123.37 29.8613C123.37 27.5703 122.507 26.2256 121.245 26.2256C119.975 26.2256 119.104 27.5703 119.104 29.8613ZM144.826 31.9697V33.4639H138.85V38.4609H137.024V33.4639H131.114V31.9697H144.826ZM132.79 30.21V24.2334H143.15V30.21H132.79ZM134.6 28.7656H141.307V25.7109H134.6V28.7656ZM159.111 30.2764V31.6709H145.398V30.2764H159.111ZM146.992 33.8623V32.5674H157.451V35.9873H148.851V37.0332H157.899V38.3115H147.008V34.792H155.625V33.8623H146.992ZM147.091 25.0801V23.8018H157.417V27.1885H148.967V28.168H157.683V29.4297H147.141V25.9932H155.575V25.0801H147.091ZM175.311 24.0508V24.9805C175.311 25.8936 175.311 27.0723 175.046 28.5498L173.22 28.3838C173.419 27.2051 173.46 26.3003 173.469 25.5117H164.919V24.0508H175.311ZM163.358 30.6748V29.2305H168.638V26.8896H170.464V29.2305H176.972V30.6748H163.358ZM164.902 33.2314V31.7539H175.345V35.6221H166.762V36.8838H175.727V38.3281H164.919V34.3604H173.502V33.2314H164.902ZM189.363 23.4697V29.2305H191.671V30.7744H189.363V38.4941H187.537V23.4697H189.363ZM178.207 26.2754V24.7812H185.113V30.4424H180.067V33.4307C182.449 33.4141 184.3 33.3145 186.392 32.9492L186.558 34.4434C184.242 34.8584 182.2 34.958 179.469 34.958H178.24V28.9648H183.271V26.2754H178.207ZM194.484 24.6816V26.6904H198.385V24.6816H200.228V31.5381H197.372V33.9453C198.609 33.8872 199.838 33.7876 200.992 33.6299L201.124 34.9912C197.978 35.5308 194.55 35.5557 191.977 35.5723L191.711 34.0449C192.848 34.0366 194.16 34.0366 195.53 34.0034V31.5381H192.658V24.6816H194.484ZM194.484 30.0605H198.385V28.1016H194.484V30.0605ZM201.855 38.4775V23.4697H203.698V29.5625H205.872V31.1064H203.698V38.4775H201.855ZM209.266 24.9805L209.084 33.4639H207.208L207.008 24.9805H209.266ZM206.859 35.8379C206.851 35.1406 207.44 34.5679 208.154 34.5596C208.843 34.5679 209.432 35.1406 209.432 35.8379C209.432 36.5518 208.843 37.1328 208.154 37.1328C207.44 37.1328 206.851 36.5518 206.859 35.8379Z" fill="#1D1D1D"/>
</g>
<defs>
<clipPath id="clip0_953_2347">
<rect width="233" height="86" fill="white"/>
</clipPath>
</defs>
</svg>
