<svg width="244" height="88" viewBox="0 0 244 88" fill="none" xmlns="http://www.w3.org/2000/svg">
<g clip-path="url(#clip0_926_2191)">
<path d="M228.072 0.805908H16.6418V5.17736H228.072V0.805908Z" fill="#D6D6D6"/>
<path d="M228.072 59.644H16.6418V64.0154H228.072V59.644Z" fill="#D6D6D6"/>
<path d="M9.57871 11.1508H1.25244V53.8606H9.57871V11.1508Z" fill="#D6D6D6"/>
<path d="M243.298 11.1508H234.972V53.8606H243.298V11.1508Z" fill="#D6D6D6"/>
<path d="M16.6282 5.17737H9.56519V11.1508H16.6282V5.17737Z" fill="#D6D6D6"/>
<path d="M235.135 5.17737H228.072V11.1508H235.135V5.17737Z" fill="#D6D6D6"/>
<path d="M235.135 53.847H228.072V59.8205H235.135V53.847Z" fill="#D6D6D6"/>
<path d="M16.6282 53.847H9.56519V59.8205H16.6282V53.847Z" fill="#D6D6D6"/>
<path d="M228.072 5.17737H16.6418V59.644H228.072V5.17737Z" fill="white"/>
<path d="M33.6883 11.1508H9.56519V53.8606H33.6883V11.1508Z" fill="white"/>
<path d="M235.148 11.1508H211.025V53.8606H235.148V11.1508Z" fill="white"/>
<path d="M129.284 58.0284H116.489V82.1257H129.284V58.0284Z" fill="white"/>
<path d="M125.929 76.3831H118.771V82.5194H125.929V76.3831Z" fill="white"/>
<path d="M116.475 64.0154H111.654V76.8718H116.475V64.0154Z" fill="#D6D6D6"/>
<path d="M134.092 64.0154H129.271V76.8718H134.092V64.0154Z" fill="#D6D6D6"/>
<path d="M131.199 76.8718H125.929V82.533H131.199V76.8718Z" fill="#D6D6D6"/>
<path d="M118.771 76.8718H113.501V82.533H118.771V76.8718Z" fill="#D6D6D6"/>
<path d="M125.929 82.533H118.771V88.1942H125.929V82.533Z" fill="#D6D6D6"/>
<path d="M37.2555 25.8357V35.6638H30.1501V25.8357H37.2555ZM31.9596 34.1863H35.4128V27.28H31.9596V34.1863ZM39.5299 39.3826V24.3748H41.3727V30.1355H43.6803V31.696H41.3727V39.3826H39.5299ZM50.7264 24.6736C54.0467 24.6736 56.1302 25.761 56.1385 27.5955C56.1302 29.3884 54.0467 30.4592 50.7264 30.4509C47.4393 30.4592 45.3143 29.3884 45.3143 27.5955C45.3143 25.761 47.4393 24.6736 50.7264 24.6736ZM43.9032 32.9578V31.4636H57.5829V32.9578H43.9032ZM45.5135 39.2V34.1531H55.9227V39.2H45.5135ZM47.2401 27.5955C47.2235 28.5002 48.535 29.0149 50.7264 29.0232C52.9178 29.0149 54.2294 28.5002 54.2294 27.5955C54.2294 26.6409 52.9178 26.1179 50.7264 26.1179C48.535 26.1179 47.2235 26.6409 47.2401 27.5955ZM47.3397 37.7058H54.1297V35.614H47.3397V37.7058ZM71.1368 24.3748V39.3826H69.3604V24.3748H71.1368ZM58.337 30.866C58.337 27.5623 59.6153 25.512 61.5743 25.5203C63.3922 25.512 64.629 27.2136 64.8448 30.0193H66.2891V24.6404H68.0489V38.6521H66.2891V31.5134H64.8614C64.6871 34.4436 63.4337 36.2366 61.5743 36.2283C59.6153 36.2366 58.337 34.178 58.337 30.866ZM60.0469 30.866C60.0386 33.2151 60.6197 34.4768 61.5743 34.4685C62.5704 34.4768 63.1597 33.2151 63.168 30.866C63.1597 28.5251 62.5704 27.2551 61.5743 27.2634C60.6197 27.2551 60.0386 28.5251 60.0469 30.866ZM88.2837 31.4138V32.8914H77.7583V25.6863H88.1675V27.1804H79.5845V31.4138H88.2837ZM76.0981 37.4734V35.946H89.811V37.4734H76.0981ZM102.535 28.6248V30.0857H92.1423V24.9226H93.9685V28.6248H102.535ZM90.3659 33.2898V31.8289H104.079V33.2898H90.3659ZM92.0095 39.0339V34.6179H93.8522V37.5398H102.634V39.0339H92.0095ZM115.93 25.8357V35.6638H108.824V25.8357H115.93ZM110.634 34.1863H114.087V27.28H110.634V34.1863ZM118.204 39.3826V24.3748H120.047V30.1355H122.355V31.696H120.047V39.3826H118.204ZM135.062 24.3748V39.3992H133.202V24.3748H135.062ZM123.059 30.7664C123.051 27.5291 124.702 25.4705 126.977 25.4705C129.226 25.4705 130.887 27.5291 130.895 30.7664C130.887 34.0286 129.226 36.0789 126.977 36.0789C124.702 36.0789 123.051 34.0286 123.059 30.7664ZM124.835 30.7664C124.835 33.074 125.707 34.4104 126.977 34.4187C128.239 34.4104 129.102 33.074 129.102 30.7664C129.102 28.4753 128.239 27.1306 126.977 27.1306C125.707 27.1306 124.835 28.4753 124.835 30.7664ZM150.558 32.8748V34.3689H144.582V39.366H142.755V34.3689H136.845V32.8748H150.558ZM138.522 31.115V25.1384H148.881V31.115H138.522ZM140.332 29.6707H147.039V26.616H140.332V29.6707ZM164.843 31.1814V32.5759H151.13V31.1814H164.843ZM152.723 34.7673V33.4724H163.182V36.8923H154.583V37.9382H163.631V39.2166H152.74V35.697H161.356V34.7673H152.723ZM152.823 25.9851V24.7068H163.149V28.0935H154.699V29.073H163.415V30.3347H152.873V26.8982H161.306V25.9851H152.823ZM181.043 24.9558V25.8855C181.043 26.7986 181.043 27.9773 180.777 29.4548L178.951 29.2888C179.151 28.1101 179.192 27.2053 179.2 26.4167H170.651V24.9558H181.043ZM169.09 31.5798V30.1355H174.369V27.7947H176.195V30.1355H182.703V31.5798H169.09ZM170.634 34.1365V32.6589H181.076V36.5271H172.493V37.7888H181.458V39.2332H170.651V35.2654H179.234V34.1365H170.634ZM195.095 24.3748V30.1355H197.403V31.6794H195.095V39.3992H193.269V24.3748H195.095ZM183.939 27.1804V25.6863H190.845V31.3474H185.798V34.3357C188.181 34.3191 190.032 34.2195 192.123 33.8542L192.289 35.3484C189.973 35.7634 187.932 35.863 185.201 35.863H183.972V29.8699H189.002V27.1804H183.939ZM200.215 25.5867V27.5955H204.117V25.5867H205.96V32.4431H203.104V34.8503C204.341 34.7922 205.569 34.6926 206.723 34.5349L206.856 35.8962C203.71 36.4358 200.282 36.4607 197.709 36.4773L197.443 34.95C198.58 34.9417 199.892 34.9417 201.261 34.9084V32.4431H198.389V25.5867H200.215ZM200.215 30.9656H204.117V29.0066H200.215V30.9656ZM207.586 39.3826V24.3748H209.429V30.4675H211.604V32.0115H209.429V39.3826H207.586ZM214.998 25.8855L214.815 34.3689H212.939L212.74 25.8855H214.998ZM212.591 36.7429C212.582 36.0457 213.172 35.4729 213.886 35.4646C214.574 35.4729 215.164 36.0457 215.164 36.7429C215.164 37.4568 214.574 38.0378 213.886 38.0378C213.172 38.0378 212.582 37.4568 212.591 36.7429Z" fill="#1D1D1D"/>
</g>
<defs>
<clipPath id="clip0_926_2191">
<rect width="244" height="88" fill="white"/>
</clipPath>
</defs>
</svg>
