<svg width="76" height="88" viewBox="0 0 76 88" fill="none" xmlns="http://www.w3.org/2000/svg">
<g clip-path="url(#clip0_1089_2496)">
<path d="M48.9974 3.97119H27.0026V34.4076H48.9974V3.97119Z" fill="#F7EE7D"/>
<path d="M68.0735 37.8542H3.4494V68.2906H68.0735V37.8542Z" fill="#F7EE7D"/>
<path d="M64.5963 10.8645H10.5103V83.255H64.5963V10.8645Z" fill="#F7EE7D"/>
<path d="M66.6014 16.4431H54.5304V32.9253H66.6014V16.4431Z" fill="#F7D360"/>
<path d="M70.9313 21.9761H59.7181V39.6257H70.9313V21.9761Z" fill="#F7D360"/>
<path d="M21.759 16.4431H8.96207V32.9253H21.759V16.4431Z" fill="#F7D360"/>
<path d="M16.1448 21.9761H5.0687V38.4988H16.1448V21.9761Z" fill="#F7D360"/>
<path d="M10.7844 38.4989H5.0687V44.0369H10.7844V38.4989Z" fill="#F7D360"/>
<path d="M70.9364 39.103H65.2207V82.6713H70.9364V39.103Z" fill="#F7D360"/>
<path d="M65.6014 66.0267H59.8857V82.6713H65.6014V66.0267Z" fill="#F7D360"/>
<path d="M59.8857 72.0216H54.17V82.6713H59.8857V72.0216Z" fill="#F7D360"/>
<path d="M54.7131 77.5698H48.9974V82.6713H54.7131V77.5698Z" fill="#F7D360"/>
<path d="M10.7844 65.7932H5.0687V82.6713H10.7844V65.7932Z" fill="#F7D360"/>
<path d="M16.226 71.854H10.5103V82.6712H16.226V71.854Z" fill="#F7D360"/>
<path d="M21.5711 77.2601H15.8554V82.6713H21.5711V77.2601Z" fill="#F7D360"/>
<path d="M38.1954 21.9761H32.4797V27.3872H38.1954V21.9761Z" fill="#F7D360"/>
<path d="M54.5304 21.9761H43.505V27.3872H54.5304V21.9761Z" fill="#F7D360"/>
<path d="M5.06871 21.9761H-0.02771V82.6712H5.06871V21.9761Z" fill="#F3BE17"/>
<path d="M76.0328 21.9761H70.9364V82.6712H76.0328V21.9761Z" fill="#F3BE17"/>
<path d="M70.9364 82.6713H5.0687V88.0824H70.9364V82.6713Z" fill="#F3BE17"/>
<path d="M59.0836 5.33154H48.0583V10.9863H59.0836V5.33154Z" fill="#F3BE17"/>
<path d="M27.7843 5.45337H16.759V10.8645H27.7843V5.45337Z" fill="#F3BE17"/>
<path d="M16.7641 5.45337H11.2514V10.8645H16.7641V5.45337Z" fill="#F3BE17"/>
<path d="M13.3631 10.8645H7.8504V16.4432H13.3631V10.8645Z" fill="#F3BE17"/>
<path d="M8.96207 16.4026H3.4494V21.9812H8.96207V16.4026Z" fill="#F3BE17"/>
<path d="M64.5963 5.33154H59.0836V10.9863H64.5963V5.33154Z" fill="#F3BE17"/>
<path d="M68.4034 10.9863H62.8907V16.4432H68.4034V10.9863Z" fill="#F3BE17"/>
<path d="M72.114 16.4635H66.6014V21.9762H72.114V16.4635Z" fill="#F3BE17"/>
<path d="M59.0786 0.0473633H16.759V5.4585H59.0786V0.0473633Z" fill="#F3BE17"/>
<path d="M32.4797 21.9761H21.7589V27.3872H32.4797V21.9761Z" fill="#FEF1D5"/>
<path d="M43.5051 21.9761H38.1954V27.3872H43.5051V21.9761Z" fill="#FEF1D5"/>
<path d="M55.4866 44H47.6036V46.7501H55.4866V44Z" fill="black"/>
<path d="M47.5982 46.7555H44.8481V54.6818H47.5982V46.7555Z" fill="black"/>
<path d="M58.2368 46.7555H55.4867V54.6818H58.2368V46.7555Z" fill="black"/>
<path d="M55.5299 54.6818H47.6036V56.8916H55.5299V54.6818Z" fill="black"/>
<path d="M25.3161 44H17.433V46.7501H25.3161V44Z" fill="black"/>
<path d="M17.433 46.7555H14.6829V54.6818H17.433V46.7555Z" fill="black"/>
<path d="M28.0662 46.7555H25.316V54.6818H28.0662V46.7555Z" fill="black"/>
<path d="M33.1966 62.2278H41.0796V59.4776H33.1966V62.2278Z" fill="black"/>
<path d="M41.0825 59.4752H43.8326V54.2073H41.0825V59.4752Z" fill="black"/>
<path d="M30.449 59.4752H33.1992V54.2073H30.449V59.4752Z" fill="black"/>
<path d="M50.062 46.7555H47.6036V54.6818H50.062V46.7555Z" fill="#393A3A"/>
<path d="M55.4866 49.4517H52.8445V54.6818H55.4866V49.4517Z" fill="#393A3A"/>
<path d="M52.8392 52.0668H50.0566V54.6818H52.8392V52.0668Z" fill="#393A3A"/>
<path d="M52.8392 46.7555H50.0566V49.4516H52.8392V46.7555Z" fill="#393A3A"/>
<path d="M52.8392 49.4517H50.0566V52.1478H52.8392V49.4517Z" fill="#8E8E8E"/>
<path d="M55.4866 46.7555H52.7905V49.4516H55.4866V46.7555Z" fill="white"/>
<path d="M58.1611 56.843H47.5226V59.5661H58.1611V56.843Z" fill="#F4A688"/>
<path d="M25.3053 56.8889H14.6667V59.612H25.3053V56.8889Z" fill="#F4A688"/>
</g>
<defs>
<clipPath id="clip0_1089_2496">
<rect width="76" height="88" fill="white"/>
</clipPath>
</defs>
</svg>
