<svg width="243" height="100" viewBox="0 0 243 100" fill="none" xmlns="http://www.w3.org/2000/svg">
<path d="M227.724 0H15.4458V4.37254H227.724V0Z" fill="#D6D6D6"/>
<path d="M227.724 58.8768H15.4458V63.2493H227.724V58.8768Z" fill="#D6D6D6"/>
<path d="M8.35233 10.3381H0V53.0806H8.35233V10.3381Z" fill="#D6D6D6"/>
<path d="M243 10.3381H234.647V53.0806H243V10.3381Z" fill="#D6D6D6"/>
<path d="M15.4461 4.35559H8.35254V10.3212H15.4461V4.35559Z" fill="#D6D6D6"/>
<path d="M234.818 4.35559H227.724V10.3212H234.818V4.35559Z" fill="#D6D6D6"/>
<path d="M234.818 53.0806H227.724V59.0463H234.818V53.0806Z" fill="#D6D6D6"/>
<path d="M15.4461 53.0806H8.35254V59.0463H15.4461V53.0806Z" fill="#D6D6D6"/>
<path d="M227.724 4.35559H15.4458V58.8768H227.724V4.35559Z" fill="white"/>
<path d="M32.559 10.3381H8.35254V53.0806H32.559V10.3381Z" fill="white"/>
<path d="M234.818 10.3381H210.611V53.0806H234.818V10.3381Z" fill="white"/>
<path d="M174.599 58.8768H154.51V76.2991H174.599V58.8768Z" fill="white"/>
<path d="M179.533 76.2991H159.885V82.5359H179.533V76.2991Z" fill="white"/>
<path d="M179.532 82.5359H167.115V88.7727H179.532V82.5359Z" fill="white"/>
<path d="M190.981 93.6537H183.683V99.8905H190.981V93.6537Z" fill="white"/>
<path d="M179.533 63.2493H174.616V76.2992H179.533V63.2493Z" fill="#D6D6D6"/>
<path d="M154.51 63.2493H149.594V76.2992H154.51V63.2493Z" fill="#D6D6D6"/>
<path d="M159.885 76.2991H154.51V82.5359H159.885V76.2991Z" fill="#D6D6D6"/>
<path d="M183.683 76.2991H179.566V93.6707H183.683V76.2991Z" fill="#D6D6D6"/>
<path d="M167.115 82.5359H159.885V88.7727H167.115V82.5359Z" fill="#D6D6D6"/>
<path d="M179.532 88.7558H167.115V93.6537H179.532V88.7558Z" fill="#D6D6D6"/>
<path d="M35.0685 25.9307V35.7588H27.963V25.9307H35.0685ZM29.7726 34.2812H33.2257V27.375H29.7726V34.2812ZM37.3429 39.4775V24.4697H39.1857V30.2305H41.4933V31.791H39.1857V39.4775H37.3429ZM48.5394 24.7686C51.8597 24.7686 53.9432 25.856 53.9515 27.6904C53.9432 29.4834 51.8597 30.5542 48.5394 30.5459C45.2523 30.5542 43.1273 29.4834 43.1273 27.6904C43.1273 25.856 45.2523 24.7686 48.5394 24.7686ZM41.7162 33.0527V31.5586H55.3959V33.0527H41.7162ZM43.3265 39.2949V34.248H53.7357V39.2949H43.3265ZM45.0531 27.6904C45.0365 28.5952 46.348 29.1099 48.5394 29.1182C50.7308 29.1099 52.0423 28.5952 52.0423 27.6904C52.0423 26.7358 50.7308 26.2129 48.5394 26.2129C46.348 26.2129 45.0365 26.7358 45.0531 27.6904ZM45.1527 37.8008H51.9427V35.709H45.1527V37.8008ZM68.9498 24.4697V39.4775H67.1734V24.4697H68.9498ZM56.15 30.9609C56.15 27.6572 57.4283 25.6069 59.3873 25.6152C61.2051 25.6069 62.442 27.3086 62.6578 30.1143H64.1021V24.7354H65.8619V38.7471H64.1021V31.6084H62.6744C62.5001 34.5386 61.2467 36.3315 59.3873 36.3232C57.4283 36.3315 56.15 34.2729 56.15 30.9609ZM57.8599 30.9609C57.8516 33.3101 58.4327 34.5718 59.3873 34.5635C60.3834 34.5718 60.9727 33.3101 60.981 30.9609C60.9727 28.6201 60.3834 27.3501 59.3873 27.3584C58.4327 27.3501 57.8516 28.6201 57.8599 30.9609ZM86.0967 31.5088V32.9863H75.5713V25.7812H85.9805V27.2754H77.3974V31.5088H86.0967ZM73.9111 37.5684V36.041H87.624V37.5684H73.9111ZM100.348 28.7197V30.1807H89.9553V25.0176H91.7814V28.7197H100.348ZM88.1789 33.3848V31.9238H101.892V33.3848H88.1789ZM89.8225 39.1289V34.7129H91.6652V37.6348H100.447V39.1289H89.8225ZM113.743 25.9307V35.7588H106.637V25.9307H113.743ZM108.447 34.2812H111.9V27.375H108.447V34.2812ZM116.017 39.4775V24.4697H117.86V30.2305H120.168V31.791H117.86V39.4775H116.017ZM132.875 24.4697V39.4941H131.015V24.4697H132.875ZM120.872 30.8613C120.864 27.624 122.515 25.5654 124.79 25.5654C127.039 25.5654 128.7 27.624 128.708 30.8613C128.7 34.1235 127.039 36.1738 124.79 36.1738C122.515 36.1738 120.864 34.1235 120.872 30.8613ZM122.648 30.8613C122.648 33.1689 123.52 34.5054 124.79 34.5137C126.052 34.5054 126.915 33.1689 126.915 30.8613C126.915 28.5703 126.052 27.2256 124.79 27.2256C123.52 27.2256 122.648 28.5703 122.648 30.8613ZM148.371 32.9697V34.4639H142.395V39.4609H140.568V34.4639H134.658V32.9697H148.371ZM136.335 31.21V25.2334H146.694V31.21H136.335ZM138.145 29.7656H144.852V26.7109H138.145V29.7656ZM162.656 31.2764V32.6709H148.943V31.2764H162.656ZM150.536 34.8623V33.5674H160.995V36.9873H152.396V38.0332H161.444V39.3115H150.553V35.792H159.169V34.8623H150.536ZM150.636 26.0801V24.8018H160.962V28.1885H152.512V29.168H161.228V30.4297H150.686V26.9932H159.119V26.0801H150.636ZM178.856 25.0508V25.9805C178.856 26.8936 178.856 28.0723 178.59 29.5498L176.764 29.3838C176.964 28.2051 177.005 27.3003 177.013 26.5117H168.464V25.0508H178.856ZM166.903 31.6748V30.2305H172.182V27.8896H174.008V30.2305H180.516V31.6748H166.903ZM168.447 34.2314V32.7539H178.889V36.6221H170.306V37.8838H179.271V39.3281H168.464V35.3604H177.047V34.2314H168.447ZM192.908 24.4697V30.2305H195.216V31.7744H192.908V39.4941H191.082V24.4697H192.908ZM181.752 27.2754V25.7812H188.658V31.4424H183.611V34.4307C185.994 34.4141 187.845 34.3145 189.936 33.9492L190.102 35.4434C187.786 35.8584 185.744 35.958 183.014 35.958H181.785V29.9648H186.815V27.2754H181.752ZM198.028 25.6816V27.6904H201.93V25.6816H203.773V32.5381H200.917V34.9453C202.154 34.8872 203.382 34.7876 204.536 34.6299L204.669 35.9912C201.523 36.5308 198.095 36.5557 195.522 36.5723L195.256 35.0449C196.393 35.0366 197.705 35.0366 199.074 35.0034V32.5381H196.202V25.6816H198.028ZM198.028 31.0605H201.93V29.1016H198.028V31.0605ZM205.399 39.4775V24.4697H207.242V30.5625H209.417V32.1064H207.242V39.4775H205.399ZM212.811 25.9805L212.628 34.4639H210.752L210.553 25.9805H212.811ZM210.404 36.8379C210.395 36.1406 210.985 35.5679 211.699 35.5596C212.387 35.5679 212.977 36.1406 212.977 36.8379C212.977 37.5518 212.387 38.1328 211.699 38.1328C210.985 38.1328 210.395 37.5518 210.404 36.8379Z" fill="#1D1D1D"/>
</svg>
