<svg width="244" height="100" viewBox="0 0 244 100" fill="none" xmlns="http://www.w3.org/2000/svg">
<path d="M230 2H17V62H230V2Z" fill="white"/>
<path d="M96 5H10V56H96V5Z" fill="white"/>
<path d="M230 0H15V5H230V0Z" fill="#D6D6D6"/>
<path d="M17 53H10V59H17V53Z" fill="#D6D6D6"/>
<path d="M230 59H17V63H230V59Z" fill="#D6D6D6"/>
<path d="M180 58H154V76H180V58Z" fill="white"/>
<path d="M186 75H157V83H186V75Z" fill="white"/>
<path d="M183 76H168V93H183V76Z" fill="white"/>
<path d="M192.981 93.6538H185.683V99.8906H192.981V93.6538Z" fill="#D6D6D6"/>
<path d="M182 59H177V76H182V59Z" fill="#D6D6D6"/>
<path d="M157 59H152V76H157V59Z" fill="#D6D6D6"/>
<path d="M162 76H155V83H158.5H162V76Z" fill="#D6D6D6"/>
<path d="M186 75H181V94H186V75Z" fill="#D6D6D6"/>
<path d="M170 82H160V89H170V82Z" fill="#D6D6D6"/>
<path d="M183 89H168V94H183V89Z" fill="#D6D6D6"/>
<path d="M42.2765 26.6406V35.8906H35.589V26.6406H42.2765ZM37.2921 34.5H40.5421V28H37.2921V34.5ZM44.4171 39.3906V25.2656H46.1515V30.6875H48.3234V32.1562H46.1515V39.3906H44.4171ZM54.931 25.5469C58.056 25.5469 60.017 26.5703 60.0248 28.2969C60.017 29.9844 58.056 30.9922 54.931 30.9844C51.8373 30.9922 49.8373 29.9844 49.8373 28.2969C49.8373 26.5703 51.8373 25.5469 54.931 25.5469ZM48.5091 33.3438V31.9375H61.3841V33.3438H48.5091ZM50.0248 39.2188V34.4688H59.8216V39.2188H50.0248ZM51.6498 28.2969C51.6341 29.1484 52.8685 29.6328 54.931 29.6406C56.9935 29.6328 58.2279 29.1484 58.2279 28.2969C58.2279 27.3984 56.9935 26.9062 54.931 26.9062C52.8685 26.9062 51.6341 27.3984 51.6498 28.2969ZM51.7435 37.8125H58.1341V35.8438H51.7435V37.8125ZM74.1168 25.2656V39.3906H72.4449V25.2656H74.1168ZM62.0699 31.375C62.0699 28.2656 63.273 26.3359 65.1168 26.3438C66.8277 26.3359 67.9918 27.9375 68.1949 30.5781H69.5543V25.5156H71.2105V38.7031H69.5543V31.9844H68.2105C68.0465 34.7422 66.8668 36.4297 65.1168 36.4219C63.273 36.4297 62.0699 34.4922 62.0699 31.375ZM63.6793 31.375C63.6715 33.5859 64.2183 34.7734 65.1168 34.7656C66.0543 34.7734 66.609 33.5859 66.6168 31.375C66.609 29.1719 66.0543 27.9766 65.1168 27.9844C64.2183 27.9766 63.6715 29.1719 63.6793 31.375ZM90.207 31.8906V33.2812H80.3008V26.5H90.0976V27.9062H82.0195V31.8906H90.207ZM78.7383 37.5938V36.1562H91.6445V37.5938H78.7383ZM103.596 29.2656V30.6406H93.8146V25.7812H95.5334V29.2656H103.596ZM92.1428 33.6562V32.2812H105.049V33.6562H92.1428ZM93.6896 39.0625V34.9062H95.424V37.6562H103.69V39.0625H93.6896ZM116.155 26.6406V35.8906H109.467V26.6406H116.155ZM111.171 34.5H114.421V28H111.171V34.5ZM118.296 39.3906V25.2656H120.03V30.6875H122.202V32.1562H120.03V39.3906H118.296ZM134.138 25.2656V39.4062H132.388V25.2656H134.138ZM122.841 31.2812C122.833 28.2344 124.388 26.2969 126.528 26.2969C128.645 26.2969 130.208 28.2344 130.216 31.2812C130.208 34.3516 128.645 36.2812 126.528 36.2812C124.388 36.2812 122.833 34.3516 122.841 31.2812ZM124.513 31.2812C124.513 33.4531 125.333 34.7109 126.528 34.7188C127.716 34.7109 128.528 33.4531 128.528 31.2812C128.528 29.125 127.716 27.8594 126.528 27.8594C125.333 27.8594 124.513 29.125 124.513 31.2812ZM148.698 33.2656V34.6719H143.073V39.375H141.355V34.6719H135.792V33.2656H148.698ZM137.37 31.6094V25.9844H147.12V31.6094H137.37ZM139.073 30.25H145.386V27.375H139.073V30.25ZM162.118 31.6719V32.9844H149.212V31.6719H162.118ZM150.712 35.0469V33.8281H160.556V37.0469H152.462V38.0312H160.978V39.2344H150.728V35.9219H158.837V35.0469H150.712ZM150.806 26.7812V25.5781H160.525V28.7656H152.572V29.6875H160.775V30.875H150.853V27.6406H158.79V26.7812H150.806ZM177.318 25.8125V26.6875C177.318 27.5469 177.318 28.6562 177.068 30.0469L175.349 29.8906C175.537 28.7812 175.576 27.9297 175.584 27.1875H167.537V25.8125H177.318ZM166.068 32.0469V30.6875H171.037V28.4844H172.756V30.6875H178.881V32.0469H166.068ZM167.521 34.4531V33.0625H177.349V36.7031H169.271V37.8906H177.709V39.25H167.537V35.5156H175.615V34.4531H167.521ZM190.519 25.2656V30.6875H192.691V32.1406H190.519V39.4062H188.801V25.2656H190.519ZM180.019 27.9062V26.5H186.519V31.8281H181.769V34.6406C184.012 34.625 185.754 34.5312 187.723 34.1875L187.879 35.5938C185.699 35.9844 183.777 36.0781 181.207 36.0781H180.051V30.4375H184.785V27.9062H180.019ZM195.315 26.4062V28.2969H198.986V26.4062H200.721V32.8594H198.033V35.125C199.197 35.0703 200.354 34.9766 201.44 34.8281L201.565 36.1094C198.604 36.6172 195.377 36.6406 192.955 36.6562L192.705 35.2188C193.775 35.2109 195.01 35.2109 196.299 35.1797V32.8594H193.596V26.4062H195.315ZM195.315 31.4688H198.986V29.625H195.315V31.4688ZM202.252 39.3906V25.2656H203.986V31H206.033V32.4531H203.986V39.3906H202.252ZM209.203 26.6875L209.032 34.6719H207.266L207.078 26.6875H209.203ZM206.938 36.9062C206.93 36.25 207.485 35.7109 208.157 35.7031C208.805 35.7109 209.36 36.25 209.36 36.9062C209.36 37.5781 208.805 38.125 208.157 38.125C207.485 38.125 206.93 37.5781 206.938 36.9062Z" fill="#1D1D1D"/>
<path d="M229 0H15V64H229V0Z" fill="white"/>
<path d="M230 0H15V5H230V0Z" fill="#D6D6D6"/>
<path d="M230 61H14V66H230V61Z" fill="#D6D6D6"/>
<path d="M244 10.8508H235.615V55.6865H244V10.8508Z" fill="#D6D6D6"/>
<path d="M15.5113 4.58081H8.38525V10.8508H15.5113V4.58081Z" fill="#D6D6D6"/>
<path d="M235.796 4.58081H228.67V10.8508H235.796V4.58081Z" fill="#D6D6D6"/>
<path d="M235.796 55.6865H228.67V61.9565H235.796V55.6865Z" fill="#D6D6D6"/>
<path d="M15.5113 55.6865H8.38525V61.9565H15.5113V55.6865Z" fill="#D6D6D6"/>
<path d="M33 11H2V56H33V11Z" fill="white"/>
<path d="M235.783 10.8508H211.472V55.6865H235.783V10.8508Z" fill="white"/>
<path d="M8 11H0V56H8V11Z" fill="#D6D6D6"/>
<path d="M41.749 27.3582V36.6082H35.0615V27.3582H41.749ZM36.7646 35.2175H40.0146V28.7175H36.7646V35.2175ZM43.8896 40.1082V25.9832H45.624V31.405H47.7959V32.8738H45.624V40.1082H43.8896ZM54.4035 26.2644C57.5285 26.2644 59.4894 27.2878 59.4972 29.0144C59.4894 30.7019 57.5285 31.7097 54.4035 31.7019C51.3097 31.7097 49.3097 30.7019 49.3097 29.0144C49.3097 27.2878 51.3097 26.2644 54.4035 26.2644ZM47.9816 34.0613V32.655H60.8566V34.0613H47.9816ZM49.4972 39.9363V35.1863H59.2941V39.9363H49.4972ZM51.1222 29.0144C51.1066 29.866 52.341 30.3503 54.4035 30.3582C56.466 30.3503 57.7004 29.866 57.7004 29.0144C57.7004 28.116 56.466 27.6238 54.4035 27.6238C52.341 27.6238 51.1066 28.116 51.1222 29.0144ZM51.216 38.53H57.6066V36.5613H51.216V38.53ZM73.5892 25.9832V40.1082H71.9174V25.9832H73.5892ZM61.5424 32.0925C61.5424 28.9832 62.7455 27.0535 64.5892 27.0613C66.3002 27.0535 67.4642 28.655 67.6674 31.2957H69.0267V26.2332H70.683V39.4207H69.0267V32.7019H67.683C67.5189 35.4597 66.3392 37.1472 64.5892 37.1394C62.7455 37.1472 61.5424 35.2097 61.5424 32.0925ZM63.1517 32.0925C63.1439 34.3035 63.6908 35.491 64.5892 35.4832C65.5267 35.491 66.0814 34.3035 66.0892 32.0925C66.0814 29.8894 65.5267 28.6941 64.5892 28.7019C63.6908 28.6941 63.1439 29.8894 63.1517 32.0925ZM89.6795 32.6082V33.9988H79.7732V27.2175H89.5701V28.6238H81.492V32.6082H89.6795ZM78.2107 38.3113V36.8738H91.117V38.3113H78.2107ZM103.068 29.9832V31.3582H93.2871V26.4988H95.0059V29.9832H103.068ZM91.6152 34.3738V32.9988H104.521V34.3738H91.6152ZM93.1621 39.78V35.6238H94.8965V38.3738H103.162V39.78H93.1621ZM115.627 27.3582V36.6082H108.94V27.3582H115.627ZM110.643 35.2175H113.893V28.7175H110.643V35.2175ZM117.768 40.1082V25.9832H119.502V31.405H121.674V32.8738H119.502V40.1082H117.768ZM133.61 25.9832V40.1238H131.86V25.9832H133.61ZM122.313 31.9988C122.305 28.9519 123.86 27.0144 126.001 27.0144C128.118 27.0144 129.68 28.9519 129.688 31.9988C129.68 35.0691 128.118 36.9988 126.001 36.9988C123.86 36.9988 122.305 35.0691 122.313 31.9988ZM123.985 31.9988C123.985 34.1707 124.805 35.4285 126.001 35.4363C127.188 35.4285 128.001 34.1707 128.001 31.9988C128.001 29.8425 127.188 28.5769 126.001 28.5769C124.805 28.5769 123.985 29.8425 123.985 31.9988ZM148.171 33.9832V35.3894H142.546V40.0925H140.827V35.3894H135.264V33.9832H148.171ZM136.843 32.3269V26.7019H146.593V32.3269H136.843ZM138.546 30.9675H144.858V28.0925H138.546V30.9675ZM161.591 32.3894V33.7019H148.685V32.3894H161.591ZM150.185 35.7644V34.5457H160.028V37.7644H151.935V38.7488H160.45V39.9519H150.2V36.6394H158.31V35.7644H150.185ZM150.278 27.4988V26.2957H159.997V29.4832H152.044V30.405H160.247V31.5925H150.325V28.3582H158.263V27.4988H150.278ZM176.79 26.53V27.405C176.79 28.2644 176.79 29.3738 176.54 30.7644L174.822 30.6082C175.009 29.4988 175.048 28.6472 175.056 27.905H167.009V26.53H176.79ZM165.54 32.7644V31.405H170.509V29.2019H172.228V31.405H178.353V32.7644H165.54ZM166.994 35.1707V33.78H176.822V37.4207H168.744V38.6082H177.181V39.9675H167.009V36.2332H175.087V35.1707H166.994ZM189.992 25.9832V31.405H192.164V32.8582H189.992V40.1238H188.273V25.9832H189.992ZM179.492 28.6238V27.2175H185.992V32.5457H181.242V35.3582C183.484 35.3425 185.226 35.2488 187.195 34.905L187.351 36.3113C185.172 36.7019 183.25 36.7957 180.679 36.7957H179.523V31.155H184.257V28.6238H179.492ZM194.787 27.1238V29.0144H198.459V27.1238H200.193V33.5769H197.506V35.8425C198.67 35.7878 199.826 35.6941 200.912 35.5457L201.037 36.8269C198.076 37.3347 194.849 37.3582 192.428 37.3738L192.178 35.9363C193.248 35.9285 194.482 35.9285 195.771 35.8972V33.5769H193.068V27.1238H194.787ZM194.787 32.1863H198.459V30.3425H194.787V32.1863ZM201.724 40.1082V25.9832H203.459V31.7175H205.506V33.1707H203.459V40.1082H201.724ZM208.676 27.405L208.504 35.3894H206.738L206.551 27.405H208.676ZM206.41 37.6238C206.402 36.9675 206.957 36.4285 207.629 36.4207C208.277 36.4285 208.832 36.9675 208.832 37.6238C208.832 38.2957 208.277 38.8425 207.629 38.8425C206.957 38.8425 206.402 38.2957 206.41 37.6238Z" fill="#1D1D1D"/>
<rect x="157" y="55" width="20" height="21" fill="white"/>
</svg>
