<svg width="244" height="101" viewBox="0 0 244 101" fill="none" xmlns="http://www.w3.org/2000/svg">
<path d="M228.981 1H16.4526V5.37831H228.981V1Z" fill="#D6D6D6"/>
<path d="M228.981 59.936H16.4526V64.3143H228.981V59.936Z" fill="#D6D6D6"/>
<path d="M9.36172 11.3472H1V54.1212H9.36172V11.3472Z" fill="#D6D6D6"/>
<path d="M16.4696 5.37842H9.36133V11.3644H16.4696V5.37842Z" fill="#D6D6D6"/>
<path d="M18 53H9V60H18V53Z" fill="#D6D6D6"/>
<path d="M228.981 5.37842H16.4526V59.9534H228.981V5.37842Z" fill="white"/>
<path d="M33.6052 11.3472H9.36133V54.1212H33.6052V11.3472Z" fill="white"/>
<path d="M236.107 11.3472H211.863V54.1212H236.107V11.3472Z" fill="white"/>
<path d="M105 58H84V82H105V58Z" fill="white"/>
<path d="M101.083 77.364H78.9683V83.6065H101.083V77.364Z" fill="white"/>
<path d="M94 80H78V93H94V80Z" fill="white"/>
<path d="M77.2972 94H70V100.243H77.2972V94Z" fill="#D6D6D6"/>
<path d="M84 64H80V78H84V64Z" fill="#D6D6D6"/>
<path d="M110 64H105V77H110V64Z" fill="#D6D6D6"/>
<path d="M106 76H98V84H106V76Z" fill="#D6D6D6"/>
<path d="M82 77H76V95H82V77Z" fill="#D6D6D6"/>
<path d="M99.675 83.6064H92.189V89.849H99.675V83.6064Z" fill="#D6D6D6"/>
<path d="M95 89H80V95H95V89Z" fill="#D6D6D6"/>
<path d="M41.8791 27.6406V36.8906H35.1916V27.6406H41.8791ZM36.8947 35.5H40.1447V29H36.8947V35.5ZM44.0197 40.3906V26.2656H45.7541V31.6875H47.9259V33.1562H45.7541V40.3906H44.0197ZM54.5336 26.5469C57.6586 26.5469 59.6195 27.5703 59.6273 29.2969C59.6195 30.9844 57.6586 31.9922 54.5336 31.9844C51.4398 31.9922 49.4398 30.9844 49.4398 29.2969C49.4398 27.5703 51.4398 26.5469 54.5336 26.5469ZM48.1117 34.3438V32.9375H60.9867V34.3438H48.1117ZM49.6273 40.2188V35.4688H59.4242V40.2188H49.6273ZM51.2523 29.2969C51.2367 30.1484 52.4711 30.6328 54.5336 30.6406C56.5961 30.6328 57.8304 30.1484 57.8304 29.2969C57.8304 28.3984 56.5961 27.9062 54.5336 27.9062C52.4711 27.9062 51.2367 28.3984 51.2523 29.2969ZM51.3461 38.8125H57.7367V36.8438H51.3461V38.8125ZM73.7193 26.2656V40.3906H72.0474V26.2656H73.7193ZM61.6724 32.375C61.6724 29.2656 62.8755 27.3359 64.7193 27.3438C66.4302 27.3359 67.5943 28.9375 67.7974 31.5781H69.1568V26.5156H70.813V39.7031H69.1568V32.9844H67.813C67.649 35.7422 66.4693 37.4297 64.7193 37.4219C62.8755 37.4297 61.6724 35.4922 61.6724 32.375ZM63.2818 32.375C63.274 34.5859 63.8209 35.7734 64.7193 35.7656C65.6568 35.7734 66.2115 34.5859 66.2193 32.375C66.2115 30.1719 65.6568 28.9766 64.7193 28.9844C63.8209 28.9766 63.274 30.1719 63.2818 32.375ZM89.8096 32.8906V34.2812H79.9033V27.5H89.7002V28.9062H81.6221V32.8906H89.8096ZM78.3408 38.5938V37.1562H91.2471V38.5938H78.3408ZM103.198 30.2656V31.6406H93.4172V26.7812H95.1359V30.2656H103.198ZM91.7453 34.6562V33.2812H104.652V34.6562H91.7453ZM93.2922 40.0625V35.9062H95.0266V38.6562H103.292V40.0625H93.2922ZM115.757 27.6406V36.8906H109.07V27.6406H115.757ZM110.773 35.5H114.023V29H110.773V35.5ZM117.898 40.3906V26.2656H119.632V31.6875H121.804V33.1562H119.632V40.3906H117.898ZM133.74 26.2656V40.4062H131.99V26.2656H133.74ZM122.443 32.2812C122.435 29.2344 123.99 27.2969 126.131 27.2969C128.248 27.2969 129.81 29.2344 129.818 32.2812C129.81 35.3516 128.248 37.2812 126.131 37.2812C123.99 37.2812 122.435 35.3516 122.443 32.2812ZM124.115 32.2812C124.115 34.4531 124.935 35.7109 126.131 35.7188C127.318 35.7109 128.131 34.4531 128.131 32.2812C128.131 30.125 127.318 28.8594 126.131 28.8594C124.935 28.8594 124.115 30.125 124.115 32.2812ZM148.301 34.2656V35.6719H142.676V40.375H140.957V35.6719H135.395V34.2656H148.301ZM136.973 32.6094V26.9844H146.723V32.6094H136.973ZM138.676 31.25H144.988V28.375H138.676V31.25ZM161.721 32.6719V33.9844H148.815V32.6719H161.721ZM150.315 36.0469V34.8281H160.158V38.0469H152.065V39.0312H160.58V40.2344H150.33V36.9219H158.44V36.0469H150.315ZM150.408 27.7812V26.5781H160.127V29.7656H152.174V30.6875H160.377V31.875H150.455V28.6406H158.393V27.7812H150.408ZM176.921 26.8125V27.6875C176.921 28.5469 176.921 29.6562 176.671 31.0469L174.952 30.8906C175.139 29.7812 175.178 28.9297 175.186 28.1875H167.139V26.8125H176.921ZM165.671 33.0469V31.6875H170.639V29.4844H172.358V31.6875H178.483V33.0469H165.671ZM167.124 35.4531V34.0625H176.952V37.7031H168.874V38.8906H177.311V40.25H167.139V36.5156H175.217V35.4531H167.124ZM190.122 26.2656V31.6875H192.294V33.1406H190.122V40.4062H188.403V26.2656H190.122ZM179.622 28.9062V27.5H186.122V32.8281H181.372V35.6406C183.614 35.625 185.356 35.5312 187.325 35.1875L187.481 36.5938C185.302 36.9844 183.38 37.0781 180.809 37.0781H179.653V31.4375H184.388V28.9062H179.622ZM194.917 27.4062V29.2969H198.589V27.4062H200.323V33.8594H197.636V36.125C198.8 36.0703 199.956 35.9766 201.042 35.8281L201.167 37.1094C198.206 37.6172 194.98 37.6406 192.558 37.6562L192.308 36.2188C193.378 36.2109 194.612 36.2109 195.901 36.1797V33.8594H193.198V27.4062H194.917ZM194.917 32.4688H198.589V30.625H194.917V32.4688ZM201.855 40.3906V26.2656H203.589V32H205.636V33.4531H203.589V40.3906H201.855ZM208.806 27.6875L208.634 35.6719H206.868L206.681 27.6875H208.806ZM206.54 37.9062C206.533 37.25 207.087 36.7109 207.759 36.7031C208.408 36.7109 208.962 37.25 208.962 37.9062C208.962 38.5781 208.408 39.125 207.759 39.125C207.087 39.125 206.533 38.5781 206.54 37.9062Z" fill="#1D1D1D"/>
<path d="M229 0H15V64H229V0Z" fill="white"/>
<path d="M230 0H15V5H230V0Z" fill="#D6D6D6"/>
<path d="M230 61H14V66H230V61Z" fill="#D6D6D6"/>
<path d="M8.38515 10.8508H0V55.6865H8.38515V10.8508Z" fill="#D6D6D6"/>
<path d="M244 10.8508H235.615V55.6865H244V10.8508Z" fill="#D6D6D6"/>
<path d="M15.5113 4.58081H8.38525V10.8508H15.5113V4.58081Z" fill="#D6D6D6"/>
<path d="M235.796 4.58081H228.67V10.8508H235.796V4.58081Z" fill="#D6D6D6"/>
<path d="M235.796 55.6865H228.67V61.9565H235.796V55.6865Z" fill="#D6D6D6"/>
<path d="M15.5113 55.6865H8.38525V61.9565H15.5113V55.6865Z" fill="#D6D6D6"/>
<path d="M32.697 10.8508H8.38525V55.6865H32.697V10.8508Z" fill="white"/>
<path d="M235.783 10.8508H211.472V55.6865H235.783V10.8508Z" fill="white"/>
<path d="M41.749 27.3582V36.6082H35.0615V27.3582H41.749ZM36.7646 35.2175H40.0146V28.7175H36.7646V35.2175ZM43.8896 40.1082V25.9832H45.624V31.405H47.7959V32.8738H45.624V40.1082H43.8896ZM54.4035 26.2644C57.5285 26.2644 59.4894 27.2878 59.4972 29.0144C59.4894 30.7019 57.5285 31.7097 54.4035 31.7019C51.3097 31.7097 49.3097 30.7019 49.3097 29.0144C49.3097 27.2878 51.3097 26.2644 54.4035 26.2644ZM47.9816 34.0613V32.655H60.8566V34.0613H47.9816ZM49.4972 39.9363V35.1863H59.2941V39.9363H49.4972ZM51.1222 29.0144C51.1066 29.866 52.341 30.3503 54.4035 30.3582C56.466 30.3503 57.7004 29.866 57.7004 29.0144C57.7004 28.116 56.466 27.6238 54.4035 27.6238C52.341 27.6238 51.1066 28.116 51.1222 29.0144ZM51.216 38.53H57.6066V36.5613H51.216V38.53ZM73.5892 25.9832V40.1082H71.9174V25.9832H73.5892ZM61.5424 32.0925C61.5424 28.9832 62.7455 27.0535 64.5892 27.0613C66.3002 27.0535 67.4642 28.655 67.6674 31.2957H69.0267V26.2332H70.683V39.4207H69.0267V32.7019H67.683C67.5189 35.4597 66.3392 37.1472 64.5892 37.1394C62.7455 37.1472 61.5424 35.2097 61.5424 32.0925ZM63.1517 32.0925C63.1439 34.3035 63.6908 35.491 64.5892 35.4832C65.5267 35.491 66.0814 34.3035 66.0892 32.0925C66.0814 29.8894 65.5267 28.6941 64.5892 28.7019C63.6908 28.6941 63.1439 29.8894 63.1517 32.0925ZM89.6795 32.6082V33.9988H79.7732V27.2175H89.5701V28.6238H81.492V32.6082H89.6795ZM78.2107 38.3113V36.8738H91.117V38.3113H78.2107ZM103.068 29.9832V31.3582H93.2871V26.4988H95.0059V29.9832H103.068ZM91.6152 34.3738V32.9988H104.521V34.3738H91.6152ZM93.1621 39.78V35.6238H94.8965V38.3738H103.162V39.78H93.1621ZM115.627 27.3582V36.6082H108.94V27.3582H115.627ZM110.643 35.2175H113.893V28.7175H110.643V35.2175ZM117.768 40.1082V25.9832H119.502V31.405H121.674V32.8738H119.502V40.1082H117.768ZM133.61 25.9832V40.1238H131.86V25.9832H133.61ZM122.313 31.9988C122.305 28.9519 123.86 27.0144 126.001 27.0144C128.118 27.0144 129.68 28.9519 129.688 31.9988C129.68 35.0691 128.118 36.9988 126.001 36.9988C123.86 36.9988 122.305 35.0691 122.313 31.9988ZM123.985 31.9988C123.985 34.1707 124.805 35.4285 126.001 35.4363C127.188 35.4285 128.001 34.1707 128.001 31.9988C128.001 29.8425 127.188 28.5769 126.001 28.5769C124.805 28.5769 123.985 29.8425 123.985 31.9988ZM148.171 33.9832V35.3894H142.546V40.0925H140.827V35.3894H135.264V33.9832H148.171ZM136.843 32.3269V26.7019H146.593V32.3269H136.843ZM138.546 30.9675H144.858V28.0925H138.546V30.9675ZM161.591 32.3894V33.7019H148.685V32.3894H161.591ZM150.185 35.7644V34.5457H160.028V37.7644H151.935V38.7488H160.45V39.9519H150.2V36.6394H158.31V35.7644H150.185ZM150.278 27.4988V26.2957H159.997V29.4832H152.044V30.405H160.247V31.5925H150.325V28.3582H158.263V27.4988H150.278ZM176.79 26.53V27.405C176.79 28.2644 176.79 29.3738 176.54 30.7644L174.822 30.6082C175.009 29.4988 175.048 28.6472 175.056 27.905H167.009V26.53H176.79ZM165.54 32.7644V31.405H170.509V29.2019H172.228V31.405H178.353V32.7644H165.54ZM166.994 35.1707V33.78H176.822V37.4207H168.744V38.6082H177.181V39.9675H167.009V36.2332H175.087V35.1707H166.994ZM189.992 25.9832V31.405H192.164V32.8582H189.992V40.1238H188.273V25.9832H189.992ZM179.492 28.6238V27.2175H185.992V32.5457H181.242V35.3582C183.484 35.3425 185.226 35.2488 187.195 34.905L187.351 36.3113C185.172 36.7019 183.25 36.7957 180.679 36.7957H179.523V31.155H184.257V28.6238H179.492ZM194.787 27.1238V29.0144H198.459V27.1238H200.193V33.5769H197.506V35.8425C198.67 35.7878 199.826 35.6941 200.912 35.5457L201.037 36.8269C198.076 37.3347 194.849 37.3582 192.428 37.3738L192.178 35.9363C193.248 35.9285 194.482 35.9285 195.771 35.8972V33.5769H193.068V27.1238H194.787ZM194.787 32.1863H198.459V30.3425H194.787V32.1863ZM201.724 40.1082V25.9832H203.459V31.7175H205.506V33.1707H203.459V40.1082H201.724ZM208.676 27.405L208.504 35.3894H206.738L206.551 27.405H208.676ZM206.41 37.6238C206.402 36.9675 206.957 36.4285 207.629 36.4207C208.277 36.4285 208.832 36.9675 208.832 37.6238C208.832 38.2957 208.277 38.8425 207.629 38.8425C206.957 38.8425 206.402 38.2957 206.41 37.6238Z" fill="#1D1D1D"/>
<rect x="84" y="59" width="21" height="14" fill="white"/>
</svg>
