<svg width="115" height="115" viewBox="0 0 115 115" fill="none" xmlns="http://www.w3.org/2000/svg">
<path d="M68.4868 15.9795H46.5132V46.3865H68.4868V15.9795Z" fill="#FFFAED"/>
<path d="M90 30H23V94H90V30Z" fill="#FFFAED"/>
<path d="M84 18H31V95H84V18Z" fill="#FFFAED"/>
<path d="M86.074 28.4395H74.0146V44.9057H86.074V28.4395Z" fill="#EB6262"/>
<path d="M90.3996 33.967H79.1973V51.5997H90.3996V33.967Z" fill="#EB6262"/>
<path d="M41 28H25V45H41V28Z" fill="#EB6262"/>
<path d="M36 30H23V51H36V30Z" fill="#EB6262"/>
<path d="M30.3108 50.4739H24.6006V56.0066H30.3108V50.4739Z" fill="#EB6262"/>
<path d="M90.4045 51.0823H84.6943V94.6085H90.4045V51.0823Z" fill="#EB6262"/>
<path d="M90 78H79V99H90V78Z" fill="#EB6262"/>
<path d="M90 84H74V95H90V84Z" fill="#EB6262"/>
<path d="M89 90H68V95H89V90Z" fill="#EB6262"/>
<path d="M30 78H20V95H30V78Z" fill="#EB6262"/>
<path d="M36 84H23V95H36V84Z" fill="#EB6262"/>
<path d="M41 89H23V95H41V89Z" fill="#EB6262"/>
<path d="M57.6951 33.967H51.9849V39.373H57.6951V33.967Z" fill="#EB6262"/>
<path d="M74.0142 33.967H62.9995V39.373H74.0142V33.967Z" fill="#EB6262"/>
<path d="M25 34H20V96H25V34Z" fill="#E03E4C"/>
<path d="M95 34H89V95H95V34Z" fill="#E03E4C"/>
<path d="M90.4047 94.6035H24.6006V100.009H90.4047V94.6035Z" fill="#E03E4C"/>
<path d="M78.5635 17.3384H67.5488V22.9877H78.5635V17.3384Z" fill="#E03E4C"/>
<path d="M47.294 17.4653H36.2793V22.8712H47.294V17.4653Z" fill="#E03E4C"/>
<path d="M40 17H31V23H40V17Z" fill="#E03E4C"/>
<path d="M32.8867 22.8662H27.3794V28.4395H32.8867V22.8662Z" fill="#E03E4C"/>
<path d="M28 28H23V34H28V28Z" fill="#E03E4C"/>
<path d="M84 17H75V23H84V17Z" fill="#E03E4C"/>
<path d="M87.874 22.9878H82.3667V28.4394H87.874V22.9878Z" fill="#E03E4C"/>
<path d="M91.5811 28.4597H86.0737V33.9671H91.5811V28.4597Z" fill="#E03E4C"/>
<path d="M79 12H36V18H79V12Z" fill="#E03E4C"/>
<path d="M50.7426 60.1548H37.0503V62.8577H50.7426V60.1548Z" fill="black"/>
<path d="M72.8275 60.1548H59.1353V62.8577H72.8275V60.1548Z" fill="black"/>
<path d="M61.6864 67.5994H47.9941V70.3023H61.6864V67.5994Z" fill="black"/>
<path d="M45.3213 66.1438H36.8169V68.8468H45.3213V66.1438Z" fill="#F4A688"/>
<path d="M73.0967 66.1438H64.5923V68.8468H73.0967V66.1438Z" fill="#F4A688"/>
<path d="M51.9848 33.967H41.2744V39.373H51.9848V33.967Z" fill="#FEF1D5"/>
<path d="M62.9998 33.967H57.6953V39.373H62.9998V33.967Z" fill="#FEF1D5"/>
</svg>
