<svg width="78" height="91" viewBox="0 0 78 91" fill="none" xmlns="http://www.w3.org/2000/svg">
<g clip-path="url(#clip0_1089_2637)">
<path d="M55.66 22.62H44.56V28.32H55.66V22.62Z" fill="#ED6369"/>
<path d="M68.45 16.91H55.46V33.9H68.45V16.91Z" fill="#ED6369"/>
<path d="M60.38 5.81995H49.68V11.3299H60.38V5.81995Z" fill="#ED6369"/>
<path d="M68.44 33.91H61.2V39.56H68.44V33.91Z" fill="#ED6369"/>
<path d="M72.56 22.62H66.69V68.03H72.56V22.62Z" fill="#ED6369"/>
<path d="M72.56 67.53H61.2V73.75H72.56V67.53Z" fill="#ED6369"/>
<path d="M72.57 73.47H55.39V79.22H72.57V73.47Z" fill="#ED6369"/>
<path d="M72.56 78.98H50.15V84.73H72.56V78.98Z" fill="#ED6369"/>
<path d="M27.61 5.81995H17.1V11.3299H27.61V5.81995Z" fill="#ED6369"/>
<path d="M22.36 16.91H9.08V22.61H22.36V16.91Z" fill="#ED6369"/>
<path d="M22.35 22.62H5.32001V33.91H22.35V22.62Z" fill="#ED6369"/>
<path d="M10.97 39.59H5.32001V45.24H10.97V39.59Z" fill="#ED6369"/>
<path d="M16.55 33.91H5.32001V39.6H16.55V33.91Z" fill="#ED6369"/>
<path d="M39.2 22.62H33.31V28.32H39.2V22.62Z" fill="#ED6369"/>
<path d="M55.66 28.3199H22.36V33.9099H55.66V28.3199Z" fill="#FFFDED"/>
<path d="M61.2 33.91H16.55V41.67H61.2V33.91Z" fill="#FFFDED"/>
<path d="M66.69 39.59H10.94V67.53H66.69V39.59Z" fill="#FFFDED"/>
<path d="M11.38 45.24H5.32001V68.02H11.38V45.24Z" fill="#FFFDED"/>
<path d="M61.2 66.6899H10.71V73.7499H61.2V66.6899Z" fill="#FFFDED"/>
<path d="M55.39 73.08H16.55V79.22H55.39V73.08Z" fill="#FFFDED"/>
<path d="M50.16 78.98H22V84.73H50.16V78.98Z" fill="#FFFDED"/>
<path d="M10.71 68.02H5.32001V84.73H10.71V68.02Z" fill="#ED6369"/>
<path d="M16.55 73.75H10.71V84.74H16.55V73.75Z" fill="#ED6369"/>
<path d="M21.99 79.22H16.48V84.73H21.99V79.22Z" fill="#ED6369"/>
<path d="M60.38 0H17.1V5.82H60.38V0Z" fill="#C3313B"/>
<path d="M77.76 22.62H72.56V84.74H77.76V22.62Z" fill="#C3313B"/>
<path d="M72.56 84.74H5.32001V90.48H72.56V84.74Z" fill="#C3313B"/>
<path d="M5.32 22.62H0V84.74H5.32V22.62Z" fill="#C3313B"/>
<path d="M9.36 16.91H3.66V22.61H9.36V16.91Z" fill="#C3313B"/>
<path d="M13.61 11.3199H7.47V16.9099H13.61V11.3199Z" fill="#C3313B"/>
<path d="M17.11 5.81995H11.55V11.3299H17.11V5.81995Z" fill="#C3313B"/>
<path d="M65.89 5.81995H60.38V11.3299H65.89V5.81995Z" fill="#C3313B"/>
<path d="M69.99 11.3199H64.4V16.9099H69.99V11.3199Z" fill="#C3313B"/>
<path d="M74.15 16.91H68.45V22.61H74.15V16.91Z" fill="#C3313B"/>
<path d="M44.85 22.62H39.2V28.27H44.85V22.62Z" fill="#FAF0D6"/>
<path d="M33.31 22.62H22.36V28.32H33.31V22.62Z" fill="#FAF0D6"/>
<path d="M49.68 5.81995H27.61V11.3299H49.68V5.81995Z" fill="#FFFDED"/>
<path d="M64.4 11.3199H13.61V16.9099H64.4V11.3199Z" fill="#FFFDED"/>
<path d="M55.66 16.91H22.36V22.61H55.66V16.91Z" fill="#FFFDED"/>
<path d="M31.93 49.51H17.72V52.37H31.93V49.51Z" fill="#221E1F"/>
<path d="M54.45 49.51H40.5V52.37H54.45V49.51Z" fill="#221E1F"/>
<path d="M43.24 57.03H29.3V60.17H43.24V57.03Z" fill="#221E1F"/>
<path d="M26.44 55.49H17.72V58.6H26.44V55.49Z" fill="#F6AB86"/>
<path d="M54.79 55.49H46.07V58.6H54.79V55.49Z" fill="#F6AB86"/>
</g>
<defs>
<clipPath id="clip0_1089_2637">
<rect width="77.76" height="90.48" fill="white"/>
</clipPath>
</defs>
</svg>
