<svg width="244" height="100" viewBox="0 0 244 100" fill="none" xmlns="http://www.w3.org/2000/svg">
<path d="M227.981 0H15.4528V4.37831H227.981V0Z" fill="#D6D6D6"/>
<path d="M227.981 58.9362H15.4528V63.3145H227.981V58.9362Z" fill="#D6D6D6"/>
<path d="M8.36172 10.3472H0V53.1213H8.36172V10.3472Z" fill="#D6D6D6"/>
<path d="M243.28 10.3472H234.918V53.1213H243.28V10.3472Z" fill="#D6D6D6"/>
<path d="M15.4699 4.37836H8.36157V10.3643H15.4699V4.37836Z" fill="#D6D6D6"/>
<path d="M235.107 4.37836H227.998V10.3643H235.107V4.37836Z" fill="#D6D6D6"/>
<path d="M235.107 53.1213H227.998V59.1073H235.107V53.1213Z" fill="#D6D6D6"/>
<path d="M15.4699 53.1213H8.36157V59.1073H15.4699V53.1213Z" fill="#D6D6D6"/>
<path d="M227.981 4.37836H15.4528V58.9533H227.981V4.37836Z" fill="white"/>
<path d="M32.6054 10.3472H8.36157V53.1213H32.6054V10.3472Z" fill="white"/>
<path d="M235.107 10.3472H210.863V53.1213H235.107V10.3472Z" fill="white"/>
<path d="M104 57H83V81H104V57Z" fill="white"/>
<path d="M100.083 76.364H77.9681V82.6065H100.083V76.364Z" fill="white"/>
<path d="M91.189 82.6065H77.3844V88.849H91.189V82.6065Z" fill="white"/>
<path d="M74.8778 93.7575H67.5806V100H74.8778V93.7575Z" fill="white"/>
<path d="M83 63H79V77H83V63Z" fill="#D6D6D6"/>
<path d="M109 63H104V76H109V63Z" fill="#D6D6D6"/>
<path d="M104.049 76.364H98.675V82.6065H104.049V76.364Z" fill="#D6D6D6"/>
<path d="M79 76H75V94H79V76Z" fill="#D6D6D6"/>
<path d="M98.6753 82.6065H91.1892V88.849H98.6753V82.6065Z" fill="#D6D6D6"/>
<path d="M91.189 88.849H78.7581V93.7575H91.189V88.849Z" fill="#D6D6D6"/>
<path d="M36.6858 25.5776V35.4058H29.5803V25.5776H36.6858ZM31.3899 33.9282H34.843V27.022H31.3899V33.9282ZM38.9602 39.1245V24.1167H40.803V29.8774H43.1106V31.438H40.803V39.1245H38.9602ZM50.1567 24.4155C53.477 24.4155 55.5605 25.5029 55.5688 27.3374C55.5605 29.1304 53.477 30.2012 50.1567 30.1929C46.8696 30.2012 44.7446 29.1304 44.7446 27.3374C44.7446 25.5029 46.8696 24.4155 50.1567 24.4155ZM43.3335 32.6997V31.2056H57.0132V32.6997H43.3335ZM44.9438 38.9419V33.895H55.353V38.9419H44.9438ZM46.6704 27.3374C46.6538 28.2422 47.9653 28.7568 50.1567 28.7651C52.3481 28.7568 53.6596 28.2422 53.6596 27.3374C53.6596 26.3828 52.3481 25.8599 50.1567 25.8599C47.9653 25.8599 46.6538 26.3828 46.6704 27.3374ZM46.77 37.4478H53.56V35.356H46.77V37.4478ZM70.5671 24.1167V39.1245H68.7907V24.1167H70.5671ZM57.7673 30.6079C57.7673 27.3042 59.0456 25.2539 61.0046 25.2622C62.8224 25.2539 64.0593 26.9556 64.2751 29.7612H65.7194V24.3823H67.4792V38.394H65.7194V31.2554H64.2917C64.1174 34.1855 62.864 35.9785 61.0046 35.9702C59.0456 35.9785 57.7673 33.9199 57.7673 30.6079ZM59.4772 30.6079C59.4689 32.957 60.05 34.2188 61.0046 34.2104C62.0007 34.2188 62.59 32.957 62.5983 30.6079C62.59 28.2671 62.0007 26.9971 61.0046 27.0054C60.05 26.9971 59.4689 28.2671 59.4772 30.6079ZM87.714 31.1558V32.6333H77.1886V25.4282H87.5978V26.9224H79.0148V31.1558H87.714ZM75.5284 37.2153V35.688H89.2413V37.2153H75.5284ZM101.965 28.3667V29.8276H91.5726V24.6646H93.3987V28.3667H101.965ZM89.7962 33.0317V31.5708H103.509V33.0317H89.7962ZM91.4398 38.7759V34.3599H93.2825V37.2817H102.065V38.7759H91.4398ZM115.36 25.5776V35.4058H108.255V25.5776H115.36ZM110.064 33.9282H113.517V27.022H110.064V33.9282ZM117.634 39.1245V24.1167H119.477V29.8774H121.785V31.438H119.477V39.1245H117.634ZM134.492 24.1167V39.1411H132.633V24.1167H134.492ZM122.489 30.5083C122.481 27.271 124.133 25.2124 126.407 25.2124C128.657 25.2124 130.317 27.271 130.325 30.5083C130.317 33.7705 128.657 35.8208 126.407 35.8208C124.133 35.8208 122.481 33.7705 122.489 30.5083ZM124.266 30.5083C124.266 32.8159 125.137 34.1523 126.407 34.1606C127.669 34.1523 128.532 32.8159 128.532 30.5083C128.532 28.2173 127.669 26.8726 126.407 26.8726C125.137 26.8726 124.266 28.2173 124.266 30.5083ZM149.988 32.6167V34.1108H144.012V39.1079H142.186V34.1108H136.276V32.6167H149.988ZM137.952 30.8569V24.8804H148.312V30.8569H137.952ZM139.762 29.4126H146.469V26.3579H139.762V29.4126ZM164.273 30.9233V32.3179H150.56V30.9233H164.273ZM152.154 34.5093V33.2144H162.613V36.6343H154.013V37.6802H163.061V38.9585H152.17V35.439H160.786V34.5093H152.154ZM152.253 25.7271V24.4487H162.579V27.8354H154.129V28.8149H162.845V30.0767H152.303V26.6401H160.737V25.7271H152.253ZM180.473 24.6978V25.6274C180.473 26.5405 180.473 27.7192 180.208 29.1968L178.382 29.0308C178.581 27.8521 178.622 26.9473 178.631 26.1587H170.081V24.6978H180.473ZM168.52 31.3218V29.8774H173.8V27.5366H175.626V29.8774H182.134V31.3218H168.52ZM170.064 33.8784V32.4009H180.507V36.269H171.924V37.5308H180.888V38.9751H170.081V35.0073H178.664V33.8784H170.064ZM194.525 24.1167V29.8774H196.833V31.4214H194.525V39.1411H192.699V24.1167H194.525ZM183.369 26.9224V25.4282H190.275V31.0894H185.228V34.0776C187.611 34.061 189.462 33.9614 191.554 33.5962L191.72 35.0903C189.404 35.5054 187.362 35.605 184.631 35.605H183.402V29.6118H188.433V26.9224H183.369ZM199.646 25.3286V27.3374H203.547V25.3286H205.39V32.1851H202.534V34.5923C203.771 34.5342 205 34.4346 206.154 34.2769L206.286 35.6382C203.14 36.1777 199.712 36.2026 197.139 36.2192L196.873 34.6919C198.01 34.6836 199.322 34.6836 200.692 34.6504V32.1851H197.82V25.3286H199.646ZM199.646 30.7075H203.547V28.7485H199.646V30.7075ZM207.017 39.1245V24.1167H208.86V30.2095H211.034V31.7534H208.86V39.1245H207.017ZM214.428 25.6274L214.246 34.1108H212.37L212.17 25.6274H214.428ZM212.021 36.4849C212.013 35.7876 212.602 35.2148 213.316 35.2065C214.005 35.2148 214.594 35.7876 214.594 36.4849C214.594 37.1987 214.005 37.7798 213.316 37.7798C212.602 37.7798 212.013 37.1987 212.021 36.4849Z" fill="#1D1D1D"/>
</svg>
