<svg width="244" height="66" viewBox="0 0 244 66" fill="none" xmlns="http://www.w3.org/2000/svg">
<path d="M229 0H15V64H229V0Z" fill="white"/>
<path d="M230 0H15V5H230V0Z" fill="#D6D6D6"/>
<path d="M230 61H14V66H230V61Z" fill="#D6D6D6"/>
<path d="M244 10.8508H235.615V55.6865H244V10.8508Z" fill="#D6D6D6"/>
<path d="M15.5113 4.58081H8.38525V10.8508H15.5113V4.58081Z" fill="#D6D6D6"/>
<path d="M235.796 4.58081H228.67V10.8508H235.796V4.58081Z" fill="#D6D6D6"/>
<path d="M235.796 55.6865H228.67V61.9565H235.796V55.6865Z" fill="#D6D6D6"/>
<path d="M15.5113 55.6865H8.38525V61.9565H15.5113V55.6865Z" fill="#D6D6D6"/>
<path d="M33 11H4V56H33V11Z" fill="white"/>
<path d="M235.783 10.8508H211.472V55.6865H235.783V10.8508Z" fill="white"/>
<path d="M8.38515 10.8508H0V55.6865H8.38515V10.8508Z" fill="#D6D6D6"/>
<path d="M41.749 27.3582V36.6082H35.0615V27.3582H41.749ZM36.7646 35.2175H40.0146V28.7175H36.7646V35.2175ZM43.8896 40.1082V25.9832H45.624V31.405H47.7959V32.8738H45.624V40.1082H43.8896ZM54.4035 26.2644C57.5285 26.2644 59.4894 27.2878 59.4972 29.0144C59.4894 30.7019 57.5285 31.7097 54.4035 31.7019C51.3097 31.7097 49.3097 30.7019 49.3097 29.0144C49.3097 27.2878 51.3097 26.2644 54.4035 26.2644ZM47.9816 34.0613V32.655H60.8566V34.0613H47.9816ZM49.4972 39.9363V35.1863H59.2941V39.9363H49.4972ZM51.1222 29.0144C51.1066 29.866 52.341 30.3503 54.4035 30.3582C56.466 30.3503 57.7004 29.866 57.7004 29.0144C57.7004 28.116 56.466 27.6238 54.4035 27.6238C52.341 27.6238 51.1066 28.116 51.1222 29.0144ZM51.216 38.53H57.6066V36.5613H51.216V38.53ZM73.5892 25.9832V40.1082H71.9174V25.9832H73.5892ZM61.5424 32.0925C61.5424 28.9832 62.7455 27.0535 64.5892 27.0613C66.3002 27.0535 67.4642 28.655 67.6674 31.2957H69.0267V26.2332H70.683V39.4207H69.0267V32.7019H67.683C67.5189 35.4597 66.3392 37.1472 64.5892 37.1394C62.7455 37.1472 61.5424 35.2097 61.5424 32.0925ZM63.1517 32.0925C63.1439 34.3035 63.6908 35.491 64.5892 35.4832C65.5267 35.491 66.0814 34.3035 66.0892 32.0925C66.0814 29.8894 65.5267 28.6941 64.5892 28.7019C63.6908 28.6941 63.1439 29.8894 63.1517 32.0925ZM89.6795 32.6082V33.9988H79.7732V27.2175H89.5701V28.6238H81.492V32.6082H89.6795ZM78.2107 38.3113V36.8738H91.117V38.3113H78.2107ZM103.068 29.9832V31.3582H93.2871V26.4988H95.0059V29.9832H103.068ZM91.6152 34.3738V32.9988H104.521V34.3738H91.6152ZM93.1621 39.78V35.6238H94.8965V38.3738H103.162V39.78H93.1621ZM115.627 27.3582V36.6082H108.94V27.3582H115.627ZM110.643 35.2175H113.893V28.7175H110.643V35.2175ZM117.768 40.1082V25.9832H119.502V31.405H121.674V32.8738H119.502V40.1082H117.768ZM133.61 25.9832V40.1238H131.86V25.9832H133.61ZM122.313 31.9988C122.305 28.9519 123.86 27.0144 126.001 27.0144C128.118 27.0144 129.68 28.9519 129.688 31.9988C129.68 35.0691 128.118 36.9988 126.001 36.9988C123.86 36.9988 122.305 35.0691 122.313 31.9988ZM123.985 31.9988C123.985 34.1707 124.805 35.4285 126.001 35.4363C127.188 35.4285 128.001 34.1707 128.001 31.9988C128.001 29.8425 127.188 28.5769 126.001 28.5769C124.805 28.5769 123.985 29.8425 123.985 31.9988ZM148.171 33.9832V35.3894H142.546V40.0925H140.827V35.3894H135.264V33.9832H148.171ZM136.843 32.3269V26.7019H146.593V32.3269H136.843ZM138.546 30.9675H144.858V28.0925H138.546V30.9675ZM161.591 32.3894V33.7019H148.685V32.3894H161.591ZM150.185 35.7644V34.5457H160.028V37.7644H151.935V38.7488H160.45V39.9519H150.2V36.6394H158.31V35.7644H150.185ZM150.278 27.4988V26.2957H159.997V29.4832H152.044V30.405H160.247V31.5925H150.325V28.3582H158.263V27.4988H150.278ZM176.79 26.53V27.405C176.79 28.2644 176.79 29.3738 176.54 30.7644L174.822 30.6082C175.009 29.4988 175.048 28.6472 175.056 27.905H167.009V26.53H176.79ZM165.54 32.7644V31.405H170.509V29.2019H172.228V31.405H178.353V32.7644H165.54ZM166.994 35.1707V33.78H176.822V37.4207H168.744V38.6082H177.181V39.9675H167.009V36.2332H175.087V35.1707H166.994ZM189.992 25.9832V31.405H192.164V32.8582H189.992V40.1238H188.273V25.9832H189.992ZM179.492 28.6238V27.2175H185.992V32.5457H181.242V35.3582C183.484 35.3425 185.226 35.2488 187.195 34.905L187.351 36.3113C185.172 36.7019 183.25 36.7957 180.679 36.7957H179.523V31.155H184.257V28.6238H179.492ZM194.787 27.1238V29.0144H198.459V27.1238H200.193V33.5769H197.506V35.8425C198.67 35.7878 199.826 35.6941 200.912 35.5457L201.037 36.8269C198.076 37.3347 194.849 37.3582 192.428 37.3738L192.178 35.9363C193.248 35.9285 194.482 35.9285 195.771 35.8972V33.5769H193.068V27.1238H194.787ZM194.787 32.1863H198.459V30.3425H194.787V32.1863ZM201.724 40.1082V25.9832H203.459V31.7175H205.506V33.1707H203.459V40.1082H201.724ZM208.676 27.405L208.504 35.3894H206.738L206.551 27.405H208.676ZM206.41 37.6238C206.402 36.9675 206.957 36.4285 207.629 36.4207C208.277 36.4285 208.832 36.9675 208.832 37.6238C208.832 38.2957 208.277 38.8425 207.629 38.8425C206.957 38.8425 206.402 38.2957 206.41 37.6238Z" fill="#1D1D1D"/>
</svg>
