<svg width="341" height="637" viewBox="0 0 341 637" fill="none" xmlns="http://www.w3.org/2000/svg">
<rect x="0.5" y="0.5" width="340" height="636" rx="9.5" fill="white" stroke="black"/>
<path d="M18.5566 25L18.5469 23.9355L21.0859 21.6016C21.7451 20.9717 22.1016 20.5811 22.1016 20.0195C22.1016 19.3896 21.6279 18.999 20.9785 19.0039C20.3145 18.999 19.8799 19.4189 19.8848 20.0977H18.4883C18.4834 18.7158 19.5088 17.832 20.998 17.832C22.5117 17.832 23.5176 18.6963 23.5176 19.9219C23.5176 20.7275 23.127 21.3867 21.6719 22.7051L20.5977 23.75V23.7891H23.6152V25H18.5566ZM24.3867 23.75V22.5879L27.375 17.9297H29.2207V22.5684H30.1191V23.75H29.2207V25H27.8242V23.75H24.3867ZM25.8711 22.5684H27.8438V19.541H27.7754L25.8711 22.5098V22.5684ZM33.8203 25.0977C32.0479 25.0977 30.9785 23.7793 30.9785 21.4648C30.9785 19.1553 32.0576 17.832 33.8203 17.832C35.583 17.832 36.6621 19.1553 36.6621 21.4648C36.6621 23.7891 35.5879 25.0977 33.8203 25.0977ZM32.4824 21.4648C32.4727 23.0957 33 23.8867 33.8203 23.8867C34.6406 23.8867 35.1631 23.0957 35.1582 21.4648C35.1631 19.8486 34.6357 19.0381 33.8203 19.0332C33.0049 19.0381 32.4824 19.8486 32.4824 21.4648ZM40.2949 25.0977C38.7422 25.0977 37.6289 24.2432 37.5996 23.0078H39.084C39.1084 23.5352 39.6211 23.8818 40.3047 23.8867C41.0078 23.8818 41.5107 23.4912 41.5059 22.9199C41.5107 22.3438 40.998 21.9385 40.168 21.9336H39.5137V20.8496H40.168C40.8662 20.8496 41.3545 20.4688 41.3496 19.9121C41.3545 19.3701 40.9395 18.999 40.3145 19.0039C39.6895 18.999 39.1768 19.3506 39.1523 19.8926H37.7461C37.7705 18.6768 38.8643 17.832 40.3145 17.832C41.7891 17.832 42.7705 18.7061 42.7656 19.8242C42.7705 20.6152 42.2188 21.1768 41.4277 21.3184V21.377C42.4678 21.5039 43.0391 22.1338 43.0293 23.0176C43.0391 24.2285 41.8916 25.0977 40.2949 25.0977ZM46.8086 25.0977C45.0361 25.0977 43.9668 23.7793 43.9668 21.4648C43.9668 19.1553 45.0459 17.832 46.8086 17.832C48.5713 17.832 49.6504 19.1553 49.6504 21.4648C49.6504 23.7891 48.5762 25.0977 46.8086 25.0977ZM45.4707 21.4648C45.4609 23.0957 45.9883 23.8867 46.8086 23.8867C47.6289 23.8867 48.1514 23.0957 48.1465 21.4648C48.1514 19.8486 47.624 19.0381 46.8086 19.0332C45.9932 19.0381 45.4707 19.8486 45.4707 21.4648ZM50.5488 23.75V22.5879L53.5371 17.9297H55.3828V22.5684H56.2812V23.75H55.3828V25H53.9863V23.75H50.5488ZM52.0332 22.5684H54.0059V19.541H53.9375L52.0332 22.5098V22.5684Z" fill="black"/>
<path d="M271.195 45.7051C271.19 46.7549 272.265 47.9121 274.301 48.166L273.812 49.1719C272.26 48.9473 271.122 48.2295 270.541 47.2676C269.955 48.2246 268.822 48.9473 267.289 49.1719L266.791 48.166C268.812 47.9121 269.882 46.7549 269.887 45.7051V45.2754H271.195V45.7051ZM266.479 50.8613V49.8457H274.584V50.8613H271.127V53.8984H269.896V50.8613H266.479ZM282.172 45.0117V46.9551H283.373V47.9805H282.172V49.9824H280.922V45.0117H282.172ZM275.023 49.1914C277.021 48.6934 278.119 47.707 278.319 46.5254H275.463V45.5293H279.682C279.677 47.8828 278.188 49.4746 275.521 50.1777L275.023 49.1914ZM276.361 53.791V50.3145H282.172V53.791H276.361ZM277.602 52.8145H280.941V51.3203H277.602V52.8145ZM287.045 47.4336C287.04 48.7861 287.763 50.3486 289.223 51.0273L288.529 52.0039C287.538 51.5498 286.835 50.6416 286.435 49.5771C286.039 50.749 285.307 51.7451 284.281 52.2285L283.559 51.2422C285.038 50.5537 285.785 48.9033 285.795 47.4336V46.8867H283.91V45.8711H288.832V46.8867H287.045V47.4336ZM289.525 53.8984V45.0117H290.775V48.4004H292.084V49.4453H290.775V53.8984H289.525ZM300.531 48.4785V49.4551H292.406V48.4785H300.531ZM293.344 50.9199V49.9824H299.525V52.3066H294.574V52.8535H299.76V53.8203H293.354V51.418H298.295V50.9199H293.344ZM293.422 47.9902V45.1875H299.496V46.1836H294.662V47.0137H299.564V47.9902H293.422Z" fill="black"/>
<path d="M280.463 68.0117V76.8984H279.281V68.0117H280.463ZM272.592 74.3008C273.9 73.4951 274.389 71.9033 274.389 70.3945V69.916H272.934V68.9199H276.938V69.916H275.59V70.3945C275.585 71.8691 276.049 73.3633 277.348 74.1055L276.615 75.0234C275.819 74.5547 275.302 73.7637 274.999 72.8066C274.696 73.8418 274.159 74.7207 273.344 75.2188L272.592 74.3008ZM276.303 72.0645V71.0586H277.475V68.1582H278.646V76.4883H277.475V72.0645H276.303ZM284.76 68.9297V76H283.285V70.3262H283.246L281.625 71.3418V70.043L283.373 68.9297H284.76ZM293.852 69.1348V70.1309H286.459V69.1348H289.535V68.0996H290.766V69.1348H293.852ZM286.107 75.9902V74.9941H289.535V73.9736C288.021 73.8369 287.104 73.2168 287.113 72.2402C287.104 71.1611 288.271 70.5166 290.15 70.5215C291.996 70.5166 293.183 71.1611 293.178 72.2402C293.183 73.2168 292.255 73.8369 290.766 73.9688V74.9941H294.242V75.9902H286.107ZM288.393 72.2402C288.388 72.7676 288.998 73.0068 290.15 73.002C291.278 73.0068 291.898 72.7676 291.898 72.2402C291.898 71.7324 291.278 71.4932 290.15 71.4883C288.998 71.4932 288.388 71.7324 288.393 72.2402Z" fill="black"/>
<path d="M99.3379 52.0234V58.8398H101.857V60.8906H99.3379V69.7578H96.8379V52.0234H99.3379ZM85.1191 64.7773C89.3281 62.668 91.5938 59.8359 92.0625 55.8711H86.1348V53.8398H94.5918C94.5723 59.1523 92.502 63.752 86.5254 66.6914L85.1191 64.7773ZM117.58 52.0234V62.5703H115.1V58.3711H112.326V56.3594H115.1V52.0234H117.58ZM102.482 60.6172C105.393 59.6406 106.721 57.3164 106.779 55.0898H103.205V53.0977H112.854V55.0898H109.318C109.367 57.1602 110.637 59.25 113.4 60.168L112.17 62.1211C110.217 61.4863 108.859 60.1973 108.088 58.6055C107.307 60.4121 105.881 61.8672 103.771 62.5898L102.482 60.6172ZM105.393 66.3984C105.393 64.2402 107.717 62.9707 111.506 62.9609C115.305 62.9707 117.629 64.2402 117.639 66.3984C117.629 68.5566 115.305 69.8164 111.506 69.8164C107.717 69.8164 105.393 68.5566 105.393 66.3984ZM107.873 66.3984C107.873 67.4141 109.152 67.9219 111.506 67.9219C113.869 67.9219 115.148 67.4141 115.158 66.3984C115.148 65.373 113.869 64.8652 111.506 64.875C109.152 64.8652 107.873 65.373 107.873 66.3984ZM136.096 61.1836V63.1367H119.846V61.1836H126.721V60.0898H121.877V52.4531H134.201V54.3672H124.377V55.3633H133.791V57.1602H124.377V58.1758H134.357V60.0898H129.221V61.1836H136.096ZM121.74 66.8672C121.74 64.9922 123.986 63.9375 127.971 63.957C131.887 63.9375 134.143 64.9922 134.162 66.8672C134.143 68.7812 131.887 69.8066 127.971 69.7969C123.986 69.8066 121.74 68.7812 121.74 66.8672ZM124.24 66.8672C124.221 67.6289 125.412 67.9609 127.971 67.9609C130.471 67.9609 131.652 67.6289 131.662 66.8672C131.652 66.125 130.471 65.7832 127.971 65.793C125.412 65.7832 124.221 66.125 124.24 66.8672ZM152.053 52.043V65.0117H149.553V52.043H152.053ZM137.111 60.6172C140.09 59.6211 141.389 57.1504 141.389 54.7383V53.0195H143.986V54.7383C143.967 57.0918 145.227 59.3867 148.146 60.3242L146.877 62.2773C144.865 61.6133 143.488 60.2852 142.697 58.5957C141.896 60.4121 140.48 61.877 138.4 62.5898L137.111 60.6172ZM140.139 69.4844V63.7617H142.658V67.4922H152.521V69.4844H140.139ZM170.705 60.8125V62.7852H164.006V65.8516H161.545V62.7852H154.436V60.8125H170.705ZM156.35 69.4844V64.3086H158.83V67.4922H168.908V69.4844H156.35ZM156.467 59.3477V52.8047H168.615V59.3477H156.467ZM158.908 57.4141H166.174V54.7383H158.908V57.4141Z" fill="black"/>
<path d="M186.607 26L184.586 18.9297H186.188L187.379 23.8711H187.438L188.736 18.9297H190.113L191.412 23.8809H191.471L192.662 18.9297H194.264L192.242 26H190.807L189.459 21.332H189.4L188.043 26H186.607ZM195.016 26V18.9297H199.762V20.1406H196.48V21.8594H199.518V23.0703H196.48V24.7891H199.771V26H195.016ZM203.395 26H200.904V18.9297H203.424C205.553 18.9297 206.856 20.2529 206.852 22.4551C206.856 24.667 205.553 26 203.395 26ZM202.369 24.7402H203.336C204.684 24.7402 205.387 24.042 205.387 22.4551C205.387 20.8828 204.684 20.1895 203.346 20.1895H202.369V24.7402ZM213.814 18.9297V26H212.545L209.439 21.5078H209.381V26H207.916V18.9297H209.205L212.291 23.4219H212.359V18.9297H213.814ZM215.006 26V18.9297H219.752V20.1406H216.471V21.8594H219.508V23.0703H216.471V24.7891H219.762V26H215.006ZM224.732 20.9512C224.674 20.3896 224.229 20.0625 223.512 20.0625C222.77 20.0625 222.354 20.4043 222.35 20.873C222.345 21.3857 222.872 21.6152 223.482 21.752L224.117 21.9082C225.328 22.1865 226.231 22.8018 226.236 23.9785C226.231 25.2725 225.226 26.1025 223.502 26.0977C221.793 26.1025 220.704 25.3115 220.66 23.793H222.086C222.135 24.5059 222.701 24.8672 223.482 24.8672C224.254 24.8672 224.752 24.5059 224.752 23.9785C224.752 23.4951 224.312 23.2705 223.541 23.0801L222.77 22.8945C221.578 22.6016 220.846 22.0059 220.846 20.9707C220.841 19.6865 221.974 18.832 223.521 18.832C225.089 18.832 226.119 19.7012 226.139 20.9512H224.732ZM229.684 26H227.193V18.9297H229.713C231.842 18.9297 233.146 20.2529 233.141 22.4551C233.146 24.667 231.842 26 229.684 26ZM228.658 24.7402H229.625C230.973 24.7402 231.676 24.042 231.676 22.4551C231.676 20.8828 230.973 20.1895 229.635 20.1895H228.658V24.7402ZM234.986 26H233.404L235.855 18.9297H237.74L240.182 26H238.609L238.077 24.3691H235.519L234.986 26ZM235.89 23.2266H237.706L236.822 20.5215H236.773L235.89 23.2266ZM239.83 18.9297H241.48L243.111 21.9766H243.18L244.801 18.9297H246.451L243.873 23.4805V26H242.408V23.4805L239.83 18.9297ZM248.873 18.9297L248.033 21.7129H246.998L247.486 18.9297H248.873ZM253.688 20.9512C253.629 20.3896 253.185 20.0625 252.467 20.0625C251.725 20.0625 251.31 20.4043 251.305 20.873C251.3 21.3857 251.827 21.6152 252.438 21.752L253.072 21.9082C254.283 22.1865 255.187 22.8018 255.191 23.9785C255.187 25.2725 254.181 26.1025 252.457 26.0977C250.748 26.1025 249.659 25.3115 249.615 23.793H251.041C251.09 24.5059 251.656 24.8672 252.438 24.8672C253.209 24.8672 253.707 24.5059 253.707 23.9785C253.707 23.4951 253.268 23.2705 252.496 23.0801L251.725 22.8945C250.533 22.6016 249.801 22.0059 249.801 20.9707C249.796 19.6865 250.929 18.832 252.477 18.832C254.044 18.832 255.074 19.7012 255.094 20.9512H253.688ZM258.453 26V18.9297H261.227C262.833 18.9297 263.756 19.9209 263.756 21.3125C263.756 22.7236 262.818 23.6953 261.188 23.6953H259.918V26H258.453ZM259.918 22.5137H260.953C261.822 22.5137 262.247 22.0254 262.242 21.3125C262.247 20.6094 261.822 20.1357 260.953 20.1309H259.918V22.5137ZM271.158 22.4648C271.158 24.7744 269.728 26.0977 267.857 26.0977C265.973 26.0977 264.547 24.7646 264.547 22.4648C264.547 20.1553 265.973 18.832 267.857 18.832C269.728 18.832 271.158 20.1553 271.158 22.4648ZM266.041 22.4648C266.041 23.9736 266.759 24.7939 267.857 24.7988C268.946 24.7939 269.669 23.9736 269.664 22.4648C269.669 20.9512 268.946 20.1357 267.857 20.1309C266.759 20.1357 266.041 20.9512 266.041 22.4648ZM271.627 20.1406V18.9297H277.418V20.1406H275.25V26H273.795V20.1406H271.627ZM278.639 26H277.057L279.508 18.9297H281.393L283.834 26H282.262L281.729 24.3691H279.171L278.639 26ZM279.542 23.2266H281.358L280.475 20.5215H280.426L279.542 23.2266ZM283.492 20.1406V18.9297H289.283V20.1406H287.115V26H285.66V20.1406H283.492ZM296.354 22.4648C296.354 24.7744 294.923 26.0977 293.053 26.0977C291.168 26.0977 289.742 24.7646 289.742 22.4648C289.742 20.1553 291.168 18.832 293.053 18.832C294.923 18.832 296.354 20.1553 296.354 22.4648ZM291.236 22.4648C291.236 23.9736 291.954 24.7939 293.053 24.7988C294.142 24.7939 294.864 23.9736 294.859 22.4648C294.864 20.9512 294.142 20.1357 293.053 20.1309C291.954 20.1357 291.236 20.9512 291.236 22.4648ZM297.408 26V18.9297H302.154V20.1406H298.873V21.8594H301.91V23.0703H298.873V24.7891H302.164V26H297.408ZM307.135 20.9512C307.076 20.3896 306.632 20.0625 305.914 20.0625C305.172 20.0625 304.757 20.4043 304.752 20.873C304.747 21.3857 305.274 21.6152 305.885 21.752L306.52 21.9082C307.73 22.1865 308.634 22.8018 308.639 23.9785C308.634 25.2725 307.628 26.1025 305.904 26.0977C304.195 26.1025 303.106 25.3115 303.062 23.793H304.488C304.537 24.5059 305.104 24.8672 305.885 24.8672C306.656 24.8672 307.154 24.5059 307.154 23.9785C307.154 23.4951 306.715 23.2705 305.943 23.0801L305.172 22.8945C303.98 22.6016 303.248 22.0059 303.248 20.9707C303.243 19.6865 304.376 18.832 305.924 18.832C307.491 18.832 308.521 19.7012 308.541 20.9512H307.135Z" fill="black"/>
<path d="M169.869 607.012V615.918H168.619V611.123H167.027V610.107H168.619V607.012H169.869ZM162.223 613.262C163.712 612.578 164.439 610.884 164.439 609.238V608.867H162.594V607.871H167.564V608.867H165.719V609.238C165.714 610.801 166.437 612.432 167.936 613.076L167.203 614.062C166.168 613.584 165.475 612.651 165.094 611.519C164.708 612.729 164 613.735 162.965 614.248L162.223 613.262ZM178.473 607.012V615.898H177.232V607.012H178.473ZM171.041 613.33C172.691 613.34 174.845 613.35 176.744 613.096L176.832 614.004C174.845 614.37 172.804 614.365 171.207 614.365L171.041 613.33ZM171.217 609.072V608.096H173.287V607.109H174.547V608.096H176.617V609.072H171.217ZM171.734 611.113C171.729 610.083 172.638 609.419 173.922 609.414C175.226 609.419 176.114 610.083 176.119 611.113C176.114 612.119 175.226 612.803 173.922 612.803C172.638 612.803 171.729 612.119 171.734 611.113ZM172.916 611.113C172.906 611.587 173.321 611.851 173.922 611.855C174.522 611.851 174.928 611.587 174.928 611.113C174.928 610.64 174.522 610.361 173.922 610.361C173.321 610.361 172.906 610.64 172.916 611.113ZM185.309 609.023C185.313 610.693 185.987 612.319 187.467 612.959L186.705 613.955C185.719 613.477 185.055 612.588 184.684 611.489C184.303 612.656 183.619 613.613 182.604 614.111L181.822 613.096C183.346 612.407 184.039 610.693 184.049 609.023V607.695H185.309V609.023ZM186.471 610.811V609.805H188.219V607.012H189.449V615.918H188.219V610.811H186.471ZM198.033 607.012V615.918H196.773V607.012H198.033ZM191.031 613.838V607.715H192.281V609.883H194.195V607.715H195.426V613.838H191.031ZM192.281 612.832H194.195V610.85H192.281V612.832ZM203.912 608.184C203.907 609.487 205.064 610.879 207.076 611.221L206.529 612.256C204.977 611.948 203.829 611.074 203.253 609.937C202.667 611.064 201.515 611.943 199.977 612.256L199.439 611.221C201.417 610.869 202.574 609.473 202.584 608.184V607.539H203.912V608.184ZM199.234 614.805V613.779H207.369V614.805H199.234ZM216.002 610.996V611.924H207.867V610.996H216.002ZM208.795 613.223V612.363H215.025V614.463H210.045V614.971H215.289V615.82H208.805V613.672H213.795V613.223H208.795ZM208.863 608.018V607.168H215.016V609.258H210.123V609.736H215.172V610.576H208.883V608.467H213.766V608.018H208.863ZM226.266 607.012V615.918H225.006V607.012H226.266ZM219.088 610.801C219.083 608.862 220.074 607.637 221.441 607.637C222.779 607.637 223.775 608.862 223.775 610.801C223.775 612.754 222.779 613.975 221.441 613.975C220.074 613.975 219.083 612.754 219.088 610.801ZM220.289 610.801C220.284 612.124 220.748 612.847 221.441 612.842C222.115 612.847 222.569 612.124 222.574 610.801C222.569 609.482 222.115 608.76 221.441 608.76C220.748 608.76 220.284 609.482 220.289 610.801ZM235.572 611.221V612.217H227.467V611.221H229.293V610.156C228.644 609.868 228.277 609.429 228.277 608.857C228.277 607.783 229.542 607.144 231.52 607.139C233.482 607.144 234.747 607.783 234.752 608.857C234.747 609.438 234.371 609.883 233.707 610.166V611.221H235.572ZM228.395 614.277C228.395 613.252 229.562 612.681 231.51 612.686C233.429 612.681 234.596 613.252 234.605 614.277C234.596 615.327 233.429 615.889 231.51 615.889C229.562 615.889 228.395 615.327 228.395 614.277ZM229.576 608.857C229.566 609.346 230.265 609.595 231.52 609.59C232.76 609.595 233.463 609.346 233.463 608.857C233.463 608.359 232.76 608.096 231.52 608.096C230.265 608.096 229.566 608.359 229.576 608.857ZM229.664 614.277C229.659 614.731 230.279 614.961 231.51 614.961C232.716 614.961 233.351 614.731 233.355 614.277C233.351 613.838 232.716 613.628 231.51 613.623C230.279 613.628 229.659 613.838 229.664 614.277ZM230.553 611.221H232.467V610.474C232.174 610.513 231.856 610.527 231.52 610.527C231.173 610.527 230.851 610.508 230.553 610.474V611.221ZM240.396 608.369V609.355H236.1V608.369H237.643V607.256H238.873V608.369H240.396ZM236.305 611.865C236.305 610.63 237.135 609.761 238.268 609.756C239.405 609.761 240.216 610.63 240.221 611.865C240.216 613.105 239.405 613.984 238.268 613.984C237.135 613.984 236.305 613.105 236.305 611.865ZM237.398 611.865C237.398 612.544 237.75 612.93 238.268 612.93C238.766 612.93 239.122 612.544 239.127 611.865C239.122 611.196 238.766 610.791 238.268 610.791C237.75 610.791 237.398 611.196 237.398 611.865ZM240.729 615.518V607.188H241.891V610.625H242.613V607.012H243.795V615.898H242.613V611.621H241.891V615.518H240.729ZM252.857 611.914V612.91H249.4V615.898H248.17V612.91H244.752V611.914H252.857ZM245.152 610.42C246.949 610.2 247.945 609.331 248.077 608.457H245.484V607.48H252.135V608.457H249.542C249.669 609.331 250.65 610.2 252.477 610.42L252.027 611.396C250.465 611.187 249.347 610.522 248.81 609.609C248.268 610.522 247.159 611.187 245.611 611.396L245.152 610.42ZM260.895 607.012V615.918H259.645V611.973H257.994V610.938H259.645V609.805H257.994V608.799H259.645V607.012H260.895ZM253.268 613.096C254.791 612.407 255.484 610.693 255.494 609.023V607.695H256.754V609.023C256.759 610.708 257.433 612.354 258.912 613.018L258.15 614.014C257.154 613.53 256.49 612.622 256.119 611.494C255.733 612.646 255.05 613.594 254.049 614.092L253.268 613.096ZM265.396 609.023C265.401 610.693 266.075 612.319 267.555 612.959L266.793 613.955C265.807 613.477 265.143 612.588 264.771 611.489C264.391 612.656 263.707 613.613 262.691 614.111L261.91 613.096C263.434 612.407 264.127 610.693 264.137 609.023V607.695H265.396V609.023ZM266.559 610.811V609.805H268.307V607.012H269.537V615.918H268.307V610.811H266.559ZM280.035 607.012V608.955H281.236V609.98H280.035V611.982H278.785V607.012H280.035ZM272.887 611.191C274.884 610.693 275.982 609.707 276.183 608.525H273.326V607.529H277.545C277.54 609.883 276.051 611.475 273.385 612.178L272.887 611.191ZM274.225 615.791V612.314H280.035V615.791H274.225ZM275.465 614.814H278.805V613.32H275.465V614.814ZM284.898 609.023C284.894 610.615 285.572 612.222 286.998 612.91L286.246 613.906C285.294 613.433 284.649 612.554 284.283 611.484C283.893 612.632 283.209 613.574 282.203 614.072L281.432 613.066C282.94 612.373 283.648 610.674 283.648 609.023V607.695H284.898V609.023ZM287.389 615.898V607.012H288.639V610.439H289.947V611.494H288.639V615.898H287.389ZM297.32 607.012V609.15H298.521V610.186H297.32V612.217H296.07V607.012H297.32ZM290.27 608.77V607.793H292.291V606.953H293.531V607.793H295.543V608.77H290.27ZM290.699 610.596C290.699 609.648 291.598 609.023 292.906 609.023C294.2 609.023 295.094 609.648 295.094 610.596C295.094 611.543 294.2 612.168 292.906 612.168C291.598 612.168 290.699 611.543 290.699 610.596ZM291.5 615.801V612.559H292.74V613.232H296.07V612.559H297.32V615.801H291.5ZM291.92 610.596C291.915 611.025 292.311 611.255 292.906 611.26C293.507 611.255 293.912 611.025 293.912 610.596C293.912 610.181 293.507 609.932 292.906 609.941C292.311 609.932 291.915 610.181 291.92 610.596ZM292.74 614.824H296.07V614.189H292.74V614.824ZM306.383 607.012V615.898H305.143V607.012H306.383ZM299.391 613.701V607.861H300.621V612.642C301.822 612.622 303.111 612.51 304.42 612.256L304.576 613.281C303.019 613.608 301.544 613.706 300.172 613.701H299.391ZM314.566 607.012V610.312H315.875V611.328H314.566V615.918H313.316V607.012H314.566ZM307.906 613.76V607.832H312.076V608.838H309.146V612.734C310.436 612.725 311.5 612.656 312.682 612.451L312.818 613.496C311.437 613.73 310.226 613.765 308.658 613.76H307.906ZM318.219 607.93L318.092 612.881H316.842L316.715 607.93H318.219ZM316.656 614.268C316.646 613.818 317.018 613.452 317.477 613.457C317.911 613.452 318.287 613.818 318.287 614.268C318.287 614.722 317.911 615.088 317.477 615.088C317.018 615.088 316.646 614.722 316.656 614.268Z" fill="black"/>
<rect x="18.5" y="39.5" width="304" height="43" stroke="black"/>
<rect x="18.5" y="94.5" width="304" height="494" stroke="black"/>
<line x1="242.5" y1="83" x2="242.5" y2="39" stroke="black"/>
<line x1="243" y1="60.5" x2="323" y2="60.5" stroke="black"/>
</svg>
