<svg width="13" height="13" viewBox="0 0 13 13" fill="none" xmlns="http://www.w3.org/2000/svg">
<path d="M9.38278 1.03487L9.3828 1.03485C10.0958 0.321752 11.252 0.321699 11.9652 1.03479C12.6782 1.74777 12.6783 2.90373 11.9653 3.61678L11.9652 3.61678L11.7391 3.84294L9.15681 1.26084L9.38278 1.03487ZM1.61524 8.80275L7.76032 2.65738L10.3426 5.2395L4.19769 11.3847L4.55125 11.7382L4.19769 11.3847C3.99894 11.5835 3.7489 11.7232 3.47539 11.7883L0.504387 12.4956L1.2118 9.52469C1.27688 9.25139 1.41652 9.00149 1.61523 8.80276C1.61524 8.80275 1.61524 8.80275 1.61524 8.80275Z" fill="#EA4DA4" stroke="#EA4DA4"/>
</svg>
