<svg width="23" height="23" viewBox="0 0 23 23" fill="none" xmlns="http://www.w3.org/2000/svg">
<g filter="url(#filter0_i_1474_2856)">
<circle cx="11.5" cy="11.5" r="11.5" fill="white"/>
</g>
<path d="M14.3828 6.03487L14.3828 6.03485C15.0958 5.32175 16.252 5.3217 16.9652 6.03479C17.6782 6.74777 17.6783 7.90373 16.9653 8.61678L16.9652 8.61678L16.7391 8.84294L14.1568 6.26084L14.3828 6.03487ZM6.61524 13.8027L12.7603 7.65738L15.3426 10.2395L9.19769 16.3847L9.55125 16.7382L9.19769 16.3847C8.99894 16.5835 8.7489 16.7232 8.47539 16.7883L5.50439 17.4956L6.2118 14.5247C6.27688 14.2514 6.41652 14.0015 6.61523 13.8028C6.61524 13.8028 6.61524 13.8028 6.61524 13.8027Z" fill="#EA4DA4" stroke="#EA4DA4"/>
<defs>
<filter id="filter0_i_1474_2856" x="0" y="0" width="23" height="27" filterUnits="userSpaceOnUse" color-interpolation-filters="sRGB">
<feFlood flood-opacity="0" result="BackgroundImageFix"/>
<feBlend mode="normal" in="SourceGraphic" in2="BackgroundImageFix" result="shape"/>
<feColorMatrix in="SourceAlpha" type="matrix" values="0 0 0 0 0 0 0 0 0 0 0 0 0 0 0 0 0 0 127 0" result="hardAlpha"/>
<feOffset dy="4"/>
<feGaussianBlur stdDeviation="2"/>
<feComposite in2="hardAlpha" operator="arithmetic" k2="-1" k3="1"/>
<feColorMatrix type="matrix" values="0 0 0 0 0 0 0 0 0 0 0 0 0 0 0 0 0 0 0.1 0"/>
<feBlend mode="normal" in2="shape" result="effect1_innerShadow_1474_2856"/>
</filter>
</defs>
</svg>
