<svg width="43" height="43" viewBox="0 0 43 43" fill="none" xmlns="http://www.w3.org/2000/svg">
<circle cx="21.1754" cy="21.1754" r="20.1754" stroke="black" stroke-width="2"/>
<path d="M19.2263 26.9642V26.602C19.2334 25.3591 19.3435 24.3683 19.5566 23.6297C19.7768 22.891 20.0964 22.2944 20.5154 21.8399C20.9344 21.3853 21.4387 20.9734 22.0282 20.6041C22.4685 20.32 22.8627 20.0253 23.2107 19.7199C23.5587 19.4145 23.8357 19.0771 24.0417 18.7078C24.2476 18.3314 24.3506 17.9123 24.3506 17.4507C24.3506 16.9606 24.2334 16.5309 23.9991 16.1616C23.7647 15.7923 23.4486 15.5082 23.0509 15.3093C22.6603 15.1105 22.2271 15.0111 21.7512 15.0111C21.2896 15.0111 20.8528 15.114 20.4408 15.32C20.0289 15.5189 19.6915 15.8172 19.4288 16.2149C19.166 16.6055 19.0239 17.092 19.0026 17.6744H14.656C14.6915 16.2539 15.0324 15.0821 15.6788 14.1588C16.3251 13.2284 17.1809 12.5359 18.2462 12.0814C19.3116 11.6197 20.487 11.3889 21.7725 11.3889C23.1859 11.3889 24.4359 11.6233 25.5225 12.092C26.6092 12.5537 27.4614 13.2248 28.0793 14.1055C28.6972 14.9862 29.0062 16.048 29.0062 17.2909C29.0062 18.1218 28.8677 18.8605 28.5907 19.5068C28.3208 20.146 27.9408 20.7142 27.4508 21.2113C26.9607 21.7014 26.3819 22.1453 25.7143 22.543C25.1532 22.8768 24.6915 23.2248 24.3293 23.587C23.9742 23.9493 23.7079 24.3683 23.5303 24.8441C23.3599 25.32 23.2711 25.9059 23.264 26.602V26.9642H19.2263ZM21.3357 33.7824C20.6255 33.7824 20.0182 33.5338 19.514 33.0366C19.0168 32.5324 18.7718 31.9287 18.7789 31.2255C18.7718 30.5295 19.0168 29.9329 19.514 29.4358C20.0182 28.9386 20.6255 28.69 21.3357 28.69C22.0104 28.69 22.6035 28.9386 23.1148 29.4358C23.6262 29.9329 23.8854 30.5295 23.8925 31.2255C23.8854 31.6943 23.7611 32.124 23.5197 32.5146C23.2853 32.8981 22.9763 33.2071 22.5928 33.4415C22.2093 33.6687 21.7903 33.7824 21.3357 33.7824Z" fill="black"/>
</svg>
