<svg width="115" height="176" viewBox="0 0 115 176" fill="none" xmlns="http://www.w3.org/2000/svg">
<g clip-path="url(#clip0_1081_5198)">
<path d="M110 170.183H4.83887V175.271H110V170.183Z" fill="#EDC2E8"/>
<path d="M110 0.271484H4.83887V5.36025H110V0.271484Z" fill="#EDC2E8"/>
<path d="M4.83871 5.36035H0V170.236H4.83871V5.36035Z" fill="#EDC2E8"/>
<path d="M115.054 5.36035H110V170.236H115.054V5.36035Z" fill="#EDC2E8"/>
<path d="M110 10.2715H9V170.271H110V10.2715Z" fill="#FFE9EE"/>
<rect x="10" y="64.2715" width="11" height="44" fill="#EDC2E8"/>
<rect x="103" y="10.2715" width="7" height="160" fill="#F2CFEE"/>
<rect x="9" y="163.271" width="101" height="7" fill="#F2CFEE"/>
<rect x="10" y="64.2715" width="11" height="18" fill="#FA9EB1"/>
<rect x="26" y="23.2715" width="62" height="54" fill="white"/>
<rect x="26" y="21.2715" width="62" height="4" fill="#EDC2E8"/>
<rect x="26" y="77.2715" width="62" height="4" fill="#F2CFEE"/>
<path d="M88 77.2715V25.2715H92V77.2715H88Z" fill="#EDC2E8"/>
<path d="M22 77.2715L22 25.2715H26L26 77.2715H22Z" fill="#F2CFEE"/>
<rect x="26" y="25.2715" width="62" height="11" fill="#EFEFEF"/>
<rect x="26" y="74.2715" width="62" height="3" fill="#EFEFEF"/>
<rect x="26" y="87.2715" width="3" height="3" fill="#EDC2E8"/>
<rect x="30" y="77.2715" width="4" height="3" fill="white"/>
<rect x="36" y="77.2715" width="7" height="3" fill="white"/>
<rect x="31" y="87.2715" width="3" height="3" fill="#EDC2E8"/>
<rect x="36" y="87.2715" width="3" height="3" fill="#EDC2E8"/>
<rect x="98" y="117.271" width="5" height="5" fill="#F2CFEE"/>
<rect x="93" y="122.271" width="5" height="5" fill="#F2CFEE"/>
<rect x="98" y="127.271" width="5" height="5" fill="#F2CFEE"/>
<path d="M54.1924 48.3809C53.6045 48.3809 53.1191 47.9023 53.126 47.3145C53.1191 46.7402 53.6045 46.2686 54.1924 46.2617C54.7598 46.2686 55.2451 46.7402 55.2451 47.3145C55.2451 47.9023 54.7598 48.3809 54.1924 48.3809ZM58.0068 48.3809C57.4189 48.3809 56.9336 47.9023 56.9404 47.3145C56.9336 46.7402 57.4189 46.2686 58.0068 46.2617C58.5742 46.2686 59.0596 46.7402 59.0596 47.3145C59.0596 47.9023 58.5742 48.3809 58.0068 48.3809ZM61.8213 48.3809C61.2334 48.3809 60.748 47.9023 60.7549 47.3145C60.748 46.7402 61.2334 46.2686 61.8213 46.2617C62.3887 46.2686 62.874 46.7402 62.874 47.3145C62.874 47.9023 62.3887 48.3809 61.8213 48.3809Z" fill="black"/>
<mask id="mask0_1081_5198" style="mask-type:luminance" maskUnits="userSpaceOnUse" x="28" y="141" width="59" height="15">
<path d="M33.8656 144.204H30.9328V141.327H28V155.997H30.9328V147.14H33.8656V144.207V144.204ZM33.8656 150.129H36.7984V147.196H33.8656V150.129ZM39.7343 144.204H36.8015V147.137H39.7343V155.994H42.6672V141.324H39.7343V144.201V144.204ZM47.8267 141.327H44.8939V155.997H47.8267V150.073H50.7595V155.997H53.6923V141.327H47.8236H47.8267ZM50.7595 147.14H47.8267V144.263H50.7595V147.14ZM56.0274 155.942H58.9602V141.271H56.0274V155.942ZM67.2415 144.152H64.3086V141.275H61.3758V155.945H64.3086V147.088H67.2415V144.155V144.152ZM67.2415 150.076H70.1743V147.143H67.2415V150.076ZM73.1102 144.152H70.1774V147.084H73.1102V155.942H76.043V141.271H73.1102V144.149V144.152ZM84.0641 141.327V153.062H81.1313V141.327H78.1985V155.997H87V141.327H84.0672H84.0641Z" fill="white"/>
</mask>
<g mask="url(#mask0_1081_5198)">
<rect x="27.9287" y="141.25" width="59.0898" height="14.791" fill="#EDC2E8"/>
</g>
</g>
<defs>
<clipPath id="clip0_1081_5198">
<rect width="115" height="175" fill="white" transform="translate(0 0.271484)"/>
</clipPath>
</defs>
</svg>
