<svg width="115" height="176" viewBox="0 0 115 176" fill="none" xmlns="http://www.w3.org/2000/svg">
<g clip-path="url(#clip0_1081_5231)">
<path d="M110 170.183H4.83887V175.271H110V170.183Z" fill="#E6D113"/>
<path d="M110 0.271484H4.83887V5.36025H110V0.271484Z" fill="#E6D113"/>
<path d="M4.83871 5.36035H0V170.236H4.83871V5.36035Z" fill="#E6D113"/>
<path d="M115.054 5.36035H110V170.236H115.054V5.36035Z" fill="#E6D113"/>
<path d="M110 10.2715H9V170.271H110V10.2715Z" fill="#FFEECE"/>
<rect x="10" y="64.2715" width="11" height="44" fill="#E6A556"/>
<rect x="103" y="10.2715" width="7" height="160" fill="#FEF392"/>
<rect x="9" y="163.271" width="101" height="7" fill="#FEF392"/>
<rect x="10" y="64.2715" width="11" height="18" fill="#C97E24"/>
<rect x="26" y="24.2715" width="62" height="54" fill="white"/>
<rect x="26" y="22.2715" width="62" height="4" fill="#EEDB31"/>
<rect x="26" y="78.2715" width="62" height="4" fill="#FCEE70"/>
<path d="M88 78.2715V26.2715H92V78.2715H88Z" fill="#EEDB31"/>
<path d="M22 78.2715L22 26.2715H26L26 78.2715H22Z" fill="#FCEE70"/>
<rect x="26" y="26.2715" width="62" height="11" fill="#EFEFEF"/>
<rect x="26" y="75.2715" width="62" height="3" fill="#EFEFEF"/>
<rect x="26" y="88.2715" width="3" height="3" fill="#EEDB31"/>
<rect x="30" y="78.2715" width="4" height="3" fill="white"/>
<rect x="36" y="78.2715" width="7" height="3" fill="white"/>
<rect x="31" y="88.2715" width="3" height="3" fill="#EEDB31"/>
<rect x="36" y="88.2715" width="3" height="3" fill="#EEDB31"/>
<rect x="98" y="118.271" width="5" height="5" fill="#FFF7AC"/>
<rect x="93" y="123.271" width="5" height="5" fill="#FFF7AC"/>
<rect x="98" y="128.271" width="5" height="5" fill="#FFF7AC"/>
<mask id="mask0_1081_5231" style="mask-type:luminance" maskUnits="userSpaceOnUse" x="28" y="141" width="59" height="15">
<path d="M33.8656 144.204H30.9328V141.327H28V155.997H30.9328V147.14H33.8656V144.207V144.204ZM33.8656 150.129H36.7984V147.196H33.8656V150.129ZM39.7343 144.204H36.8015V147.137H39.7343V155.994H42.6672V141.324H39.7343V144.201V144.204ZM47.8267 141.327H44.8939V155.997H47.8267V150.073H50.7595V155.997H53.6923V141.327H47.8236H47.8267ZM50.7595 147.14H47.8267V144.263H50.7595V147.14ZM56.0274 155.942H58.9602V141.271H56.0274V155.942ZM67.2415 144.152H64.3086V141.275H61.3758V155.945H64.3086V147.088H67.2415V144.155V144.152ZM67.2415 150.076H70.1743V147.143H67.2415V150.076ZM73.1102 144.152H70.1774V147.084H73.1102V155.942H76.043V141.271H73.1102V144.149V144.152ZM84.0641 141.327V153.062H81.1313V141.327H78.1985V155.997H87V141.327H84.0672H84.0641Z" fill="white"/>
</mask>
<g mask="url(#mask0_1081_5231)">
<rect x="27.9287" y="141.25" width="59.0898" height="14.791" fill="#E6D113"/>
</g>
<path d="M46.5273 40.373V50.2715H44.7363V42.1094H44.6816L42.3711 43.5859V41.959L44.8184 40.373H46.5273ZM55.8652 40.3184V41.5215H48.5371V40.3184H51.4492V39.0742H52.9668V40.3184H55.8652ZM49.166 44.2559C49.166 42.9023 50.417 42 52.2012 42C53.9854 42 55.2158 42.9023 55.2227 44.2559C55.2158 45.6094 53.9854 46.5117 52.2012 46.5117C50.417 46.5117 49.166 45.6094 49.166 44.2559ZM50.041 48.6582V47.4414H58.2715V51.4883H56.7539V48.6582H50.041ZM50.6426 44.2559C50.6357 44.9531 51.2646 45.3428 52.2012 45.3359C53.1377 45.3428 53.7734 44.9531 53.7734 44.2559C53.7734 43.5586 53.1377 43.1484 52.2012 43.1484C51.2646 43.1484 50.6357 43.5586 50.6426 44.2559ZM56.7539 46.8672V39.1289H58.2715V42.4102H59.9941V43.6543H58.2715V46.8672H56.7539ZM70.9727 39.1426V48.248H69.4551V44.1328H66.2285V42.9297H69.4551V41.8086H66.2285V40.6055H69.4551V39.1426H70.9727ZM61.334 46.5664V39.9629H62.8379V45.3086C64.4102 45.2881 65.9004 45.1924 67.5547 44.8984L67.7051 46.1289C65.8047 46.4912 64.1367 46.5596 62.3047 46.5664H61.334ZM62.8516 51.2422V47.4414H64.3828V50.0117H71.2871V51.2422H62.8516ZM50.9502 67.4082C48.7422 67.4082 47.1836 66.2324 47.1904 64.6191C47.1836 63.3613 48.1201 62.3359 49.3096 62.1445V62.0898C48.2705 61.8711 47.5664 60.9688 47.5596 59.8887C47.5664 58.3574 48.9951 57.2363 50.9502 57.2363C52.8916 57.2363 54.3271 58.3574 54.3271 59.8887C54.3271 60.9756 53.6025 61.8711 52.5771 62.0898V62.1445C53.7598 62.3359 54.7031 63.3613 54.71 64.6191C54.7031 66.2324 53.1377 67.4082 50.9502 67.4082ZM49.0225 64.4551C49.0156 65.3711 49.7744 66 50.9502 66C52.1123 66 52.8711 65.3711 52.8779 64.4551C52.8711 63.5254 52.0645 62.835 50.9502 62.8418C49.8359 62.835 49.0156 63.5186 49.0225 64.4551ZM49.2959 60.0527C49.3027 60.9209 49.9863 61.5156 50.9502 61.5156C51.9004 61.5156 52.5908 60.9209 52.5908 60.0527C52.5908 59.2119 51.9209 58.6309 50.9502 58.6309C49.959 58.6309 49.3027 59.2119 49.2959 60.0527ZM65.5244 56.1426V59.7109H67.2471V60.9688H65.5244V65.2344H64.0068V56.1426H65.5244ZM56.2002 63.2246V57.0176H57.7041V58.9043H60.5889V57.0176H62.0928V63.2246H56.2002ZM57.6084 68.2422V64.3184H59.126V67.0117H66.0166V68.2422H57.6084ZM57.7041 62.0215H60.5889V60.0801H57.7041V62.0215Z" fill="black"/>
<rect x="5" y="6" width="4" height="164" fill="white"/>
<rect x="10" y="5" width="101" height="5" fill="white"/>
</g>
<defs>
<clipPath id="clip0_1081_5231">
<rect width="115" height="175" fill="white" transform="translate(0 0.271484)"/>
</clipPath>
</defs>
</svg>
